STARTFONT 2.1
COMMENT
COMMENT Converted from OpenType font "Q:\font stuff\winfont\Clipe Bold.ttf" by "otf2bdf 3.0".
COMMENT
FONT -FreeType-Clipe-Bold-R-Normal--189-1900-72-72-P-803-ISO10646-1
SIZE 190 72 72
FONTBOUNDINGBOX 185 207 0 -36
STARTPROPERTIES 19
FOUNDRY "FreeType"
FAMILY_NAME "Clipe"
WEIGHT_NAME "Bold"
SLANT "R"
SETWIDTH_NAME "Normal"
ADD_STYLE_NAME ""
PIXEL_SIZE 189
POINT_SIZE 1900
RESOLUTION_X 72
RESOLUTION_Y 72
SPACING "P"
AVERAGE_WIDTH 803
CHARSET_REGISTRY "ISO10646"
CHARSET_ENCODING "1"
FONT_ASCENT 171
FONT_DESCENT 35
COPYRIGHT "Copy righÿ(R) : 1999 Creaÿion all righÿs reserÿed. ClipeBold. Designed by Masaÿo Shimonima : Design sÿudio Creaÿion."
_OTF_FONTFILE "Q:\font stuff\winfont\Clipe Bold.ttf"
_OTF_PSNAME "ClipeBold"
ENDPROPERTIES
CHARS 110
STARTCHAR 0020
ENCODING 32
SWIDTH 300 0
DWIDTH 57 0
BBX 0 0 0 0
BITMAP
ENDCHAR
STARTCHAR 0021
ENCODING 33
SWIDTH 394 0
DWIDTH 75 0
BBX 52 154 11 0
BITMAP
007FFFFFFFF000
01FFFFFFFFFC00
07FFFFFFFFFF00
0FFFFFFFFFFF80
1FFFFFFFFFFFC0
3FFFFFFFFFFFC0
3FFFFFFFFFFFE0
7FFFFFFFFFFFE0
7FFFFFFFFFFFF0
7FFFFFFFFFFFF0
FFFFFFFFFFFFF0
FFFFFFFFFFFFF0
FFFFFFFFFFFFF0
FFFFFFFFFFFFF0
FFFFFFFFFFFFF0
7FFFFFFFFFFFF0
7FFFFFFFFFFFF0
7FFFFFFFFFFFF0
7FFFFFFFFFFFF0
7FFFFFFFFFFFF0
7FFFFFFFFFFFF0
7FFFFFFFFFFFF0
7FFFFFFFFFFFF0
7FFFFFFFFFFFF0
7FFFFFFFFFFFF0
7FFFFFFFFFFFF0
7FFFFFFFFFFFF0
7FFFFFFFFFFFF0
7FFFFFFFFFFFF0
7FFFFFFFFFFFF0
7FFFFFFFFFFFE0
7FFFFFFFFFFFE0
7FFFFFFFFFFFE0
7FFFFFFFFFFFE0
7FFFFFFFFFFFE0
7FFFFFFFFFFFE0
3FFFFFFFFFFFE0
3FFFFFFFFFFFE0
3FFFFFFFFFFFE0
3FFFFFFFFFFFE0
3FFFFFFFFFFFE0
3FFFFFFFFFFFE0
3FFFFFFFFFFFE0
3FFFFFFFFFFFE0
3FFFFFFFFFFFE0
3FFFFFFFFFFFE0
3FFFFFFFFFFFE0
3FFFFFFFFFFFE0
3FFFFFFFFFFFE0
3FFFFFFFFFFFE0
3FFFFFFFFFFFE0
3FFFFFFFFFFFE0
3FFFFFFFFFFFC0
3FFFFFFFFFFFC0
3FFFFFFFFFFFC0
3FFFFFFFFFFFC0
3FFFFFFFFFFFC0
1FFFFFFFFFFFC0
1FFFFFFFFFFFC0
1FFFFFFFFFFFC0
1FFFFFFFFFFFC0
1FFFFFFFFFFFC0
1FFFFFFFFFFFC0
1FFFFFFFFFFFC0
1FFFFFFFFFFFC0
1FFFFFFFFFFFC0
1FFFFFFFFFFFC0
1FFFFFFFFFFFC0
1FFFFFFFFFFFC0
1FFFFFFFFFFFC0
1FFFFFFFFFFFC0
1FFFFFFFFFFFC0
1FFFFFFFFFFFC0
1FFFFFFFFFFFC0
1FFFFFFFFFFF80
1FFFFFFFFFFF80
1FFFFFFFFFFF80
1FFFFFFFFFFF80
0FFFFFFFFFFF80
0FFFFFFFFFFF80
0FFFFFFFFFFF80
0FFFFFFFFFFF80
0FFFFFFFFFFF80
0FFFFFFFFFFF80
0FFFFFFFFFFF80
0FFFFFFFFFFF80
0FFFFFFFFFFF80
0FFFFFFFFFFF80
0FFFFFFFFFFF80
0FFFFFFFFFFF80
0FFFFFFFFFFF80
0FFFFFFFFFFF80
0FFFFFFFFFFF80
0FFFFFFFFFFF80
0FFFFFFFFFFF80
0FFFFFFFFFFF80
0FFFFFFFFFFF00
0FFFFFFFFFFF00
0FFFFFFFFFFF00
07FFFFFFFFFF00
07FFFFFFFFFF00
07FFFFFFFFFF00
03FFFFFFFFFE00
03FFFFFFFFFE00
01FFFFFFFFFC00
00FFFFFFFFF800
007FFFFFFFF000
003FFFFFFFE000
000FFFFFFF8000
0000FFFFF80000
00000000000000
00000000000000
00000000000000
00000000000000
00000000000000
00000000000000
00000000000000
00000000000000
00000000000000
000FFFFFFF0000
003FFFFFFFC000
007FFFFFFFF000
00FFFFFFFFF800
01FFFFFFFFFC00
03FFFFFFFFFE00
03FFFFFFFFFE00
07FFFFFFFFFF00
07FFFFFFFFFF00
07FFFFFFFFFF00
0FFFFFFFFFFF00
0FFFFFFFFFFF00
0FFFFFFFFFFF00
0FFFFFFFFFFF00
0FFFFFFFFFFF00
0FFFFFFFFFFF00
0FFFFFFFFFFF00
0FFFFFFFFFFF00
0FFFFFFFFFFF00
0FFFFFFFFFFF00
0FFFFFFFFFFF00
0FFFFFFFFFFF00
0FFFFFFFFFFF00
0FFFFFFFFFFF00
0FFFFFFFFFFF00
07FFFFFFFFFF00
07FFFFFFFFFF00
07FFFFFFFFFF00
03FFFFFFFFFE00
03FFFFFFFFFC00
01FFFFFFFFFC00
00FFFFFFFFF800
007FFFFFFFF000
003FFFFFFFC000
0007FFFFFF0000
ENDCHAR
STARTCHAR 0022
ENCODING 34
SWIDTH 436 0
DWIDTH 83 0
BBX 61 53 11 101
BITMAP
1FFFFC0001FFFFC0
3FFFFF0003FFFFE0
7FFFFF8007FFFFF0
7FFFFF8007FFFFF0
7FFFFF800FFFFFF8
FFFFFF800FFFFFF8
FFFFFF800FFFFFF8
FFFFFF800FFFFFF8
FFFFFF800FFFFFF8
FFFFFF800FFFFFF8
FFFFFF800FFFFFF8
FFFFFF800FFFFFF8
FFFFFF800FFFFFF8
FFFFFF800FFFFFF8
FFFFFF800FFFFFF8
FFFFFF800FFFFFF8
FFFFFF800FFFFFF8
FFFFFF800FFFFFF8
FFFFFF800FFFFFF8
FFFFFF800FFFFFF8
FFFFFF800FFFFFF8
FFFFFF800FFFFFF8
FFFFFF800FFFFFF8
FFFFFF800FFFFFF8
FFFFFF800FFFFFF8
FFFFFF800FFFFFF8
FFFFFF800FFFFFF8
FFFFFF800FFFFFF8
FFFFFF800FFFFFF8
FFFFFF800FFFFFF8
FFFFFF800FFFFFF8
FFFFFF800FFFFFF8
FFFFFF800FFFFFF8
FFFFFF800FFFFFF8
FFFFFF800FFFFFF8
FFFFFF800FFFFFF8
FFFFFF800FFFFFF8
FFFFFF800FFFFFF8
FFFFFF800FFFFFF8
FFFFFF800FFFFFF8
FFFFFF800FFFFFF8
FFFFFF800FFFFFF8
FFFFFF800FFFFFF8
FFFFFF800FFFFFF8
FFFFFF800FFFFFF8
FFFFFF800FFFFFF8
FFFFFF800FFFFFF8
FFFFFF800FFFFFF8
FFFFFF800FFFFFF8
7FFFFF8007FFFFF0
7FFFFF8007FFFFF0
3FFFFF0003FFFFE0
1FFFFC0001FFFFC0
ENDCHAR
STARTCHAR 0023
ENCODING 35
SWIDTH 721 0
DWIDTH 137 0
BBX 118 109 9 29
BITMAP
0000000007FFFC0000001FFFF00000
000000001FFFFF0000007FFFFC0000
000000003FFFFF800000FFFFFE0000
000000007FFFFF800001FFFFFE0000
00000000FFFFFFC00001FFFFFF0000
00000000FFFFFFC00003FFFFFF0000
00000000FFFFFFC00003FFFFFF0000
00000001FFFFFFC00003FFFFFF0000
00000001FFFFFF800003FFFFFE0000
00000001FFFFFF800003FFFFFE0000
00000001FFFFFF800007FFFFFE0000
00000001FFFFFF800007FFFFFE0000
00000003FFFFFF800007FFFFFE0000
00000003FFFFFF800007FFFFFC0000
00000003FFFFFF000007FFFFFC0000
00000003FFFFFF00000FFFFFFC0000
00000003FFFFFF00000FFFFFFC0000
00000003FFFFFF00000FFFFFFC0000
00000007FFFFFF00000FFFFFFC0000
00000007FFFFFE00000FFFFFF80000
0003FFFFFFFFFFFFFFFFFFFFFFFFF0
000FFFFFFFFFFFFFFFFFFFFFFFFFFC
000FFFFFFFFFFFFFFFFFFFFFFFFFFC
001FFFFFFFFFFFFFFFFFFFFFFFFFFC
001FFFFFFFFFFFFFFFFFFFFFFFFFFC
001FFFFFFFFFFFFFFFFFFFFFFFFFFC
003FFFFFFFFFFFFFFFFFFFFFFFFFFC
003FFFFFFFFFFFFFFFFFFFFFFFFFFC
003FFFFFFFFFFFFFFFFFFFFFFFFFFC
003FFFFFFFFFFFFFFFFFFFFFFFFFFC
003FFFFFFFFFFFFFFFFFFFFFFFFFF8
007FFFFFFFFFFFFFFFFFFFFFFFFFF8
007FFFFFFFFFFFFFFFFFFFFFFFFFF8
007FFFFFFFFFFFFFFFFFFFFFFFFFF8
007FFFFFFFFFFFFFFFFFFFFFFFFFF8
007FFFFFFFFFFFFFFFFFFFFFFFFFF8
007FFFFFFFFFFFFFFFFFFFFFFFFFF0
007FFFFFFFFFFFFFFFFFFFFFFFFFF0
007FFFFFFFFFFFFFFFFFFFFFFFFFF0
007FFFFFFFFFFFFFFFFFFFFFFFFFE0
003FFFFFFFFFFFFFFFFFFFFFFFFFC0
001FFFFFFFFFFFFFFFFFFFFFFFFF00
0000007FFFFFE00000FFFFFF800000
0000007FFFFFE00000FFFFFF800000
0000007FFFFFE00001FFFFFF800000
0000007FFFFFE00001FFFFFF800000
0000007FFFFFE00001FFFFFF800000
000000FFFFFFE00001FFFFFF000000
000000FFFFFFC00001FFFFFF000000
000000FFFFFFC00003FFFFFF000000
000000FFFFFFC00003FFFFFF000000
000000FFFFFFC00003FFFFFF000000
000001FFFFFFC00003FFFFFF000000
000001FFFFFF800003FFFFFE000000
000001FFFFFF800003FFFFFE000000
000001FFFFFF800007FFFFFE000000
000001FFFFFF800007FFFFFE000000
000001FFFFFF800007FFFFFE000000
000003FFFFFF800007FFFFFE000000
000003FFFFFF000007FFFFFC000000
000003FFFFFF000007FFFFFC000000
000003FFFFFF00000FFFFFFC000000
000003FFFFFF00000FFFFFFC000000
000007FFFFFF00000FFFFFFC000000
000007FFFFFF00000FFFFFF8000000
03FFFFFFFFFFFFFFFFFFFFFFFFF000
07FFFFFFFFFFFFFFFFFFFFFFFFF800
0FFFFFFFFFFFFFFFFFFFFFFFFFFC00
1FFFFFFFFFFFFFFFFFFFFFFFFFFC00
1FFFFFFFFFFFFFFFFFFFFFFFFFFC00
3FFFFFFFFFFFFFFFFFFFFFFFFFFC00
3FFFFFFFFFFFFFFFFFFFFFFFFFFC00
3FFFFFFFFFFFFFFFFFFFFFFFFFFC00
3FFFFFFFFFFFFFFFFFFFFFFFFFFC00
3FFFFFFFFFFFFFFFFFFFFFFFFFFC00
3FFFFFFFFFFFFFFFFFFFFFFFFFFC00
7FFFFFFFFFFFFFFFFFFFFFFFFFF800
7FFFFFFFFFFFFFFFFFFFFFFFFFF800
7FFFFFFFFFFFFFFFFFFFFFFFFFF800
7FFFFFFFFFFFFFFFFFFFFFFFFFF800
7FFFFFFFFFFFFFFFFFFFFFFFFFF800
7FFFFFFFFFFFFFFFFFFFFFFFFFF000
FFFFFFFFFFFFFFFFFFFFFFFFFFF000
FFFFFFFFFFFFFFFFFFFFFFFFFFF000
7FFFFFFFFFFFFFFFFFFFFFFFFFF000
7FFFFFFFFFFFFFFFFFFFFFFFFFE000
3FFFFFFFFFFFFFFFFFFFFFFFFFC000
0FFFFFFFFFFFFFFFFFFFFFFFFF0000
00007FFFFFE00000FFFFFF80000000
00007FFFFFE00001FFFFFF80000000
00007FFFFFE00001FFFFFF80000000
00007FFFFFE00001FFFFFF80000000
0000FFFFFFE00001FFFFFF80000000
0000FFFFFFC00001FFFFFF80000000
0000FFFFFFC00001FFFFFF00000000
0000FFFFFFC00003FFFFFF00000000
0000FFFFFFC00003FFFFFF00000000
0000FFFFFFC00003FFFFFF00000000
0001FFFFFFC00003FFFFFF00000000
0001FFFFFF800003FFFFFF00000000
0001FFFFFF800007FFFFFE00000000
0001FFFFFF800007FFFFFE00000000
0001FFFFFF800007FFFFFE00000000
0001FFFFFF000007FFFFFE00000000
0001FFFFFF000007FFFFFC00000000
0001FFFFFE000003FFFFFC00000000
0000FFFFFC000003FFFFF800000000
00007FFFF8000001FFFFE000000000
00003FFFE00000007FFF8000000000
ENDCHAR
STARTCHAR 0024
ENCODING 36
SWIDTH 621 0
DWIDTH 118 0
BBX 100 190 9 -20
BITMAP
00000000007FFFE00000000000
0000000001FFFFF80000000000
0000000003FFFFF80000000000
0000000003FFFFFC0000000000
0000000003FFFFFC0000000000
0000000003FFFFFC0000000000
0000000003FFFFFC0000000000
0000000003FFFFFC0000000000
0000000003FFFFFC0000000000
0000000003FFFFFC0000000000
0000000003FFFFFC0000000000
0000000003FFFFFC0000000000
0000000003FFFFFC0000000000
0000000003FFFFFC0000000000
0000000003FFFFFC0000000000
0000000003FFFFFC0000000000
0000FFFFFFFFFFFFFFFFF00000
0007FFFFFFFFFFFFFFFFFE0000
001FFFFFFFFFFFFFFFFFFF8000
007FFFFFFFFFFFFFFFFFFFE000
00FFFFFFFFFFFFFFFFFFFFF000
01FFFFFFFFFFFFFFFFFFFFF800
03FFFFFFFFFFFFFFFFFFFFFC00
07FFFFFFFFFFFFFFFFFFFFFE00
0FFFFFFFFFFFFFFFFFFFFFFF00
0FFFFFFFFFFFFFFFFFFFFFFF00
1FFFFFFFFFFFFFFFFFFFFFFF80
1FFFFFFFFFFFFFFFFFFFFFFFC0
3FFFFFFFFFFFFFFFFFFFFFFFC0
3FFFFFFFFFFFFFFFFFFFFFFFC0
7FFFFFFFFFFFFFFFFFFFFFFFE0
7FFFFFFFFFFFFFFFFFFFFFFFE0
7FFFFFFFFFFFFFFFFFFFFFFFE0
7FFFFFFFFFFFFFFFFFFFFFFFE0
7FFFFFFFFFFFFFFFFFFFFFFFF0
7FFFFFFFFFFFFFFFFFFFFFFFF0
FFFFFFFFFFFFFFFFFFFFFFFFF0
FFFFFFFFFFFFFFFFFFFFFFFFF0
FFFFFFFFFFFFFFFFFFFFFFFFF0
FFFFFFFFFFFFFFFFFFFFFFFFF0
FFFFFFFFFFFFFFFFFFFFFFFFF0
FFFFFFFFFFFFFFFFFFFFFFFFF0
FFFFFFFFFFFFFFFFFFFFFFFFF0
FFFFFFFFFFFFFFFFFFFFFFFFF0
FFFFFFFFFFFFFFFFFFFFFFFFF0
FFFFFFFFFFFE07FFFFFFFFFFF0
FFFFFFFFFFF800FFFFFFFFFFF0
FFFFFFFFFFE0007FFFFFFFFFF0
FFFFFFFFFFC0003FFFFFFFFFF0
FFFFFFFFFF80001FFFFFFFFFF0
FFFFFFFFFF80001FFFFFFFFFF0
FFFFFFFFFF00000FFFFFFFFFF0
FFFFFFFFFF00000FFFFFFFFFF0
FFFFFFFFFF00000FFFFFFFFFF0
FFFFFFFFFF00000FFFFFFFFFF0
FFFFFFFFFF00000FFFFFFFFFF0
FFFFFFFFFF00000FFFFFFFFFE0
FFFFFFFFFF00000FFFFFFFFFE0
FFFFFFFFFF00000FFFFFFFFFC0
FFFFFFFFFF00000FFFFFFFFFC0
FFFFFFFFFF80001FFFFFFFFF80
FFFFFFFFFF80001FFFFFFFFF00
FFFFFFFFFFC0000FFFFFFFFE00
FFFFFFFFFFE00003FFFFFFF800
FFFFFFFFFFF800007FFFFFC000
FFFFFFFFFFFE0E000000000000
FFFFFFFFFFFFFF000000000000
FFFFFFFFFFFFFF800000000000
FFFFFFFFFFFFFFC00000000000
FFFFFFFFFFFFFFF00000000000
FFFFFFFFFFFFFFF80000000000
FFFFFFFFFFFFFFFC0000000000
FFFFFFFFFFFFFFFE0000000000
FFFFFFFFFFFFFFFF8000000000
7FFFFFFFFFFFFFFFC000000000
7FFFFFFFFFFFFFFFE000000000
7FFFFFFFFFFFFFFFF000000000
7FFFFFFFFFFFFFFFFC00000000
7FFFFFFFFFFFFFFFFE00000000
3FFFFFFFFFFFFFFFFF00000000
3FFFFFFFFFFFFFFFFF80000000
3FFFFFFFFFFFFFFFFFC0000000
1FFFFFFFFFFFFFFFFFF0000000
1FFFFFFFFFFFFFFFFFF8000000
0FFFFFFFFFFFFFFFFFFC000000
07FFFFFFFFFFFFFFFFFE000000
03FFFFFFFFFFFFFFFFFF800000
01FFFFFFFFFFFFFFFFFFC00000
00FFFFFFFFFFFFFFFFFFE00000
007FFFFFFFFFFFFFFFFFF00000
003FFFFFFFFFFFFFFFFFFC0000
000FFFFFFFFFFFFFFFFFFE0000
0007FFFFFFFFFFFFFFFFFF0000
0003FFFFFFFFFFFFFFFFFF8000
0001FFFFFFFFFFFFFFFFFFE000
00007FFFFFFFFFFFFFFFFFF000
00003FFFFFFFFFFFFFFFFFF800
00001FFFFFFFFFFFFFFFFFFC00
00000FFFFFFFFFFFFFFFFFFE00
000003FFFFFFFFFFFFFFFFFF00
000001FFFFFFFFFFFFFFFFFF80
000000FFFFFFFFFFFFFFFFFF80
0000007FFFFFFFFFFFFFFFFFC0
0000001FFFFFFFFFFFFFFFFFC0
0000000FFFFFFFFFFFFFFFFFE0
00000007FFFFFFFFFFFFFFFFE0
00000003FFFFFFFFFFFFFFFFE0
00000000FFFFFFFFFFFFFFFFE0
000000007FFFFFFFFFFFFFFFF0
000000003FFFFFFFFFFFFFFFF0
000000000FFFFFFFFFFFFFFFF0
0000000007FFFFFFFFFFFFFFF0
0000000003FFFFFFFFFFFFFFF0
0000000001FFFFFFFFFFFFFFF0
00000000007FFFFFFFFFFFFFF0
00000000003FFFFFFFFFFFFFF0
00000000001FFFFFFFFFFFFFF0
00000000000FFFFFFFFFFFFFF0
000000000003FFFFFFFFFFFFF0
000000000001FFFFFFFFFFFFF0
00000000000007FFFFFFFFFFF0
00000000000000FFFFFFFFFFF0
00FFFFFFFC00007FFFFFFFFFF0
03FFFFFFFF00003FFFFFFFFFF0
07FFFFFFFF80001FFFFFFFFFF0
0FFFFFFFFFC0001FFFFFFFFFF0
1FFFFFFFFF80000FFFFFFFFFF0
3FFFFFFFFF80000FFFFFFFFFF0
3FFFFFFFFF00000FFFFFFFFFF0
7FFFFFFFFF00000FFFFFFFFFF0
7FFFFFFFFF00000FFFFFFFFFF0
7FFFFFFFFF00000FFFFFFFFFF0
7FFFFFFFFF00000FFFFFFFFFF0
FFFFFFFFFF00000FFFFFFFFFF0
FFFFFFFFFF00000FFFFFFFFFF0
FFFFFFFFFF80001FFFFFFFFFF0
FFFFFFFFFF80001FFFFFFFFFF0
FFFFFFFFFFC0003FFFFFFFFFF0
FFFFFFFFFFE0007FFFFFFFFFF0
FFFFFFFFFFF000FFFFFFFFFFF0
FFFFFFFFFFFE07FFFFFFFFFFF0
FFFFFFFFFFFFFFFFFFFFFFFFF0
FFFFFFFFFFFFFFFFFFFFFFFFF0
FFFFFFFFFFFFFFFFFFFFFFFFF0
FFFFFFFFFFFFFFFFFFFFFFFFF0
FFFFFFFFFFFFFFFFFFFFFFFFF0
FFFFFFFFFFFFFFFFFFFFFFFFF0
FFFFFFFFFFFFFFFFFFFFFFFFF0
FFFFFFFFFFFFFFFFFFFFFFFFF0
FFFFFFFFFFFFFFFFFFFFFFFFF0
7FFFFFFFFFFFFFFFFFFFFFFFF0
7FFFFFFFFFFFFFFFFFFFFFFFF0
7FFFFFFFFFFFFFFFFFFFFFFFF0
7FFFFFFFFFFFFFFFFFFFFFFFE0
7FFFFFFFFFFFFFFFFFFFFFFFE0
7FFFFFFFFFFFFFFFFFFFFFFFE0
3FFFFFFFFFFFFFFFFFFFFFFFE0
3FFFFFFFFFFFFFFFFFFFFFFFC0
1FFFFFFFFFFFFFFFFFFFFFFFC0
1FFFFFFFFFFFFFFFFFFFFFFF80
0FFFFFFFFFFFFFFFFFFFFFFF80
0FFFFFFFFFFFFFFFFFFFFFFF00
07FFFFFFFFFFFFFFFFFFFFFE00
03FFFFFFFFFFFFFFFFFFFFFC00
01FFFFFFFFFFFFFFFFFFFFF800
00FFFFFFFFFFFFFFFFFFFFF000
003FFFFFFFFFFFFFFFFFFFE000
001FFFFFFFFFFFFFFFFFFF8000
0007FFFFFFFFFFFFFFFFFE0000
00007FFFFFFFFFFFFFFFF00000
0000000003FFFFFC0000000000
0000000003FFFFFC0000000000
0000000003FFFFFC0000000000
0000000003FFFFFC0000000000
0000000003FFFFFC0000000000
0000000003FFFFFC0000000000
0000000003FFFFFC0000000000
0000000003FFFFFC0000000000
0000000003FFFFFC0000000000
0000000003FFFFFC0000000000
0000000003FFFFFC0000000000
0000000003FFFFFC0000000000
0000000003FFFFFC0000000000
0000000003FFFFFC0000000000
0000000003FFFFFC0000000000
0000000003FFFFFC0000000000
0000000003FFFFFC0000000000
0000000003FFFFFC0000000000
0000000001FFFFF80000000000
00000000007FFFE00000000000
ENDCHAR
STARTCHAR 0025
ENCODING 37
SWIDTH 1026 0
DWIDTH 195 0
BBX 176 154 9 0
BITMAP
00001FFFFFFF0000000000000000003FF80000000000
0000FFFFFFFFE00000000000000000FFFE0000000000
0007FFFFFFFFFC0000000000000001FFFE0000000000
000FFFFFFFFFFE0000000000000001FFFF0000000000
003FFFFFFFFFFF8000000000000003FFFF0000000000
007FFFFFFFFFFFC000000000000003FFFF0000000000
00FFFFFFFFFFFFE000000000000007FFFF0000000000
01FFFFFFFFFFFFF000000000000007FFFF0000000000
03FFFFFFFFFFFFF80000000000000FFFFE0000000000
07FFFFFFFFFFFFFC0000000000001FFFFE0000000000
0FFFFFFFFFFFFFFE0000000000001FFFFC0000000000
0FFFFFFFFFFFFFFE0000000000003FFFFC0000000000
1FFFFFFFFFFFFFFF0000000000003FFFF80000000000
1FFFFFFFFFFFFFFF0000000000007FFFF80000000000
3FFFFFFFFFFFFFFF8000000000007FFFF00000000000
3FFFFFFFFFFFFFFF800000000000FFFFF00000000000
3FFFFFFFFFFFFFFF800000000000FFFFE00000000000
7FFFFFFFFFFFFFFFC00000000001FFFFE00000000000
7FFFFFFFFFFFFFFFC00000000001FFFFC00000000000
7FFFFFFE0FFFFFFFC00000000003FFFF800000000000
7FFFFFF803FFFFFFC00000000003FFFF800000000000
7FFFFFF001FFFFFFC00000000007FFFF000000000000
7FFFFFE001FFFFFFC0000000000FFFFF000000000000
FFFFFFE000FFFFFFC0000000000FFFFE000000000000
FFFFFFE000FFFFFFE0000000001FFFFE000000000000
FFFFFFE000FFFFFFE0000000001FFFFC000000000000
FFFFFFE000FFFFFFE0000000003FFFFC000000000000
FFFFFFE000FFFFFFE0000000003FFFF8000000000000
FFFFFFE000FFFFFFE0000000007FFFF8000000000000
FFFFFFF000FFFFFFE0000000007FFFF0000000000000
FFFFFFF801FFFFFFE000000000FFFFF0000000000000
FFFFFFFC03FFFFFFE000000000FFFFE0000000000000
FFFFFFFE07FFFFFFE000000001FFFFE0000000000000
FFFFFFFE07FFFFFFE000000001FFFFC0000000000000
FFFFFFFE07FFFFFFE000000003FFFF80000000000000
FFFFFFFE07FFFFFFE000000003FFFF80000000000000
FFFFFFFE07FFFFFFE000000007FFFF00000000000000
FFFFFFFE07FFFFFFE00000000FFFFF00000000000000
FFFFFFFE07FFFFFFE00000000FFFFE00000000000000
FFFFFFFE07FFFFFFE00000001FFFFE00000000000000
FFFFFFFE07FFFFFFE00000001FFFFC00000000000000
FFFFFFFE07FFFFFFE00000003FFFFC00000000000000
FFFFFFFE07FFFFFFE00000003FFFF800000000000000
FFFFFFFE07FFFFFFE00000007FFFF800000000000000
FFFFFFFE07FFFFFFE00000007FFFF000000000000000
FFFFFFFE07FFFFFFE0000000FFFFF000000000000000
FFFFFFFE07FFFFFFE0000000FFFFE000000000000000
FFFFFFFE07FFFFFFE0000001FFFFC000000000000000
FFFFFFFE07FFFFFFE0000001FFFFC000000000000000
FFFFFFFE07FFFFFFE0000003FFFF8000000000000000
FFFFFFFE07FFFFFFE0000003FFFF8000000000000000
FFFFFFFE07FFFFFFE0000007FFFF00007FFFFFFC0000
FFFFFFFE07FFFFFFE000000FFFFF0003FFFFFFFF8000
FFFFFFFE07FFFFFFE000000FFFFE001FFFFFFFFFE000
FFFFFFFE07FFFFFFE000001FFFFE003FFFFFFFFFF800
FFFFFFFE07FFFFFFE000001FFFFC00FFFFFFFFFFFE00
FFFFFFFE07FFFFFFE000003FFFFC01FFFFFFFFFFFF00
FFFFFFFE07FFFFFFE000003FFFF803FFFFFFFFFFFF80
FFFFFFFE07FFFFFFE000007FFFF807FFFFFFFFFFFFC0
FFFFFFFE07FFFFFFE000007FFFF00FFFFFFFFFFFFFE0
FFFFFFFE07FFFFFFE00000FFFFF01FFFFFFFFFFFFFF0
FFFFFFFE07FFFFFFE00000FFFFE03FFFFFFFFFFFFFF0
FFFFFFFE07FFFFFFE00001FFFFC03FFFFFFFFFFFFFF8
FFFFFFFE07FFFFFFE00001FFFFC07FFFFFFFFFFFFFFC
FFFFFFFE07FFFFFFE00003FFFF807FFFFFFFFFFFFFFC
FFFFFFFE07FFFFFFE00003FFFF80FFFFFFFFFFFFFFFC
FFFFFFFE07FFFFFFE00007FFFF00FFFFFFFFFFFFFFFE
FFFFFFFE07FFFFFFE0000FFFFF00FFFFFFFFFFFFFFFE
FFFFFFFE07FFFFFFE0000FFFFE01FFFFFFFFFFFFFFFE
FFFFFFFE07FFFFFFE0001FFFFE01FFFFFFFFFFFFFFFF
FFFFFFFE07FFFFFFE0001FFFFC01FFFFFFFCFFFFFFFF
FFFFFFF801FFFFFFE0003FFFFC01FFFFFFF01FFFFFFF
FFFFFFF001FFFFFFE0003FFFF801FFFFFFC00FFFFFFF
FFFFFFE000FFFFFFE0007FFFF801FFFFFFC007FFFFFF
FFFFFFE000FFFFFFE0007FFFF003FFFFFF8003FFFFFF
FFFFFFE000FFFFFFE000FFFFF003FFFFFF8003FFFFFF
FFFFFFE000FFFFFFE000FFFFE003FFFFFF8003FFFFFF
FFFFFFE000FFFFFFE001FFFFC003FFFFFF8003FFFFFF
FFFFFFE000FFFFFFE001FFFFC003FFFFFF8003FFFFFF
FFFFFFE000FFFFFFC003FFFF8003FFFFFF8003FFFFFF
7FFFFFF001FFFFFFC007FFFF8003FFFFFF8003FFFFFF
7FFFFFF803FFFFFFC007FFFF0003FFFFFFC007FFFFFF
7FFFFFFC07FFFFFFC00FFFFF0003FFFFFFE00FFFFFFF
7FFFFFFFFFFFFFFFC00FFFFE0003FFFFFFF03FFFFFFF
7FFFFFFFFFFFFFFFC01FFFFE0003FFFFFFF03FFFFFFF
7FFFFFFFFFFFFFFFC01FFFFC0003FFFFFFF03FFFFFFF
7FFFFFFFFFFFFFFF803FFFFC0003FFFFFFF03FFFFFFF
3FFFFFFFFFFFFFFF803FFFF80003FFFFFFF03FFFFFFF
3FFFFFFFFFFFFFFF807FFFF80003FFFFFFF03FFFFFFF
1FFFFFFFFFFFFFFF007FFFF00003FFFFFFF03FFFFFFF
1FFFFFFFFFFFFFFF00FFFFE00003FFFFFFF03FFFFFFF
0FFFFFFFFFFFFFFE00FFFFE00003FFFFFFF03FFFFFFF
0FFFFFFFFFFFFFFE01FFFFC00003FFFFFFF03FFFFFFF
07FFFFFFFFFFFFFC01FFFFC00003FFFFFFF03FFFFFFF
03FFFFFFFFFFFFF803FFFF800003FFFFFFF03FFFFFFF
01FFFFFFFFFFFFF007FFFF800003FFFFFFF03FFFFFFF
00FFFFFFFFFFFFE007FFFF000003FFFFFFF03FFFFFFF
007FFFFFFFFFFFC00FFFFF000003FFFFFFF03FFFFFFF
003FFFFFFFFFFF800FFFFE000003FFFFFFF03FFFFFFF
000FFFFFFFFFFE001FFFFE000003FFFFFFF03FFFFFFF
0007FFFFFFFFFC001FFFFC000003FFFFFFF03FFFFFFF
0000FFFFFFFFE0003FFFFC000003FFFFFFF03FFFFFFF
00001FFFFFFF00003FFFF8000003FFFFFFF03FFFFFFF
00000000000000007FFFF8000003FFFFFFF03FFFFFFF
00000000000000007FFFF0000003FFFFFFF03FFFFFFF
0000000000000000FFFFE0000003FFFFFFF03FFFFFFF
0000000000000000FFFFE0000003FFFFFFF03FFFFFFF
0000000000000001FFFFC0000003FFFFFFF03FFFFFFF
0000000000000001FFFFC0000003FFFFFFF03FFFFFFF
0000000000000003FFFF80000003FFFFFFF03FFFFFFF
0000000000000007FFFF80000003FFFFFFF03FFFFFFF
0000000000000007FFFF00000003FFFFFFF03FFFFFFF
000000000000000FFFFF00000003FFFFFFF03FFFFFFF
000000000000000FFFFE00000003FFFFFFF03FFFFFFF
000000000000001FFFFE00000003FFFFFFF03FFFFFFF
000000000000001FFFFC00000003FFFFFFF03FFFFFFF
000000000000003FFFFC00000003FFFFFFF03FFFFFFF
000000000000003FFFF800000003FFFFFFF03FFFFFFF
000000000000007FFFF000000003FFFFFFF03FFFFFFF
000000000000007FFFF000000003FFFFFFF03FFFFFFF
00000000000000FFFFE000000003FFFFFFF03FFFFFFF
00000000000000FFFFE000000003FFFFFFF03FFFFFFF
00000000000001FFFFC000000003FFFFFFE00FFFFFFF
00000000000003FFFFC000000003FFFFFFC007FFFFFF
00000000000003FFFF8000000003FFFFFF8003FFFFFF
00000000000007FFFF8000000003FFFFFF8003FFFFFF
00000000000007FFFF0000000003FFFFFF8003FFFFFF
0000000000000FFFFF0000000003FFFFFF8003FFFFFF
0000000000000FFFFE0000000003FFFFFF8003FFFFFF
0000000000001FFFFE0000000003FFFFFF8003FFFFFF
0000000000001FFFFC0000000003FFFFFF8003FFFFFF
0000000000003FFFFC0000000001FFFFFFC007FFFFFF
0000000000003FFFF80000000001FFFFFFC00FFFFFFF
0000000000007FFFF00000000001FFFFFFF01FFFFFFF
0000000000007FFFF00000000001FFFFFFFC7FFFFFFF
000000000000FFFFE00000000001FFFFFFFFFFFFFFFF
000000000000FFFFE00000000001FFFFFFFFFFFFFFFE
000000000001FFFFC00000000001FFFFFFFFFFFFFFFE
000000000003FFFFC00000000000FFFFFFFFFFFFFFFE
000000000003FFFF800000000000FFFFFFFFFFFFFFFC
000000000007FFFF8000000000007FFFFFFFFFFFFFFC
000000000007FFFF0000000000007FFFFFFFFFFFFFFC
00000000000FFFFF0000000000003FFFFFFFFFFFFFF8
00000000000FFFFE0000000000003FFFFFFFFFFFFFF0
00000000001FFFFE0000000000001FFFFFFFFFFFFFF0
00000000001FFFFC0000000000000FFFFFFFFFFFFFE0
00000000001FFFFC00000000000007FFFFFFFFFFFFC0
00000000001FFFF800000000000003FFFFFFFFFFFF80
00000000001FFFF000000000000001FFFFFFFFFFFF00
00000000001FFFF000000000000000FFFFFFFFFFFE00
00000000001FFFE0000000000000003FFFFFFFFFF800
00000000001FFFE0000000000000001FFFFFFFFFE000
00000000000FFFC00000000000000003FFFFFFFF8000
000000000003FF0000000000000000007FFFFFFC0000
ENDCHAR
STARTCHAR 0026
ENCODING 38
SWIDTH 742 0
DWIDTH 141 0
BBX 122 154 11 0
BITMAP
007FFFFFFFFFFFFFFFFFFFE000000000
01FFFFFFFFFFFFFFFFFFFFF800000000
07FFFFFFFFFFFFFFFFFFFFFE00000000
0FFFFFFFFFFFFFFFFFFFFFFF00000000
1FFFFFFFFFFFFFFFFFFFFFFF80000000
3FFFFFFFFFFFFFFFFFFFFFFF80000000
3FFFFFFFFFFFFFFFFFFFFFFFC0000000
7FFFFFFFFFFFFFFFFFFFFFFFE0000000
7FFFFFFFFFFFFFFFFFFFFFFFE0000000
7FFFFFFFFFFFFFFFFFFFFFFFE0000000
7FFFFFFFFFFFFFFFFFFFFFFFE0000000
FFFFFFFFFFFFFFFFFFFFFFFFE0000000
FFFFFFFFFFFFFFFFFFFFFFFFE0000000
FFFFFFFFFFFFFFFFFFFFFFFFE0000000
FFFFFFFFFFFFFFFFFFFFFFFFE0000000
FFFFFFFFFFFFFFFFFFFFFFFFE0000000
FFFFFFFFFFFFFFFFFFFFFFFFE0000000
FFFFFFFFFFFFFFFFFFFFFFFFE0000000
FFFFFFFFFFFFFFFFFFFFFFFFE0000000
FFFFFFFFFFFFFFFFFFFFFFFFE0000000
FFFFFFFFFFFFFFFFFFFFFFFFE0000000
FFFFFFFFFFFFFFFFFFFFFFFFE0000000
FFFFFFFFFFFFFFFFFFFFFFFFE0000000
FFFFFFFFFFFFFFFFFFFFFFFFE0000000
FFFFFFFFFFFFFFFFFFFFFFFFE0000000
FFFFFFFFFFFFFFFFFFFFFFFFE0000000
FFFFFFFFFFFFFFFFFFFFFFFFE0000000
FFFFFFFFFFFFFFFFFFFFFFFFE0000000
FFFFFFFFFFFFFFFFFFFFFFFFE0000000
FFFFFFFFFFFC0FFFFFFFFFFFE0000000
FFFFFFFFFFF001FFFFFFFFFFE0000000
FFFFFFFFFFE000FFFFFFFFFFE0000000
FFFFFFFFFFC0007FFFFFFFFFE0000000
FFFFFFFFFF80003FFFFFFFFFE0000000
FFFFFFFFFF80003FFFFFFFFFE0000000
FFFFFFFFFF00001FFFFFFFFFE0000000
FFFFFFFFFF00001FFFFFFFFFE0000000
FFFFFFFFFF00001FFFFFFFFFE0000000
FFFFFFFFFE00001FFFFFFFFFE0000000
FFFFFFFFFE00001FFFFFFFFFE0000000
FFFFFFFFFE00001FFFFFFFFFE0000000
FFFFFFFFFE00001FFFFFFFFFE0000000
FFFFFFFFFE00001FFFFFFFFFC0000000
FFFFFFFFFE00001FFFFFFFFFC0000000
FFFFFFFFFE00003FFFFFFFFF80000000
FFFFFFFFFE00001FFFFFFFFF00000000
FFFFFFFFFE00000FFFFFFFFE00000000
FFFFFFFFFE000007FFFFFFF800000000
FFFFFFFFFE000000FFFFFFE000000000
FFFFFFFFFE0000000000000000000000
FFFFFFFFFE0000000000000000000000
FFFFFFFFFE0000000000000000000000
FFFFFFFFFE0000000000000000000000
FFFFFFFFFE0000000000000000000000
FFFFFFFFFF0000000000000000000000
FFFFFFFFFF0000000000000000000000
FFFFFFFFFF0000000000000000000000
FFFFFFFFFF8000000000000000000000
FFFFFFFFFFC000000000000000000000
FFFFFFFFFFF000000000000000000000
FFFFFFFFFFFFF00000FFFFFFFFFFF000
FFFFFFFFFFFFFC0003FFFFFFFFFFFC00
FFFFFFFFFFFFFE000FFFFFFFFFFFFE00
FFFFFFFFFFFFFF001FFFFFFFFFFFFF00
7FFFFFFFFFFFFF803FFFFFFFFFFFFF80
7FFFFFFFFFFFFF807FFFFFFFFFFFFF80
7FFFFFFFFFFFFFC07FFFFFFFFFFFFFC0
7FFFFFFFFFFFFFC0FFFFFFFFFFFFFFC0
3FFFFFFFFFFFFFC0FFFFFFFFFFFFFFC0
1FFFFFFFFFFFFFC0FFFFFFFFFFFFFFC0
1FFFFFFFFFFFFFC1FFFFFFFFFFFFFFC0
0FFFFFFFFFFFFFC0FFFFFFFFFFFFFFC0
03FFFFFFFFFFFFC07FFFFFFFFFFFFFC0
01FFFFFFFFFFFFC03FFFFFFFFFFFFFC0
003FFFFFFFFFFFC03FFFFFFFFFFFFFC0
00FFFFFFFFFFFFC01FFFFFFFFFFFFFC0
03FFFFFFFFFFFFC01FFFFFFFFFFFFFC0
07FFFFFFFFFFFFC00FFFFFFFFFFFFFC0
0FFFFFFFFFFFFFC00FFFFFFFFFFFFFC0
1FFFFFFFFFFFFFC00FFFFFFFFFFFFFC0
3FFFFFFFFFFFFFC00FFFFFFFFFFFFFC0
3FFFFFFFFFFFFFC00FFFFFFFFFFFFFC0
7FFFFFFFFFFFFFC00FFFFFFFFFFFFFC0
7FFFFFFFFFFFFFC00FFFFFFFFFFFFFC0
7FFFFFFFFFFFFFC00FFFFFFFFFFFFFC0
FFFFFFFFFFFFFFC00FFFFFFFFFFFFFC0
FFFFFFFFFFFFFFC00FFFFFFFFFFFFFC0
FFFFFFFFFFFFFF800FFFFFFFFFFFFF80
FFFFFFFFFFFFFF800FFFFFFFFFFFFF80
FFFFFFFFFFFFFF000FFFFFFFFFFFFF00
FFFFFFFFFFFFFE000FFFFFFFFFFFFE00
FFFFFFFFFFFFFC000FFFFFFFFFFFFC00
FFFFFFFFFFFFF0000FFFFFFFFFFFF000
FFFFFFFFFFF000000FFFFFFFFFF00000
FFFFFFFFFFC000000FFFFFFFFFF00000
FFFFFFFFFF8000000FFFFFFFFFF00000
FFFFFFFFFF0000000FFFFFFFFFF00000
FFFFFFFFFF0000000FFFFFFFFFF00000
FFFFFFFFFF0000000FFFFFFFFFF00000
FFFFFFFFFE0000000FFFFFFFFFF00000
FFFFFFFFFE0000000FFFFFFFFFF00000
FFFFFFFFFE0000000FFFFFFFFFF00000
FFFFFFFFFE0000000FFFFFFFFFF00000
FFFFFFFFFE0000000FFFFFFFFFF00000
FFFFFFFFFE0000000FFFFFFFFFF00000
FFFFFFFFFE0000000FFFFFFFFFF00000
FFFFFFFFFE0000000FFFFFFFFFF00000
FFFFFFFFFE0000000FFFFFFFFFF00000
FFFFFFFFFE0000000FFFFFFFFFF00000
FFFFFFFFFE0000000FFFFFFFFFF00000
FFFFFFFFFE0000000FFFFFFFFFF00000
FFFFFFFFFE0000000FFFFFFFFFF00000
FFFFFFFFFE0000000FFFFFFFFFF00000
FFFFFFFFFE0000000FFFFFFFFFF00000
FFFFFFFFFE0000000FFFFFFFFFF00000
FFFFFFFFFE0000000FFFFFFFFFF00000
FFFFFFFFFE0000000FFFFFFFFFF00000
FFFFFFFFFF0000000FFFFFFFFFF00000
FFFFFFFFFF0000000FFFFFFFFFF00000
FFFFFFFFFF0000001FFFFFFFFFF00000
FFFFFFFFFF8000001FFFFFFFFFF00000
FFFFFFFFFFC000003FFFFFFFFFF00000
FFFFFFFFFFE000007FFFFFFFFFF00000
FFFFFFFFFFF00001FFFFFFFFFFF00000
FFFFFFFFFFFC0007FFFFFFFFFFF00000
FFFFFFFFFFFFFFFFFFFFFFFFFFF00000
FFFFFFFFFFFFFFFFFFFFFFFFFFF00000
FFFFFFFFFFFFFFFFFFFFFFFFFFF00000
FFFFFFFFFFFFFFFFFFFFFFFFFFF00000
FFFFFFFFFFFFFFFFFFFFFFFFFFF00000
FFFFFFFFFFFFFFFFFFFFFFFFFFF00000
FFFFFFFFFFFFFFFFFFFFFFFFFFF00000
FFFFFFFFFFFFFFFFFFFFFFFFFFF00000
FFFFFFFFFFFFFFFFFFFFFFFFFFF00000
FFFFFFFFFFFFFFFFFFFFFFFFFFF00000
FFFFFFFFFFFFFFFFFFFFFFFFFFF00000
FFFFFFFFFFFFFFFFFFFFFFFFFFF00000
FFFFFFFFFFFFFFFFFFFFFFFFFFF00000
FFFFFFFFFFFFFFFFFFFFFFFFFFF00000
FFFFFFFFFFFFFFFFFFFFFFFFFFF00000
FFFFFFFFFFFFFFFFFFFFFFFFFFF00000
FFFFFFFFFFFFFFFFFFFFFFFFFFF00000
FFFFFFFFFFFFFFFFFFFFFFFFFFF00000
7FFFFFFFFFFFFFFFFFFFFFFFFFF00000
7FFFFFFFFFFFFFFFFFFFFFFFFFF00000
7FFFFFFFFFFFFFFFFFFFFFFFFFF00000
7FFFFFFFFFFFFFFFFFFFFFFFFFF00000
3FFFFFFFFFFFFFFFFFFFFFFFFFE00000
3FFFFFFFFFFFFFFFFFFFFFFFFFC00000
1FFFFFFFFFFFFFFFFFFFFFFFFFC00000
0FFFFFFFFFFFFFFFFFFFFFFFFF800000
07FFFFFFFFFFFFFFFFFFFFFFFF000000
01FFFFFFFFFFFFFFFFFFFFFFFC000000
007FFFFFFFFFFFFFFFFFFFFFF0000000
ENDCHAR
STARTCHAR 0027
ENCODING 39
SWIDTH 252 0
DWIDTH 48 0
BBX 25 53 11 101
BITMAP
1FFFFC00
3FFFFF00
7FFFFF00
7FFFFF80
7FFFFF80
FFFFFF80
FFFFFF80
FFFFFF80
FFFFFF80
FFFFFF80
FFFFFF80
FFFFFF80
FFFFFF80
FFFFFF80
FFFFFF80
FFFFFF80
FFFFFF80
FFFFFF80
FFFFFF80
FFFFFF80
FFFFFF80
FFFFFF80
FFFFFF80
FFFFFF80
FFFFFF80
FFFFFF80
FFFFFF80
FFFFFF80
FFFFFF80
FFFFFF80
FFFFFF80
FFFFFF80
FFFFFF80
FFFFFF80
FFFFFF80
FFFFFF80
FFFFFF80
FFFFFF80
FFFFFF80
FFFFFF80
FFFFFF80
FFFFFF80
FFFFFF80
FFFFFF80
FFFFFF80
FFFFFF80
FFFFFF80
FFFFFF80
FFFFFF80
7FFFFF80
7FFFFF00
3FFFFF00
1FFFFC00
ENDCHAR
STARTCHAR 0028
ENCODING 40
SWIDTH 389 0
DWIDTH 74 0
BBX 55 190 13 -19
BITMAP
0000000001FF80
000000003FFFE0
00000001FFFFF8
0000000FFFFFFC
0000003FFFFFFC
000000FFFFFFFE
000001FFFFFFFE
000007FFFFFFFE
00000FFFFFFFFE
00003FFFFFFFFE
00007FFFFFFFFE
0000FFFFFFFFFE
0001FFFFFFFFFE
0003FFFFFFFFFE
0007FFFFFFFFFE
000FFFFFFFFFFE
001FFFFFFFFFFE
003FFFFFFFFFFE
007FFFFFFFFFFE
007FFFFFFFFFFE
00FFFFFFFFFFFE
01FFFFFFFFFFFE
01FFFFFFFFFFFE
03FFFFFFFFFFFE
03FFFFFFFFFFFC
07FFFFFFFFFFFC
07FFFFFFFFFFF8
0FFFFFFFFFFFE0
0FFFFFFFFFFF80
1FFFFFFFFFC000
1FFFFFFFFE0000
3FFFFFFFF80000
3FFFFFFFF00000
3FFFFFFFE00000
3FFFFFFFC00000
7FFFFFFF800000
7FFFFFFF000000
7FFFFFFF000000
7FFFFFFE000000
7FFFFFFE000000
7FFFFFFE000000
FFFFFFFC000000
FFFFFFFC000000
FFFFFFFC000000
FFFFFFFC000000
FFFFFFFC000000
FFFFFFFC000000
FFFFFFFC000000
FFFFFFFC000000
FFFFFFFC000000
FFFFFFFC000000
FFFFFFFC000000
FFFFFFFC000000
FFFFFFFC000000
FFFFFFFC000000
FFFFFFFC000000
FFFFFFFC000000
FFFFFFFC000000
FFFFFFFC000000
FFFFFFFC000000
FFFFFFFC000000
FFFFFFFC000000
FFFFFFFC000000
FFFFFFFC000000
FFFFFFFC000000
FFFFFFFC000000
FFFFFFFC000000
FFFFFFFC000000
FFFFFFFC000000
FFFFFFFC000000
FFFFFFFC000000
FFFFFFFC000000
FFFFFFFC000000
FFFFFFFC000000
FFFFFFFC000000
FFFFFFFC000000
FFFFFFFC000000
FFFFFFFC000000
FFFFFFFC000000
FFFFFFFC000000
FFFFFFFC000000
FFFFFFFC000000
FFFFFFFC000000
FFFFFFFC000000
FFFFFFFC000000
FFFFFFFC000000
FFFFFFFC000000
FFFFFFFC000000
FFFFFFFC000000
FFFFFFFC000000
FFFFFFFC000000
FFFFFFFC000000
FFFFFFFC000000
FFFFFFFC000000
FFFFFFFC000000
FFFFFFFC000000
FFFFFFFC000000
FFFFFFFC000000
FFFFFFFC000000
FFFFFFFC000000
FFFFFFFC000000
FFFFFFFC000000
FFFFFFFC000000
FFFFFFFC000000
FFFFFFFC000000
FFFFFFFC000000
FFFFFFFC000000
FFFFFFFC000000
FFFFFFFC000000
FFFFFFFC000000
FFFFFFFC000000
FFFFFFFC000000
FFFFFFFC000000
FFFFFFFC000000
FFFFFFFC000000
FFFFFFFC000000
FFFFFFFC000000
FFFFFFFC000000
FFFFFFFC000000
FFFFFFFC000000
FFFFFFFC000000
FFFFFFFC000000
FFFFFFFC000000
FFFFFFFC000000
FFFFFFFC000000
FFFFFFFC000000
FFFFFFFC000000
FFFFFFFC000000
FFFFFFFC000000
FFFFFFFC000000
FFFFFFFC000000
FFFFFFFC000000
FFFFFFFC000000
FFFFFFFC000000
FFFFFFFC000000
FFFFFFFC000000
FFFFFFFC000000
FFFFFFFC000000
FFFFFFFC000000
FFFFFFFC000000
FFFFFFFC000000
FFFFFFFC000000
FFFFFFFC000000
FFFFFFFC000000
FFFFFFFC000000
FFFFFFFC000000
FFFFFFFC000000
FFFFFFFC000000
FFFFFFFC000000
7FFFFFFE000000
7FFFFFFE000000
7FFFFFFE000000
7FFFFFFF000000
7FFFFFFF000000
7FFFFFFF800000
3FFFFFFFC00000
3FFFFFFFE00000
3FFFFFFFF00000
3FFFFFFFF80000
1FFFFFFFFE0000
1FFFFFFFFFC000
0FFFFFFFFFFF80
0FFFFFFFFFFFE0
0FFFFFFFFFFFF8
07FFFFFFFFFFF8
03FFFFFFFFFFFC
03FFFFFFFFFFFE
01FFFFFFFFFFFE
01FFFFFFFFFFFE
00FFFFFFFFFFFE
007FFFFFFFFFFE
007FFFFFFFFFFE
003FFFFFFFFFFE
001FFFFFFFFFFE
000FFFFFFFFFFE
0007FFFFFFFFFE
0003FFFFFFFFFE
0001FFFFFFFFFE
0000FFFFFFFFFE
00007FFFFFFFFE
00003FFFFFFFFE
00000FFFFFFFFE
000007FFFFFFFE
000001FFFFFFFE
000000FFFFFFFE
0000003FFFFFFC
0000000FFFFFFC
00000001FFFFF8
000000003FFFE0
0000000001FF80
ENDCHAR
STARTCHAR 0029
ENCODING 41
SWIDTH 389 0
DWIDTH 74 0
BBX 55 190 6 -19
BITMAP
03FF0000000000
0FFFF800000000
1FFFFF00000000
3FFFFFE0000000
7FFFFFF8000000
7FFFFFFE000000
FFFFFFFF000000
FFFFFFFFC00000
FFFFFFFFE00000
FFFFFFFFF80000
FFFFFFFFFC0000
FFFFFFFFFE0000
FFFFFFFFFF0000
FFFFFFFFFF8000
FFFFFFFFFFC000
FFFFFFFFFFE000
FFFFFFFFFFF000
FFFFFFFFFFF800
FFFFFFFFFFFC00
FFFFFFFFFFFC00
FFFFFFFFFFFE00
FFFFFFFFFFFF00
FFFFFFFFFFFF00
7FFFFFFFFFFF80
7FFFFFFFFFFF80
3FFFFFFFFFFFC0
1FFFFFFFFFFFC0
0FFFFFFFFFFFE0
01FFFFFFFFFFE0
0003FFFFFFFFF0
00007FFFFFFFF0
00003FFFFFFFF8
00001FFFFFFFF8
00000FFFFFFFF8
000007FFFFFFF8
000003FFFFFFFC
000001FFFFFFFC
000001FFFFFFFC
000001FFFFFFFC
000000FFFFFFFC
000000FFFFFFFC
000000FFFFFFFE
000000FFFFFFFE
000000FFFFFFFE
000000FFFFFFFE
000000FFFFFFFE
000000FFFFFFFE
000000FFFFFFFE
000000FFFFFFFE
000000FFFFFFFE
000000FFFFFFFE
000000FFFFFFFE
000000FFFFFFFE
000000FFFFFFFE
000000FFFFFFFE
000000FFFFFFFE
000000FFFFFFFE
000000FFFFFFFE
000000FFFFFFFE
000000FFFFFFFE
000000FFFFFFFE
000000FFFFFFFE
000000FFFFFFFE
000000FFFFFFFE
000000FFFFFFFE
000000FFFFFFFE
000000FFFFFFFE
000000FFFFFFFE
000000FFFFFFFE
000000FFFFFFFE
000000FFFFFFFE
000000FFFFFFFE
000000FFFFFFFE
000000FFFFFFFE
000000FFFFFFFE
000000FFFFFFFE
000000FFFFFFFE
000000FFFFFFFE
000000FFFFFFFE
000000FFFFFFFE
000000FFFFFFFE
000000FFFFFFFE
000000FFFFFFFE
000000FFFFFFFE
000000FFFFFFFE
000000FFFFFFFE
000000FFFFFFFE
000000FFFFFFFE
000000FFFFFFFE
000000FFFFFFFE
000000FFFFFFFE
000000FFFFFFFE
000000FFFFFFFE
000000FFFFFFFE
000000FFFFFFFE
000000FFFFFFFE
000000FFFFFFFE
000000FFFFFFFE
000000FFFFFFFE
000000FFFFFFFE
000000FFFFFFFE
000000FFFFFFFE
000000FFFFFFFE
000000FFFFFFFE
000000FFFFFFFE
000000FFFFFFFE
000000FFFFFFFE
000000FFFFFFFE
000000FFFFFFFE
000000FFFFFFFE
000000FFFFFFFE
000000FFFFFFFE
000000FFFFFFFE
000000FFFFFFFE
000000FFFFFFFE
000000FFFFFFFE
000000FFFFFFFE
000000FFFFFFFE
000000FFFFFFFE
000000FFFFFFFE
000000FFFFFFFE
000000FFFFFFFE
000000FFFFFFFE
000000FFFFFFFE
000000FFFFFFFE
000000FFFFFFFE
000000FFFFFFFE
000000FFFFFFFE
000000FFFFFFFE
000000FFFFFFFE
000000FFFFFFFE
000000FFFFFFFE
000000FFFFFFFE
000000FFFFFFFE
000000FFFFFFFE
000000FFFFFFFE
000000FFFFFFFE
000000FFFFFFFE
000000FFFFFFFE
000000FFFFFFFE
000000FFFFFFFE
000000FFFFFFFE
000000FFFFFFFE
000000FFFFFFFE
000000FFFFFFFE
000000FFFFFFFE
000000FFFFFFFE
000000FFFFFFFE
000000FFFFFFFE
000000FFFFFFFC
000000FFFFFFFC
000001FFFFFFFC
000001FFFFFFFC
000003FFFFFFFC
000003FFFFFFFC
000007FFFFFFF8
00000FFFFFFFF8
00001FFFFFFFF8
00003FFFFFFFF8
0000FFFFFFFFF0
0007FFFFFFFFF0
03FFFFFFFFFFE0
0FFFFFFFFFFFE0
1FFFFFFFFFFFC0
3FFFFFFFFFFFC0
7FFFFFFFFFFFC0
7FFFFFFFFFFF80
FFFFFFFFFFFF00
FFFFFFFFFFFF00
FFFFFFFFFFFE00
FFFFFFFFFFFC00
FFFFFFFFFFFC00
FFFFFFFFFFF800
FFFFFFFFFFF000
FFFFFFFFFFE000
FFFFFFFFFFC000
FFFFFFFFFF8000
FFFFFFFFFF0000
FFFFFFFFFE0000
FFFFFFFFFC0000
FFFFFFFFF80000
FFFFFFFFE00000
FFFFFFFFC00000
FFFFFFFF000000
7FFFFFFE000000
7FFFFFF8000000
3FFFFFE0000000
1FFFFF00000000
0FFFF800000000
03FF0000000000
ENDCHAR
STARTCHAR 002A
ENCODING 42
SWIDTH 394 0
DWIDTH 75 0
BBX 53 56 11 98
BITMAP
000007FF000000
00000FFF800000
00001FFF800000
00001FFF800000
00001FFF800000
00001FFF800000
00001FFF800000
00001FFF800000
00001FFF800000
07801FFF800F00
0FE01FFF803F80
1FF81FFF80FF80
1FFC1FFF81FFC0
3FFF1FFF87FFE0
3FFFDFFF9FFFE0
7FFFFFFFFFFFF0
7FFFFFFFFFFFF0
FFFFFFFFFFFFF8
FFFFFFFFFFFFF8
FFFFFFFFFFFFF8
FFFFFFFFFFFFF8
7FFFFFFFFFFFE0
1FFFFFFFFFFFC0
07FFFFFFFFFF00
01FFFFFFFFFC00
007FFFFFFFF000
003FFFFFFFE000
000FFFFFFF8000
001FFFFFFFC000
007FFFFFFFF000
01FFFFFFFFF800
03FFFFFFFFFE00
0FFFFFFFFFFF80
3FFFFFFFFFFFE0
7FFFFFFFFFFFF0
FFFFFFFFFFFFF8
FFFFFFFFFFFFF8
FFFFFFFFFFFFF8
FFFFFFFFFFFFF0
7FFFFFFFFFFFF0
3FFFDFFF9FFFE0
3FFF9FFF8FFFE0
1FFE1FFF83FFC0
1FF81FFF80FFC0
0FE01FFF803F80
0FC01FFF801F00
03001FFF800600
00001FFF800000
00001FFF800000
00001FFF800000
00001FFF800000
00001FFF800000
00001FFF800000
00001FFF800000
00000FFF800000
000007FF000000
ENDCHAR
STARTCHAR 002B
ENCODING 43
SWIDTH 457 0
DWIDTH 87 0
BBX 68 68 9 24
BITMAP
0000003FFFE0000000
0000007FFFF0000000
000000FFFFF8000000
000001FFFFF8000000
000001FFFFFC000000
000001FFFFFC000000
000001FFFFFC000000
000001FFFFFC000000
000001FFFFFC000000
000001FFFFFC000000
000001FFFFFC000000
000001FFFFFC000000
000001FFFFFC000000
000001FFFFFC000000
000001FFFFFC000000
000001FFFFFC000000
000001FFFFFC000000
000001FFFFFC000000
000001FFFFFC000000
000001FFFFFC000000
000001FFFFFC000000
000001FFFFFC000000
000001FFFFFC000000
0FFFFFFFFFFFFFFF80
3FFFFFFFFFFFFFFFE0
7FFFFFFFFFFFFFFFF0
7FFFFFFFFFFFFFFFF0
7FFFFFFFFFFFFFFFF0
7FFFFFFFFFFFFFFFF0
FFFFFFFFFFFFFFFFF0
FFFFFFFFFFFFFFFFF0
FFFFFFFFFFFFFFFFF0
FFFFFFFFFFFFFFFFF0
FFFFFFFFFFFFFFFFF0
FFFFFFFFFFFFFFFFF0
FFFFFFFFFFFFFFFFF0
FFFFFFFFFFFFFFFFF0
FFFFFFFFFFFFFFFFF0
FFFFFFFFFFFFFFFFF0
FFFFFFFFFFFFFFFFF0
7FFFFFFFFFFFFFFFF0
7FFFFFFFFFFFFFFFF0
7FFFFFFFFFFFFFFFF0
7FFFFFFFFFFFFFFFE0
3FFFFFFFFFFFFFFFC0
07FFFFFFFFFFFFFE00
000001FFFFFC000000
000001FFFFFC000000
000001FFFFFC000000
000001FFFFFC000000
000001FFFFFC000000
000001FFFFFC000000
000001FFFFFC000000
000001FFFFFC000000
000001FFFFFC000000
000001FFFFFC000000
000001FFFFFC000000
000001FFFFFC000000
000001FFFFFC000000
000001FFFFFC000000
000001FFFFFC000000
000001FFFFFC000000
000001FFFFFC000000
000001FFFFFC000000
000001FFFFF8000000
000000FFFFF8000000
0000007FFFF0000000
0000003FFFE0000000
ENDCHAR
STARTCHAR 002C
ENCODING 44
SWIDTH 252 0
DWIDTH 48 0
BBX 25 53 11 -18
BITMAP
1FFFFC00
3FFFFF00
7FFFFF00
7FFFFF80
7FFFFF80
FFFFFF80
FFFFFF80
FFFFFF80
FFFFFF80
FFFFFF80
FFFFFF80
FFFFFF80
FFFFFF80
FFFFFF80
FFFFFF80
FFFFFF80
FFFFFF80
FFFFFF80
FFFFFF80
FFFFFF80
FFFFFF80
FFFFFF80
FFFFFF80
FFFFFF80
FFFFFF80
FFFFFF80
FFFFFF80
FFFFFF80
FFFFFF80
FFFFFF80
FFFFFF80
FFFFFF80
FFFFFF80
FFFFFF80
FFFFFF80
FFFFFF80
FFFFFF80
FFFFFF80
FFFFFF80
FFFFFF80
FFFFFF80
FFFFFF00
FFFFFF00
FFFFFF00
FFFFFE00
FFFFFC00
FFFFFC00
FFFFF800
FFFFF000
7FFFE000
7FFF8000
3FFF0000
1FF80000
ENDCHAR
STARTCHAR 002D
ENCODING 45
SWIDTH 410 0
DWIDTH 78 0
BBX 56 22 11 47
BITMAP
1FFFFFFFFFFFF8
3FFFFFFFFFFFFC
7FFFFFFFFFFFFE
7FFFFFFFFFFFFE
FFFFFFFFFFFFFF
FFFFFFFFFFFFFF
FFFFFFFFFFFFFF
FFFFFFFFFFFFFF
FFFFFFFFFFFFFF
FFFFFFFFFFFFFF
FFFFFFFFFFFFFF
FFFFFFFFFFFFFF
FFFFFFFFFFFFFF
FFFFFFFFFFFFFF
FFFFFFFFFFFFFF
FFFFFFFFFFFFFF
FFFFFFFFFFFFFF
FFFFFFFFFFFFFF
7FFFFFFFFFFFFE
7FFFFFFFFFFFFE
3FFFFFFFFFFFFC
1FFFFFFFFFFFF8
ENDCHAR
STARTCHAR 002E
ENCODING 46
SWIDTH 252 0
DWIDTH 48 0
BBX 25 35 11 0
BITMAP
1FFFFC00
3FFFFF00
7FFFFF00
7FFFFF80
FFFFFF80
FFFFFF80
FFFFFF80
FFFFFF80
FFFFFF80
FFFFFF80
FFFFFF80
FFFFFF80
FFFFFF80
FFFFFF80
FFFFFF80
FFFFFF80
FFFFFF80
FFFFFF80
FFFFFF80
FFFFFF80
FFFFFF80
FFFFFF80
FFFFFF80
FFFFFF80
FFFFFF80
FFFFFF80
FFFFFF80
FFFFFF80
FFFFFF80
FFFFFF80
FFFFFF80
7FFFFF80
7FFFFF00
3FFFFF00
1FFFFC00
ENDCHAR
STARTCHAR 002F
ENCODING 47
SWIDTH 563 0
DWIDTH 107 0
BBX 99 154 4 0
BITMAP
00000000000000000000FFFF00
00000000000000000003FFFF80
00000000000000000007FFFFC0
00000000000000000007FFFFE0
0000000000000000000FFFFFE0
0000000000000000000FFFFFE0
0000000000000000001FFFFFE0
0000000000000000001FFFFFE0
0000000000000000003FFFFFC0
0000000000000000003FFFFFC0
0000000000000000007FFFFF80
0000000000000000007FFFFF80
000000000000000000FFFFFF00
000000000000000001FFFFFE00
000000000000000001FFFFFE00
000000000000000003FFFFFC00
000000000000000003FFFFFC00
000000000000000007FFFFF800
000000000000000007FFFFF800
00000000000000000FFFFFF000
00000000000000000FFFFFF000
00000000000000001FFFFFE000
00000000000000001FFFFFE000
00000000000000003FFFFFC000
00000000000000003FFFFFC000
00000000000000007FFFFF8000
00000000000000007FFFFF8000
0000000000000000FFFFFF0000
0000000000000001FFFFFE0000
0000000000000001FFFFFE0000
0000000000000003FFFFFC0000
0000000000000003FFFFFC0000
0000000000000007FFFFF80000
0000000000000007FFFFF80000
000000000000000FFFFFF00000
000000000000000FFFFFF00000
000000000000001FFFFFE00000
000000000000001FFFFFE00000
000000000000003FFFFFC00000
000000000000003FFFFFC00000
000000000000007FFFFF800000
00000000000000FFFFFF000000
00000000000000FFFFFF000000
00000000000001FFFFFE000000
00000000000001FFFFFE000000
00000000000003FFFFFC000000
00000000000003FFFFFC000000
00000000000007FFFFF8000000
00000000000007FFFFF8000000
0000000000000FFFFFF0000000
0000000000000FFFFFF0000000
0000000000001FFFFFE0000000
0000000000001FFFFFE0000000
0000000000003FFFFFC0000000
0000000000003FFFFFC0000000
0000000000007FFFFF80000000
000000000000FFFFFF00000000
000000000000FFFFFF00000000
000000000001FFFFFE00000000
000000000001FFFFFE00000000
000000000003FFFFFC00000000
000000000003FFFFFC00000000
000000000007FFFFF800000000
000000000007FFFFF800000000
00000000000FFFFFF000000000
00000000000FFFFFF000000000
00000000001FFFFFE000000000
00000000001FFFFFE000000000
00000000003FFFFFC000000000
00000000003FFFFF8000000000
00000000007FFFFF8000000000
0000000000FFFFFF0000000000
0000000000FFFFFF0000000000
0000000001FFFFFE0000000000
0000000001FFFFFE0000000000
0000000003FFFFFC0000000000
0000000003FFFFFC0000000000
0000000007FFFFF80000000000
0000000007FFFFF80000000000
000000000FFFFFF00000000000
000000000FFFFFF00000000000
000000001FFFFFE00000000000
000000001FFFFFE00000000000
000000003FFFFFC00000000000
000000003FFFFF800000000000
000000007FFFFF800000000000
00000000FFFFFF000000000000
00000000FFFFFF000000000000
00000001FFFFFE000000000000
00000001FFFFFE000000000000
00000003FFFFFC000000000000
00000003FFFFFC000000000000
00000007FFFFF8000000000000
00000007FFFFF8000000000000
0000000FFFFFF0000000000000
0000000FFFFFF0000000000000
0000001FFFFFE0000000000000
0000001FFFFFC0000000000000
0000003FFFFFC0000000000000
0000007FFFFF80000000000000
0000007FFFFF80000000000000
000000FFFFFF00000000000000
000000FFFFFF00000000000000
000001FFFFFE00000000000000
000001FFFFFE00000000000000
000003FFFFFC00000000000000
000003FFFFFC00000000000000
000007FFFFF800000000000000
000007FFFFF800000000000000
00000FFFFFF000000000000000
00000FFFFFF000000000000000
00001FFFFFE000000000000000
00001FFFFFC000000000000000
00003FFFFFC000000000000000
00007FFFFF8000000000000000
00007FFFFF8000000000000000
0000FFFFFF0000000000000000
0000FFFFFF0000000000000000
0001FFFFFE0000000000000000
0001FFFFFE0000000000000000
0003FFFFFC0000000000000000
0003FFFFFC0000000000000000
0007FFFFF80000000000000000
0007FFFFF80000000000000000
000FFFFFF00000000000000000
000FFFFFE00000000000000000
001FFFFFE00000000000000000
001FFFFFC00000000000000000
003FFFFFC00000000000000000
007FFFFF800000000000000000
007FFFFF800000000000000000
00FFFFFF000000000000000000
00FFFFFF000000000000000000
01FFFFFE000000000000000000
01FFFFFE000000000000000000
03FFFFFC000000000000000000
03FFFFFC000000000000000000
07FFFFF8000000000000000000
07FFFFF8000000000000000000
0FFFFFF0000000000000000000
0FFFFFE0000000000000000000
1FFFFFE0000000000000000000
1FFFFFC0000000000000000000
3FFFFFC0000000000000000000
7FFFFF80000000000000000000
7FFFFF80000000000000000000
FFFFFF00000000000000000000
FFFFFF00000000000000000000
FFFFFE00000000000000000000
FFFFFE00000000000000000000
FFFFFC00000000000000000000
FFFFFC00000000000000000000
7FFFF800000000000000000000
1FFFE000000000000000000000
ENDCHAR
STARTCHAR 0030
ENCODING 48
SWIDTH 663 0
DWIDTH 126 0
BBX 99 154 13 0
BITMAP
00000003FFFFFFFFFC00000000
0000007FFFFFFFFFFFE0000000
000003FFFFFFFFFFFFF8000000
00000FFFFFFFFFFFFFFF000000
00003FFFFFFFFFFFFFFF800000
00007FFFFFFFFFFFFFFFE00000
0001FFFFFFFFFFFFFFFFF80000
0003FFFFFFFFFFFFFFFFFC0000
0007FFFFFFFFFFFFFFFFFE0000
000FFFFFFFFFFFFFFFFFFF0000
001FFFFFFFFFFFFFFFFFFF8000
003FFFFFFFFFFFFFFFFFFFC000
007FFFFFFFFFFFFFFFFFFFE000
00FFFFFFFFFFFFFFFFFFFFF000
01FFFFFFFFFFFFFFFFFFFFF800
03FFFFFFFFFFFFFFFFFFFFF800
03FFFFFFFFFFFFFFFFFFFFFC00
07FFFFFFFFFFFFFFFFFFFFFE00
07FFFFFFFFFFFFFFFFFFFFFE00
0FFFFFFFFFFFFFFFFFFFFFFF00
1FFFFFFFFFFFFFFFFFFFFFFF00
1FFFFFFFFFFFFFFFFFFFFFFF80
1FFFFFFFFFFFFFFFFFFFFFFF80
3FFFFFFFFFFFFFFFFFFFFFFFC0
3FFFFFFFFFFFFFFFFFFFFFFFC0
3FFFFFFFFFFFFFFFFFFFFFFFC0
7FFFFFFFFFFFFFFFFFFFFFFFC0
7FFFFFFFFFFFFFFFFFFFFFFFE0
7FFFFFFFFFFFFFFFFFFFFFFFE0
7FFFFFFFFFFC03FFFFFFFFFFE0
7FFFFFFFFFF001FFFFFFFFFFE0
FFFFFFFFFFE0007FFFFFFFFFE0
FFFFFFFFFFC0003FFFFFFFFFE0
FFFFFFFFFF80001FFFFFFFFFE0
FFFFFFFFFF00001FFFFFFFFFE0
FFFFFFFFFF00000FFFFFFFFFE0
FFFFFFFFFF00000FFFFFFFFFE0
FFFFFFFFFE00000FFFFFFFFFE0
FFFFFFFFFE00000FFFFFFFFFE0
FFFFFFFFFE00000FFFFFFFFFE0
FFFFFFFFFE00000FFFFFFFFFE0
FFFFFFFFFF00000FFFFFFFFFE0
FFFFFFFFFF00000FFFFFFFFFE0
FFFFFFFFFF00001FFFFFFFFFE0
FFFFFFFFFF80001FFFFFFFFFE0
FFFFFFFFFFC0003FFFFFFFFFE0
FFFFFFFFFFE0007FFFFFFFFFE0
FFFFFFFFFFF000FFFFFFFFFFE0
FFFFFFFFFFF001FFFFFFFFFFE0
FFFFFFFFFFF001FFFFFFFFFFE0
FFFFFFFFFFF001FFFFFFFFFFE0
FFFFFFFFFFF001FFFFFFFFFFE0
FFFFFFFFFFF001FFFFFFFFFFE0
FFFFFFFFFFF001FFFFFFFFFFE0
FFFFFFFFFFF001FFFFFFFFFFE0
FFFFFFFFFFF001FFFFFFFFFFE0
FFFFFFFFFFF001FFFFFFFFFFE0
FFFFFFFFFFF001FFFFFFFFFFE0
FFFFFFFFFFF001FFFFFFFFFFE0
FFFFFFFFFFF001FFFFFFFFFFE0
FFFFFFFFFFF001FFFFFFFFFFE0
FFFFFFFFFFF001FFFFFFFFFFE0
FFFFFFFFFFF001FFFFFFFFFFE0
FFFFFFFFFFF001FFFFFFFFFFE0
FFFFFFFFFFF001FFFFFFFFFFE0
FFFFFFFFFFF001FFFFFFFFFFE0
FFFFFFFFFFF001FFFFFFFFFFE0
FFFFFFFFFFF001FFFFFFFFFFE0
FFFFFFFFFFF001FFFFFFFFFFE0
FFFFFFFFFFF001FFFFFFFFFFE0
FFFFFFFFFFF001FFFFFFFFFFE0
FFFFFFFFFFF001FFFFFFFFFFE0
FFFFFFFFFFF001FFFFFFFFFFE0
FFFFFFFFFFF001FFFFFFFFFFE0
FFFFFFFFFFF001FFFFFFFFFFE0
FFFFFFFFFFF001FFFFFFFFFFE0
FFFFFFFFFFF001FFFFFFFFFFE0
FFFFFFFFFFF001FFFFFFFFFFE0
FFFFFFFFFFF001FFFFFFFFFFE0
FFFFFFFFFFF001FFFFFFFFFFE0
FFFFFFFFFFF001FFFFFFFFFFE0
FFFFFFFFFFF001FFFFFFFFFFE0
FFFFFFFFFFF001FFFFFFFFFFE0
FFFFFFFFFFF001FFFFFFFFFFE0
FFFFFFFFFFF001FFFFFFFFFFE0
FFFFFFFFFFF001FFFFFFFFFFE0
FFFFFFFFFFF001FFFFFFFFFFE0
FFFFFFFFFFF001FFFFFFFFFFE0
FFFFFFFFFFF001FFFFFFFFFFE0
FFFFFFFFFFF001FFFFFFFFFFE0
FFFFFFFFFFF001FFFFFFFFFFE0
FFFFFFFFFFF001FFFFFFFFFFE0
FFFFFFFFFFF001FFFFFFFFFFE0
FFFFFFFFFFF001FFFFFFFFFFE0
FFFFFFFFFFF001FFFFFFFFFFE0
FFFFFFFFFFF001FFFFFFFFFFE0
FFFFFFFFFFF001FFFFFFFFFFE0
FFFFFFFFFFF001FFFFFFFFFFE0
FFFFFFFFFFF001FFFFFFFFFFE0
FFFFFFFFFFF001FFFFFFFFFFE0
FFFFFFFFFFF001FFFFFFFFFFE0
FFFFFFFFFFF001FFFFFFFFFFE0
FFFFFFFFFFF001FFFFFFFFFFE0
FFFFFFFFFFF001FFFFFFFFFFE0
FFFFFFFFFFF001FFFFFFFFFFE0
FFFFFFFFFFF001FFFFFFFFFFE0
FFFFFFFFFFF000FFFFFFFFFFE0
FFFFFFFFFFC0007FFFFFFFFFE0
FFFFFFFFFF80003FFFFFFFFFE0
FFFFFFFFFF80001FFFFFFFFFE0
FFFFFFFFFF00001FFFFFFFFFE0
FFFFFFFFFF00000FFFFFFFFFE0
FFFFFFFFFF00000FFFFFFFFFE0
FFFFFFFFFE00000FFFFFFFFFE0
FFFFFFFFFE00000FFFFFFFFFE0
FFFFFFFFFE00000FFFFFFFFFE0
FFFFFFFFFE00000FFFFFFFFFE0
FFFFFFFFFF00000FFFFFFFFFE0
FFFFFFFFFF00000FFFFFFFFFE0
FFFFFFFFFF00001FFFFFFFFFE0
FFFFFFFFFF80001FFFFFFFFFE0
FFFFFFFFFFC0003FFFFFFFFFE0
FFFFFFFFFFE0007FFFFFFFFFE0
7FFFFFFFFFF001FFFFFFFFFFE0
7FFFFFFFFFFC07FFFFFFFFFFE0
7FFFFFFFFFFFFFFFFFFFFFFFE0
7FFFFFFFFFFFFFFFFFFFFFFFE0
7FFFFFFFFFFFFFFFFFFFFFFFC0
3FFFFFFFFFFFFFFFFFFFFFFFC0
3FFFFFFFFFFFFFFFFFFFFFFFC0
3FFFFFFFFFFFFFFFFFFFFFFFC0
1FFFFFFFFFFFFFFFFFFFFFFF80
1FFFFFFFFFFFFFFFFFFFFFFF80
1FFFFFFFFFFFFFFFFFFFFFFF00
0FFFFFFFFFFFFFFFFFFFFFFF00
0FFFFFFFFFFFFFFFFFFFFFFE00
07FFFFFFFFFFFFFFFFFFFFFE00
03FFFFFFFFFFFFFFFFFFFFFC00
03FFFFFFFFFFFFFFFFFFFFF800
01FFFFFFFFFFFFFFFFFFFFF800
00FFFFFFFFFFFFFFFFFFFFF000
007FFFFFFFFFFFFFFFFFFFE000
003FFFFFFFFFFFFFFFFFFFC000
001FFFFFFFFFFFFFFFFFFF8000
000FFFFFFFFFFFFFFFFFFF0000
0007FFFFFFFFFFFFFFFFFE0000
0003FFFFFFFFFFFFFFFFFC0000
0001FFFFFFFFFFFFFFFFF80000
00007FFFFFFFFFFFFFFFE00000
00003FFFFFFFFFFFFFFFC00000
00000FFFFFFFFFFFFFFF000000
000003FFFFFFFFFFFFF8000000
0000007FFFFFFFFFFFE0000000
00000003FFFFFFFFFC00000000
ENDCHAR
STARTCHAR 0031
ENCODING 49
SWIDTH 505 0
DWIDTH 96 0
BBX 77 154 6 0
BITMAP
007FFFFFFFFFFFF80000
03FFFFFFFFFFFFFF0000
07FFFFFFFFFFFFFFC000
0FFFFFFFFFFFFFFFF000
1FFFFFFFFFFFFFFFF800
3FFFFFFFFFFFFFFFFC00
7FFFFFFFFFFFFFFFFE00
7FFFFFFFFFFFFFFFFF00
7FFFFFFFFFFFFFFFFF80
FFFFFFFFFFFFFFFFFFC0
FFFFFFFFFFFFFFFFFFC0
FFFFFFFFFFFFFFFFFFE0
FFFFFFFFFFFFFFFFFFE0
FFFFFFFFFFFFFFFFFFF0
FFFFFFFFFFFFFFFFFFF0
FFFFFFFFFFFFFFFFFFF0
FFFFFFFFFFFFFFFFFFF8
FFFFFFFFFFFFFFFFFFF8
FFFFFFFFFFFFFFFFFFF8
FFFFFFFFFFFFFFFFFFF8
FFFFFFFFFFFFFFFFFFF8
FFFFFFFFFFFFFFFFFFF8
FFFFFFFFFFFFFFFFFFF8
FFFFFFFFFFFFFFFFFFF8
FFFFFFFFFFFFFFFFFFF8
FFFFFFFFFFFFFFFFFFF8
FFFFFFFFFFFFFFFFFFF8
FFFFFFFFFFFFFFFFFFF8
FFFFFFFFFFFFFFFFFFF8
FFFFFFFC0FFFFFFFFFF8
FFFFFFF003FFFFFFFFF8
7FFFFFC000FFFFFFFFF8
7FFFFF80007FFFFFFFF8
7FFFFF00007FFFFFFFF8
3FFFFF00003FFFFFFFF8
1FFFFE00003FFFFFFFF8
0FFFFE00001FFFFFFFF8
07FFFE00001FFFFFFFF8
03FFFE00001FFFFFFFF8
00FFFC00001FFFFFFFF8
00000000001FFFFFFFF8
00000000001FFFFFFFF8
00000000003FFFFFFFF8
00000000003FFFFFFFF8
00000000003FFFFFFFF8
00000000007FFFFFFFF8
0000000000FFFFFFFFF8
0000000001FFFFFFFFF8
0000000003FFFFFFFFF8
000000003FFFFFFFFFF8
000000007FFFFFFFFFF8
000000007FFFFFFFFFF8
000000007FFFFFFFFFF8
000000007FFFFFFFFFF8
000000007FFFFFFFFFF8
000000007FFFFFFFFFF8
000000007FFFFFFFFFF8
000000007FFFFFFFFFF8
000000007FFFFFFFFFF8
000000007FFFFFFFFFF8
000000007FFFFFFFFFF8
000000007FFFFFFFFFF8
000000007FFFFFFFFFF8
000000007FFFFFFFFFF8
000000007FFFFFFFFFF8
000000007FFFFFFFFFF8
000000007FFFFFFFFFF8
000000007FFFFFFFFFF8
000000007FFFFFFFFFF8
000000007FFFFFFFFFF8
000000007FFFFFFFFFF8
000000007FFFFFFFFFF8
000000007FFFFFFFFFF8
000000007FFFFFFFFFF8
000000007FFFFFFFFFF8
000000007FFFFFFFFFF8
000000007FFFFFFFFFF8
000000007FFFFFFFFFF8
000000007FFFFFFFFFF8
000000007FFFFFFFFFF8
000000007FFFFFFFFFF8
000000007FFFFFFFFFF8
000000007FFFFFFFFFF8
000000007FFFFFFFFFF8
000000007FFFFFFFFFF8
000000007FFFFFFFFFF8
000000007FFFFFFFFFF8
000000007FFFFFFFFFF8
000000007FFFFFFFFFF8
000000007FFFFFFFFFF8
000000007FFFFFFFFFF8
000000007FFFFFFFFFF8
000000007FFFFFFFFFF8
000000007FFFFFFFFFF8
000000007FFFFFFFFFF8
000000007FFFFFFFFFF8
000000007FFFFFFFFFF8
000000007FFFFFFFFFF8
000000007FFFFFFFFFF8
000000007FFFFFFFFFF8
000000007FFFFFFFFFF8
000000007FFFFFFFFFF8
000000007FFFFFFFFFF8
000000007FFFFFFFFFF8
000000007FFFFFFFFFF8
000000007FFFFFFFFFF8
000000007FFFFFFFFFF8
000000007FFFFFFFFFF8
000000007FFFFFFFFFF8
000000007FFFFFFFFFF8
000000007FFFFFFFFFF8
000000007FFFFFFFFFF8
000000007FFFFFFFFFF8
000000007FFFFFFFFFF8
000000007FFFFFFFFFF8
000000007FFFFFFFFFF8
000000007FFFFFFFFFF8
000000007FFFFFFFFFF8
000000007FFFFFFFFFF8
000000007FFFFFFFFFF8
000000007FFFFFFFFFF8
000000007FFFFFFFFFF8
000000007FFFFFFFFFF8
000000007FFFFFFFFFF8
000000007FFFFFFFFFF8
000000007FFFFFFFFFF8
000000007FFFFFFFFFF8
000000007FFFFFFFFFF8
000000007FFFFFFFFFF8
000000007FFFFFFFFFF8
000000007FFFFFFFFFF8
000000007FFFFFFFFFF8
000000007FFFFFFFFFF8
000000007FFFFFFFFFF8
000000007FFFFFFFFFF8
000000007FFFFFFFFFF8
000000007FFFFFFFFFF8
000000007FFFFFFFFFF8
000000007FFFFFFFFFF8
000000007FFFFFFFFFF8
000000007FFFFFFFFFF8
000000007FFFFFFFFFF8
000000007FFFFFFFFFF8
000000007FFFFFFFFFF8
000000007FFFFFFFFFF8
000000007FFFFFFFFFF0
000000003FFFFFFFFFF0
000000003FFFFFFFFFF0
000000001FFFFFFFFFE0
000000000FFFFFFFFFC0
000000000FFFFFFFFF80
0000000003FFFFFFFF00
0000000001FFFFFFFE00
00000000007FFFFFF000
ENDCHAR
STARTCHAR 0032
ENCODING 50
SWIDTH 652 0
DWIDTH 124 0
BBX 100 154 13 0
BITMAP
000001FFFFFFFFFFFFFC000000
00001FFFFFFFFFFFFFFF800000
00007FFFFFFFFFFFFFFFF00000
0001FFFFFFFFFFFFFFFFFC0000
0007FFFFFFFFFFFFFFFFFE0000
000FFFFFFFFFFFFFFFFFFF8000
003FFFFFFFFFFFFFFFFFFFC000
007FFFFFFFFFFFFFFFFFFFE000
00FFFFFFFFFFFFFFFFFFFFF000
01FFFFFFFFFFFFFFFFFFFFF800
03FFFFFFFFFFFFFFFFFFFFFC00
03FFFFFFFFFFFFFFFFFFFFFE00
07FFFFFFFFFFFFFFFFFFFFFF00
0FFFFFFFFFFFFFFFFFFFFFFF00
0FFFFFFFFFFFFFFFFFFFFFFF80
1FFFFFFFFFFFFFFFFFFFFFFF80
1FFFFFFFFFFFFFFFFFFFFFFFC0
3FFFFFFFFFFFFFFFFFFFFFFFC0
3FFFFFFFFFFFFFFFFFFFFFFFE0
3FFFFFFFFFFFFFFFFFFFFFFFE0
7FFFFFFFFFFFFFFFFFFFFFFFE0
7FFFFFFFFFFFFFFFFFFFFFFFF0
7FFFFFFFFFFFFFFFFFFFFFFFF0
7FFFFFFFFFFFFFFFFFFFFFFFF0
7FFFFFFFFFFFFFFFFFFFFFFFF0
FFFFFFFFFFFFFFFFFFFFFFFFF0
FFFFFFFFFFFFFFFFFFFFFFFFF0
FFFFFFFFFFFFFFFFFFFFFFFFF0
FFFFFFFFFFFFFFFFFFFFFFFFF0
FFFFFFFFFFFC07FFFFFFFFFFF0
FFFFFFFFFFF001FFFFFFFFFFF0
FFFFFFFFFFE0007FFFFFFFFFF0
FFFFFFFFFFC0003FFFFFFFFFF0
FFFFFFFFFF80001FFFFFFFFFF0
FFFFFFFFFF00001FFFFFFFFFF0
FFFFFFFFFF00000FFFFFFFFFF0
FFFFFFFFFF00000FFFFFFFFFF0
FFFFFFFFFE00000FFFFFFFFFF0
FFFFFFFFFE00000FFFFFFFFFF0
7FFFFFFFFE00000FFFFFFFFFF0
7FFFFFFFFE00000FFFFFFFFFF0
7FFFFFFFFE00000FFFFFFFFFF0
3FFFFFFFFF00000FFFFFFFFFF0
3FFFFFFFFF00001FFFFFFFFFF0
1FFFFFFFFF80001FFFFFFFFFF0
0FFFFFFFFF80003FFFFFFFFFF0
07FFFFFFFF00007FFFFFFFFFF0
03FFFFFFFE0000FFFFFFFFFFF0
007FFFFFF00003FFFFFFFFFFF0
000000000000FFFFFFFFFFFFF0
000000000001FFFFFFFFFFFFF0
000000000003FFFFFFFFFFFFF0
000000000007FFFFFFFFFFFFF0
00000000001FFFFFFFFFFFFFE0
00000000003FFFFFFFFFFFFFE0
00000000007FFFFFFFFFFFFFE0
0000000000FFFFFFFFFFFFFFE0
0000000001FFFFFFFFFFFFFFC0
0000000003FFFFFFFFFFFFFFC0
0000000007FFFFFFFFFFFFFF80
000000001FFFFFFFFFFFFFFF80
000000003FFFFFFFFFFFFFFF00
000000007FFFFFFFFFFFFFFE00
00000000FFFFFFFFFFFFFFFE00
00000001FFFFFFFFFFFFFFFC00
00000003FFFFFFFFFFFFFFF800
00000007FFFFFFFFFFFFFFF000
0000001FFFFFFFFFFFFFFFE000
0000003FFFFFFFFFFFFFFF8000
0000007FFFFFFFFFFFFFFF0000
000000FFFFFFFFFFFFFFFE0000
000001FFFFFFFFFFFFFFFC0000
000003FFFFFFFFFFFFFFF80000
000007FFFFFFFFFFFFFFF00000
00000FFFFFFFFFFFFFFFC00000
00003FFFFFFFFFFFFFFF800000
00007FFFFFFFFFFFFFFF000000
0000FFFFFFFFFFFFFFFE000000
0001FFFFFFFFFFFFFFFC000000
0003FFFFFFFFFFFFFFF0000000
0007FFFFFFFFFFFFFFE0000000
000FFFFFFFFFFFFFFFC0000000
003FFFFFFFFFFFFFFF80000000
007FFFFFFFFFFFFFFF00000000
00FFFFFFFFFFFFFFFE00000000
01FFFFFFFFFFFFFFF800000000
03FFFFFFFFFFFFFFF000000000
03FFFFFFFFFFFFFFE000000000
07FFFFFFFFFFFFFFC000000000
0FFFFFFFFFFFFFFF8000000000
0FFFFFFFFFFFFFFE0000000000
1FFFFFFFFFFFFFFC0000000000
1FFFFFFFFFFFFFF80000000000
3FFFFFFFFFFFFFF00000000000
3FFFFFFFFFFFFFE00000000000
3FFFFFFFFFFFFFC00000000000
7FFFFFFFFFFFFF000000000000
7FFFFFFFFFFFFE000000000000
7FFFFFFFFFFFFC000000000000
7FFFFFFFFFFFF8000000000000
FFFFFFFFFFFFF0000000000000
FFFFFFFFFFFFC0000000000000
FFFFFFFFFFFF80000000000000
FFFFFFFFFFFF00000000000000
FFFFFFFFFFFE00000000000000
FFFFFFFFFFFC00000000000000
FFFFFFFFFFF800000000000000
FFFFFFFFFFE000000000000000
FFFFFFFFFFC000000000000000
FFFFFFFFFF8000000000000000
FFFFFFFFFF0000000000000000
FFFFFFFFFF0000000000000000
FFFFFFFFFF0000000000000000
FFFFFFFFFE0000000000000000
FFFFFFFFFE0000000000000000
FFFFFFFFFE00000FFFFFFFE000
FFFFFFFFFE00000FFFFFFFFC00
FFFFFFFFFF00000FFFFFFFFE00
FFFFFFFFFF00000FFFFFFFFF80
FFFFFFFFFF00001FFFFFFFFF80
FFFFFFFFFF80001FFFFFFFFFC0
FFFFFFFFFFC0003FFFFFFFFFE0
FFFFFFFFFFE0007FFFFFFFFFE0
FFFFFFFFFFF001FFFFFFFFFFF0
FFFFFFFFFFFE07FFFFFFFFFFF0
FFFFFFFFFFFFFFFFFFFFFFFFF0
FFFFFFFFFFFFFFFFFFFFFFFFF0
FFFFFFFFFFFFFFFFFFFFFFFFF0
FFFFFFFFFFFFFFFFFFFFFFFFF0
FFFFFFFFFFFFFFFFFFFFFFFFF0
FFFFFFFFFFFFFFFFFFFFFFFFF0
FFFFFFFFFFFFFFFFFFFFFFFFF0
FFFFFFFFFFFFFFFFFFFFFFFFF0
FFFFFFFFFFFFFFFFFFFFFFFFF0
FFFFFFFFFFFFFFFFFFFFFFFFF0
FFFFFFFFFFFFFFFFFFFFFFFFF0
7FFFFFFFFFFFFFFFFFFFFFFFF0
7FFFFFFFFFFFFFFFFFFFFFFFF0
7FFFFFFFFFFFFFFFFFFFFFFFF0
7FFFFFFFFFFFFFFFFFFFFFFFF0
3FFFFFFFFFFFFFFFFFFFFFFFF0
3FFFFFFFFFFFFFFFFFFFFFFFF0
3FFFFFFFFFFFFFFFFFFFFFFFF0
1FFFFFFFFFFFFFFFFFFFFFFFF0
0FFFFFFFFFFFFFFFFFFFFFFFF0
0FFFFFFFFFFFFFFFFFFFFFFFF0
07FFFFFFFFFFFFFFFFFFFFFFE0
03FFFFFFFFFFFFFFFFFFFFFFE0
01FFFFFFFFFFFFFFFFFFFFFFC0
00FFFFFFFFFFFFFFFFFFFFFFC0
003FFFFFFFFFFFFFFFFFFFFF80
001FFFFFFFFFFFFFFFFFFFFF00
0007FFFFFFFFFFFFFFFFFFFC00
00007FFFFFFFFFFFFFFFFFF000
ENDCHAR
STARTCHAR 0033
ENCODING 51
SWIDTH 663 0
DWIDTH 126 0
BBX 99 154 13 0
BITMAP
0000FFFFFFFFFFFFFFFFE00000
0007FFFFFFFFFFFFFFFFFC0000
001FFFFFFFFFFFFFFFFFFF0000
007FFFFFFFFFFFFFFFFFFFC000
00FFFFFFFFFFFFFFFFFFFFE000
01FFFFFFFFFFFFFFFFFFFFF800
03FFFFFFFFFFFFFFFFFFFFFC00
07FFFFFFFFFFFFFFFFFFFFFC00
0FFFFFFFFFFFFFFFFFFFFFFE00
0FFFFFFFFFFFFFFFFFFFFFFF00
1FFFFFFFFFFFFFFFFFFFFFFF80
3FFFFFFFFFFFFFFFFFFFFFFF80
3FFFFFFFFFFFFFFFFFFFFFFFC0
7FFFFFFFFFFFFFFFFFFFFFFFC0
7FFFFFFFFFFFFFFFFFFFFFFFC0
7FFFFFFFFFFFFFFFFFFFFFFFE0
7FFFFFFFFFFFFFFFFFFFFFFFE0
FFFFFFFFFFFFFFFFFFFFFFFFE0
FFFFFFFFFFFFFFFFFFFFFFFFE0
FFFFFFFFFFFFFFFFFFFFFFFFE0
FFFFFFFFFFFFFFFFFFFFFFFFE0
FFFFFFFFFFFFFFFFFFFFFFFFE0
FFFFFFFFFFFFFFFFFFFFFFFFE0
FFFFFFFFFFFFFFFFFFFFFFFFE0
FFFFFFFFFFFFFFFFFFFFFFFFE0
FFFFFFFFFFFFFFFFFFFFFFFFE0
FFFFFFFFFFFFFFFFFFFFFFFFE0
FFFFFFFFFFFFFFFFFFFFFFFFE0
FFFFFFFFFFFFFFFFFFFFFFFFE0
FFFFFFFFFFFC07FFFFFFFFFFE0
FFFFFFFFFFF001FFFFFFFFFFE0
FFFFFFFFFFE0007FFFFFFFFFE0
FFFFFFFFFFC0003FFFFFFFFFE0
FFFFFFFFFF80003FFFFFFFFFE0
FFFFFFFFFF00001FFFFFFFFFE0
FFFFFFFFFF00000FFFFFFFFFE0
FFFFFFFFFF00000FFFFFFFFFE0
FFFFFFFFFE00000FFFFFFFFFE0
7FFFFFFFFE00000FFFFFFFFFE0
7FFFFFFFFE00000FFFFFFFFFE0
7FFFFFFFFE00000FFFFFFFFFE0
3FFFFFFFFF00000FFFFFFFFFE0
1FFFFFFFFF00000FFFFFFFFFE0
0FFFFFFFFF80000FFFFFFFFFE0
07FFFFFFFF80000FFFFFFFFFE0
03FFFFFFFE00000FFFFFFFFFE0
00FFFFFFF800000FFFFFFFFFE0
000000000000000FFFFFFFFFE0
000000000000000FFFFFFFFFE0
000000000000000FFFFFFFFFE0
000000000000000FFFFFFFFFE0
000000000000001FFFFFFFFFE0
000000000000001FFFFFFFFFE0
000000000000003FFFFFFFFFE0
000000000000007FFFFFFFFFE0
00000000000001FFFFFFFFFFE0
00000000000007FFFFFFFFFFE0
000001FFFFFFFFFFFFFFFFFFE0
000007FFFFFFFFFFFFFFFFFFC0
00000FFFFFFFFFFFFFFFFFFFC0
00001FFFFFFFFFFFFFFFFFFFC0
00003FFFFFFFFFFFFFFFFFFF80
00007FFFFFFFFFFFFFFFFFFF80
00007FFFFFFFFFFFFFFFFFFF00
00007FFFFFFFFFFFFFFFFFFF00
00007FFFFFFFFFFFFFFFFFFE00
0000FFFFFFFFFFFFFFFFFFFC00
0000FFFFFFFFFFFFFFFFFFFC00
0000FFFFFFFFFFFFFFFFFFF800
0000FFFFFFFFFFFFFFFFFFF000
0000FFFFFFFFFFFFFFFFFFE000
0000FFFFFFFFFFFFFFFFFFC000
0000FFFFFFFFFFFFFFFFFF8000
0000FFFFFFFFFFFFFFFFFF0000
0000FFFFFFFFFFFFFFFFFF8000
0000FFFFFFFFFFFFFFFFFFC000
0000FFFFFFFFFFFFFFFFFFE000
0000FFFFFFFFFFFFFFFFFFF000
0000FFFFFFFFFFFFFFFFFFF800
0000FFFFFFFFFFFFFFFFFFFC00
0000FFFFFFFFFFFFFFFFFFFE00
00007FFFFFFFFFFFFFFFFFFF00
00007FFFFFFFFFFFFFFFFFFF00
00007FFFFFFFFFFFFFFFFFFF80
00007FFFFFFFFFFFFFFFFFFF80
00003FFFFFFFFFFFFFFFFFFFC0
00001FFFFFFFFFFFFFFFFFFFC0
00000FFFFFFFFFFFFFFFFFFFC0
000007FFFFFFFFFFFFFFFFFFC0
000001FFFFFFFFFFFFFFFFFFE0
00000000000007FFFFFFFFFFE0
00000000000001FFFFFFFFFFE0
00000000000000FFFFFFFFFFE0
000000000000003FFFFFFFFFE0
000000000000003FFFFFFFFFE0
000000000000001FFFFFFFFFE0
000000000000001FFFFFFFFFE0
000000000000000FFFFFFFFFE0
000000000000000FFFFFFFFFE0
000000000000000FFFFFFFFFE0
000000000000000FFFFFFFFFE0
007FFFFFF800000FFFFFFFFFE0
03FFFFFFFE00000FFFFFFFFFE0
07FFFFFFFF00000FFFFFFFFFE0
0FFFFFFFFFC0000FFFFFFFFFE0
1FFFFFFFFFC0000FFFFFFFFFE0
3FFFFFFFFFE0000FFFFFFFFFE0
7FFFFFFFFFE0000FFFFFFFFFE0
7FFFFFFFFFC0000FFFFFFFFFE0
7FFFFFFFFF80000FFFFFFFFFE0
FFFFFFFFFF00000FFFFFFFFFE0
FFFFFFFFFF00000FFFFFFFFFE0
FFFFFFFFFF00000FFFFFFFFFE0
FFFFFFFFFE00000FFFFFFFFFE0
FFFFFFFFFE00000FFFFFFFFFE0
FFFFFFFFFE00000FFFFFFFFFE0
FFFFFFFFFE00000FFFFFFFFFE0
FFFFFFFFFF00000FFFFFFFFFE0
FFFFFFFFFF00000FFFFFFFFFE0
FFFFFFFFFF00001FFFFFFFFFE0
FFFFFFFFFF80003FFFFFFFFFE0
FFFFFFFFFFC0003FFFFFFFFFE0
FFFFFFFFFFE0007FFFFFFFFFE0
FFFFFFFFFFF001FFFFFFFFFFE0
FFFFFFFFFFFC07FFFFFFFFFFE0
FFFFFFFFFFFFFFFFFFFFFFFFE0
FFFFFFFFFFFFFFFFFFFFFFFFE0
FFFFFFFFFFFFFFFFFFFFFFFFE0
FFFFFFFFFFFFFFFFFFFFFFFFE0
FFFFFFFFFFFFFFFFFFFFFFFFE0
FFFFFFFFFFFFFFFFFFFFFFFFE0
FFFFFFFFFFFFFFFFFFFFFFFFE0
FFFFFFFFFFFFFFFFFFFFFFFFE0
FFFFFFFFFFFFFFFFFFFFFFFFE0
FFFFFFFFFFFFFFFFFFFFFFFFE0
FFFFFFFFFFFFFFFFFFFFFFFFE0
7FFFFFFFFFFFFFFFFFFFFFFFE0
7FFFFFFFFFFFFFFFFFFFFFFFE0
7FFFFFFFFFFFFFFFFFFFFFFFE0
7FFFFFFFFFFFFFFFFFFFFFFFC0
3FFFFFFFFFFFFFFFFFFFFFFFC0
3FFFFFFFFFFFFFFFFFFFFFFFC0
3FFFFFFFFFFFFFFFFFFFFFFF80
1FFFFFFFFFFFFFFFFFFFFFFF80
0FFFFFFFFFFFFFFFFFFFFFFF00
0FFFFFFFFFFFFFFFFFFFFFFE00
07FFFFFFFFFFFFFFFFFFFFFE00
03FFFFFFFFFFFFFFFFFFFFFC00
01FFFFFFFFFFFFFFFFFFFFF800
00FFFFFFFFFFFFFFFFFFFFE000
007FFFFFFFFFFFFFFFFFFFC000
001FFFFFFFFFFFFFFFFFFF8000
0007FFFFFFFFFFFFFFFFFC0000
0000FFFFFFFFFFFFFFFFE00000
ENDCHAR
STARTCHAR 0034
ENCODING 52
SWIDTH 726 0
DWIDTH 138 0
BBX 115 154 11 0
BITMAP
007FFFFFF0000000FFFFFFE0000000
01FFFFFFFC000003FFFFFFF8000000
07FFFFFFFF00000FFFFFFFFE000000
0FFFFFFFFF80001FFFFFFFFF000000
1FFFFFFFFFC0003FFFFFFFFF800000
3FFFFFFFFFC0007FFFFFFFFFC00000
3FFFFFFFFFE0007FFFFFFFFFC00000
7FFFFFFFFFF000FFFFFFFFFFE00000
7FFFFFFFFFF000FFFFFFFFFFE00000
7FFFFFFFFFF000FFFFFFFFFFE00000
7FFFFFFFFFF000FFFFFFFFFFE00000
FFFFFFFFFFF001FFFFFFFFFFF00000
FFFFFFFFFFF001FFFFFFFFFFF00000
FFFFFFFFFFF001FFFFFFFFFFF00000
FFFFFFFFFFF001FFFFFFFFFFF00000
FFFFFFFFFFF001FFFFFFFFFFF00000
FFFFFFFFFFF001FFFFFFFFFFF00000
FFFFFFFFFFF001FFFFFFFFFFF00000
FFFFFFFFFFF001FFFFFFFFFFF00000
FFFFFFFFFFF001FFFFFFFFFFF00000
FFFFFFFFFFF001FFFFFFFFFFF00000
FFFFFFFFFFF001FFFFFFFFFFF00000
FFFFFFFFFFF001FFFFFFFFFFF00000
FFFFFFFFFFF001FFFFFFFFFFF00000
FFFFFFFFFFF001FFFFFFFFFFF00000
FFFFFFFFFFF001FFFFFFFFFFF00000
FFFFFFFFFFF001FFFFFFFFFFF00000
FFFFFFFFFFF001FFFFFFFFFFF00000
FFFFFFFFFFF001FFFFFFFFFFF00000
FFFFFFFFFFF001FFFFFFFFFFF00000
FFFFFFFFFFF001FFFFFFFFFFF00000
FFFFFFFFFFF001FFFFFFFFFFF00000
FFFFFFFFFFF001FFFFFFFFFFF00000
FFFFFFFFFFF001FFFFFFFFFFF00000
FFFFFFFFFFF001FFFFFFFFFFF00000
FFFFFFFFFFF001FFFFFFFFFFF00000
FFFFFFFFFFF001FFFFFFFFFFF00000
FFFFFFFFFFF001FFFFFFFFFFF00000
FFFFFFFFFFF001FFFFFFFFFFF00000
FFFFFFFFFFF001FFFFFFFFFFF00000
FFFFFFFFFFF001FFFFFFFFFFF00000
FFFFFFFFFFF001FFFFFFFFFFF00000
FFFFFFFFFFF001FFFFFFFFFFF00000
FFFFFFFFFFF001FFFFFFFFFFF00000
FFFFFFFFFFF001FFFFFFFFFFF00000
FFFFFFFFFFF001FFFFFFFFFFF00000
FFFFFFFFFFF001FFFFFFFFFFF00000
FFFFFFFFFFF001FFFFFFFFFFF00000
FFFFFFFFFFF001FFFFFFFFFFF00000
FFFFFFFFFFF001FFFFFFFFFFF00000
FFFFFFFFFFF001FFFFFFFFFFF00000
FFFFFFFFFFF001FFFFFFFFFFF00000
FFFFFFFFFFF001FFFFFFFFFFF00000
FFFFFFFFFFF001FFFFFFFFFFF00000
FFFFFFFFFFF001FFFFFFFFFFF00000
FFFFFFFFFFF001FFFFFFFFFFF00000
FFFFFFFFFFF001FFFFFFFFFFF00000
FFFFFFFFFFF001FFFFFFFFFFF00000
FFFFFFFFFFF001FFFFFFFFFFF00000
FFFFFFFFFFF001FFFFFFFFFFF00000
FFFFFFFFFFF001FFFFFFFFFFF00000
FFFFFFFFFFF001FFFFFFFFFFF00000
FFFFFFFFFFE000FFFFFFFFFFF00000
FFFFFFFFFFC0007FFFFFFFFFF00000
FFFFFFFFFF80003FFFFFFFFFF00000
FFFFFFFFFF80001FFFFFFFFFF00000
FFFFFFFFFF00001FFFFFFFFFF00000
FFFFFFFFFF00000FFFFFFFFFF00000
FFFFFFFFFF00000FFFFFFFFFF00000
FFFFFFFFFE00000FFFFFFFFFF00000
FFFFFFFFFE00000FFFFFFFFFF00000
FFFFFFFFFE00000FFFFFFFFFF00000
FFFFFFFFFF00000FFFFFFFFFF00000
FFFFFFFFFF00000FFFFFFFFFF00000
FFFFFFFFFF00000FFFFFFFFFF00000
FFFFFFFFFF80001FFFFFFFFFFFC000
FFFFFFFFFF80001FFFFFFFFFFFF800
FFFFFFFFFFC0003FFFFFFFFFFFFC00
FFFFFFFFFFE0007FFFFFFFFFFFFF00
FFFFFFFFFFF001FFFFFFFFFFFFFF80
FFFFFFFFFFFC07FFFFFFFFFFFFFF80
FFFFFFFFFFFFFFFFFFFFFFFFFFFFC0
FFFFFFFFFFFFFFFFFFFFFFFFFFFFC0
FFFFFFFFFFFFFFFFFFFFFFFFFFFFE0
FFFFFFFFFFFFFFFFFFFFFFFFFFFFE0
FFFFFFFFFFFFFFFFFFFFFFFFFFFFE0
FFFFFFFFFFFFFFFFFFFFFFFFFFFFE0
7FFFFFFFFFFFFFFFFFFFFFFFFFFFE0
7FFFFFFFFFFFFFFFFFFFFFFFFFFFE0
7FFFFFFFFFFFFFFFFFFFFFFFFFFFE0
7FFFFFFFFFFFFFFFFFFFFFFFFFFFE0
7FFFFFFFFFFFFFFFFFFFFFFFFFFFE0
3FFFFFFFFFFFFFFFFFFFFFFFFFFFE0
3FFFFFFFFFFFFFFFFFFFFFFFFFFFE0
3FFFFFFFFFFFFFFFFFFFFFFFFFFFE0
1FFFFFFFFFFFFFFFFFFFFFFFFFFFE0
1FFFFFFFFFFFFFFFFFFFFFFFFFFFE0
0FFFFFFFFFFFFFFFFFFFFFFFFFFFE0
0FFFFFFFFFFFFFFFFFFFFFFFFFFFE0
07FFFFFFFFFFFFFFFFFFFFFFFFFFE0
03FFFFFFFFFFFFFFFFFFFFFFFFFFE0
03FFFFFFFFFFFFFFFFFFFFFFFFFFE0
01FFFFFFFFFFFFFFFFFFFFFFFFFFE0
00FFFFFFFFFFFFFFFFFFFFFFFFFFE0
007FFFFFFFFFFFFFFFFFFFFFFFFFC0
003FFFFFFFFFFFFFFFFFFFFFFFFFC0
000FFFFFFFFFFFFFFFFFFFFFFFFF80
0007FFFFFFFFFFFFFFFFFFFFFFFF80
0001FFFFFFFFFFFFFFFFFFFFFFFF00
00007FFFFFFFFFFFFFFFFFFFFFFC00
00001FFFFFFFFFFFFFFFFFFFFFF800
000001FFFFFFFFFFFFFFFFFFFFC000
00000000000001FFFFFFFFFFF00000
00000000000001FFFFFFFFFFF00000
00000000000001FFFFFFFFFFF00000
00000000000001FFFFFFFFFFF00000
00000000000001FFFFFFFFFFF00000
00000000000001FFFFFFFFFFF00000
00000000000001FFFFFFFFFFF00000
00000000000001FFFFFFFFFFF00000
00000000000001FFFFFFFFFFF00000
00000000000001FFFFFFFFFFF00000
00000000000001FFFFFFFFFFF00000
00000000000001FFFFFFFFFFF00000
00000000000001FFFFFFFFFFF00000
00000000000001FFFFFFFFFFF00000
00000000000001FFFFFFFFFFF00000
00000000000001FFFFFFFFFFF00000
00000000000001FFFFFFFFFFF00000
00000000000001FFFFFFFFFFF00000
00000000000001FFFFFFFFFFF00000
00000000000001FFFFFFFFFFF00000
00000000000001FFFFFFFFFFF00000
00000000000001FFFFFFFFFFF00000
00000000000001FFFFFFFFFFF00000
00000000000001FFFFFFFFFFF00000
00000000000001FFFFFFFFFFF00000
00000000000001FFFFFFFFFFF00000
00000000000001FFFFFFFFFFF00000
00000000000001FFFFFFFFFFF00000
00000000000001FFFFFFFFFFF00000
00000000000001FFFFFFFFFFF00000
00000000000001FFFFFFFFFFF00000
00000000000001FFFFFFFFFFE00000
00000000000000FFFFFFFFFFE00000
00000000000000FFFFFFFFFFE00000
00000000000000FFFFFFFFFFE00000
000000000000007FFFFFFFFFC00000
000000000000007FFFFFFFFFC00000
000000000000003FFFFFFFFF800000
000000000000001FFFFFFFFF000000
000000000000000FFFFFFFFE000000
0000000000000003FFFFFFF8000000
0000000000000000FFFFFFE0000000
ENDCHAR
STARTCHAR 0035
ENCODING 53
SWIDTH 663 0
DWIDTH 126 0
BBX 100 154 13 0
BITMAP
00007FFFFFFFFFFFFFFFFFE000
0007FFFFFFFFFFFFFFFFFFF800
001FFFFFFFFFFFFFFFFFFFFE00
007FFFFFFFFFFFFFFFFFFFFF00
00FFFFFFFFFFFFFFFFFFFFFF80
01FFFFFFFFFFFFFFFFFFFFFFC0
03FFFFFFFFFFFFFFFFFFFFFFC0
07FFFFFFFFFFFFFFFFFFFFFFE0
0FFFFFFFFFFFFFFFFFFFFFFFE0
0FFFFFFFFFFFFFFFFFFFFFFFE0
1FFFFFFFFFFFFFFFFFFFFFFFF0
3FFFFFFFFFFFFFFFFFFFFFFFF0
3FFFFFFFFFFFFFFFFFFFFFFFF0
7FFFFFFFFFFFFFFFFFFFFFFFF0
7FFFFFFFFFFFFFFFFFFFFFFFF0
7FFFFFFFFFFFFFFFFFFFFFFFF0
7FFFFFFFFFFFFFFFFFFFFFFFF0
7FFFFFFFFFFFFFFFFFFFFFFFF0
FFFFFFFFFFFFFFFFFFFFFFFFF0
FFFFFFFFFFFFFFFFFFFFFFFFF0
FFFFFFFFFFFFFFFFFFFFFFFFF0
FFFFFFFFFFFFFFFFFFFFFFFFF0
FFFFFFFFFFFFFFFFFFFFFFFFF0
FFFFFFFFFFFFFFFFFFFFFFFFF0
FFFFFFFFFFFFFFFFFFFFFFFFF0
FFFFFFFFFFFFFFFFFFFFFFFFE0
FFFFFFFFFFFFFFFFFFFFFFFFE0
FFFFFFFFFFFFFFFFFFFFFFFFE0
FFFFFFFFFFFFFFFFFFFFFFFFC0
FFFFFFFFFFFFFFFFFFFFFFFFC0
FFFFFFFFFFFFFFFFFFFFFFFF80
FFFFFFFFFFFFFFFFFFFFFFFF00
FFFFFFFFFFFFFFFFFFFFFFFE00
FFFFFFFFFFFFFFFFFFFFFFF800
FFFFFFFFFFFFFFFFFFFFFFE000
FFFFFFFFFFF800000000000000
FFFFFFFFFFF800000000000000
FFFFFFFFFFF800000000000000
FFFFFFFFFFF800000000000000
FFFFFFFFFFF800000000000000
FFFFFFFFFFF800000000000000
FFFFFFFFFFF800000000000000
FFFFFFFFFFF800000000000000
FFFFFFFFFFF800000000000000
FFFFFFFFFFF800000000000000
FFFFFFFFFFF800000000000000
FFFFFFFFFFF800000000000000
FFFFFFFFFFF800000000000000
FFFFFFFFFFF800000000000000
FFFFFFFFFFF800000000000000
FFFFFFFFFFF800000000000000
FFFFFFFFFFF800000000000000
FFFFFFFFFFFFFFFFFFFFE00000
FFFFFFFFFFFFFFFFFFFFFE0000
FFFFFFFFFFFFFFFFFFFFFF8000
FFFFFFFFFFFFFFFFFFFFFFC000
FFFFFFFFFFFFFFFFFFFFFFF000
FFFFFFFFFFFFFFFFFFFFFFF800
FFFFFFFFFFFFFFFFFFFFFFFC00
FFFFFFFFFFFFFFFFFFFFFFFE00
FFFFFFFFFFFFFFFFFFFFFFFF00
FFFFFFFFFFFFFFFFFFFFFFFF00
FFFFFFFFFFFFFFFFFFFFFFFF80
FFFFFFFFFFFFFFFFFFFFFFFF80
FFFFFFFFFFFFFFFFFFFFFFFFC0
FFFFFFFFFFFFFFFFFFFFFFFFC0
FFFFFFFFFFFFFFFFFFFFFFFFE0
FFFFFFFFFFFFFFFFFFFFFFFFE0
FFFFFFFFFFFFFFFFFFFFFFFFE0
FFFFFFFFFFFFFFFFFFFFFFFFE0
FFFFFFFFFFFFFFFFFFFFFFFFF0
FFFFFFFFFFFFFFFFFFFFFFFFF0
FFFFFFFFFFFFFFFFFFFFFFFFF0
FFFFFFFFFFFFFFFFFFFFFFFFF0
FFFFFFFFFFFFFFFFFFFFFFFFF0
FFFFFFFFFFFFFFFFFFFFFFFFF0
FFFFFFFFFFFFFFFFFFFFFFFFF0
FFFFFFFFFFFFFFFFFFFFFFFFF0
FFFFFFFFFFFFFFFFFFFFFFFFF0
7FFFFFFFFFFFFFFFFFFFFFFFF0
7FFFFFFFFFFFFFFFFFFFFFFFF0
7FFFFFFFFFFE07FFFFFFFFFFF0
3FFFFFFFFFF801FFFFFFFFFFF0
3FFFFFFFFFE0007FFFFFFFFFF0
1FFFFFFFFFC0003FFFFFFFFFF0
0FFFFFFFFF80003FFFFFFFFFF0
07FFFFFFFF00001FFFFFFFFFF0
03FFFFFFFE00000FFFFFFFFFF0
007FFFFFF000000FFFFFFFFFF0
000000000000000FFFFFFFFFF0
000000000000000FFFFFFFFFF0
000000000000000FFFFFFFFFF0
000000000000000FFFFFFFFFF0
000000000000000FFFFFFFFFF0
000000000000000FFFFFFFFFF0
000000000000000FFFFFFFFFF0
000000000000000FFFFFFFFFF0
000000000000000FFFFFFFFFF0
000000000000000FFFFFFFFFF0
000000000000000FFFFFFFFFF0
000000000000000FFFFFFFFFF0
000000000000000FFFFFFFFFF0
000000000000000FFFFFFFFFF0
000000000000000FFFFFFFFFF0
000000000000000FFFFFFFFFF0
007FFFFFF000000FFFFFFFFFF0
01FFFFFFFE00000FFFFFFFFFF0
07FFFFFFFF00000FFFFFFFFFF0
0FFFFFFFFF80000FFFFFFFFFF0
1FFFFFFFFF80000FFFFFFFFFF0
3FFFFFFFFF00000FFFFFFFFFF0
3FFFFFFFFF00000FFFFFFFFFF0
7FFFFFFFFF00000FFFFFFFFFF0
7FFFFFFFFE00000FFFFFFFFFF0
7FFFFFFFFE00000FFFFFFFFFF0
FFFFFFFFFE00000FFFFFFFFFF0
FFFFFFFFFE00000FFFFFFFFFF0
FFFFFFFFFF00000FFFFFFFFFF0
FFFFFFFFFF00000FFFFFFFFFF0
FFFFFFFFFF00001FFFFFFFFFF0
FFFFFFFFFF80001FFFFFFFFFF0
FFFFFFFFFFC0003FFFFFFFFFF0
FFFFFFFFFFE0007FFFFFFFFFF0
FFFFFFFFFFF001FFFFFFFFFFF0
FFFFFFFFFFFC07FFFFFFFFFFF0
FFFFFFFFFFFFFFFFFFFFFFFFF0
FFFFFFFFFFFFFFFFFFFFFFFFF0
FFFFFFFFFFFFFFFFFFFFFFFFF0
FFFFFFFFFFFFFFFFFFFFFFFFF0
FFFFFFFFFFFFFFFFFFFFFFFFF0
FFFFFFFFFFFFFFFFFFFFFFFFF0
FFFFFFFFFFFFFFFFFFFFFFFFF0
FFFFFFFFFFFFFFFFFFFFFFFFF0
FFFFFFFFFFFFFFFFFFFFFFFFF0
FFFFFFFFFFFFFFFFFFFFFFFFF0
FFFFFFFFFFFFFFFFFFFFFFFFF0
7FFFFFFFFFFFFFFFFFFFFFFFE0
7FFFFFFFFFFFFFFFFFFFFFFFE0
7FFFFFFFFFFFFFFFFFFFFFFFE0
7FFFFFFFFFFFFFFFFFFFFFFFE0
3FFFFFFFFFFFFFFFFFFFFFFFC0
3FFFFFFFFFFFFFFFFFFFFFFFC0
3FFFFFFFFFFFFFFFFFFFFFFFC0
1FFFFFFFFFFFFFFFFFFFFFFF80
0FFFFFFFFFFFFFFFFFFFFFFF00
0FFFFFFFFFFFFFFFFFFFFFFF00
07FFFFFFFFFFFFFFFFFFFFFE00
03FFFFFFFFFFFFFFFFFFFFFC00
01FFFFFFFFFFFFFFFFFFFFF800
00FFFFFFFFFFFFFFFFFFFFF000
007FFFFFFFFFFFFFFFFFFFC000
001FFFFFFFFFFFFFFFFFFF8000
0007FFFFFFFFFFFFFFFFFE0000
00007FFFFFFFFFFFFFFFE00000
ENDCHAR
STARTCHAR 0036
ENCODING 54
SWIDTH 663 0
DWIDTH 126 0
BBX 100 154 13 0
BITMAP
00007FFFFFFFFFFFFFFFE00000
0007FFFFFFFFFFFFFFFFFE0000
001FFFFFFFFFFFFFFFFFFF8000
003FFFFFFFFFFFFFFFFFFFC000
00FFFFFFFFFFFFFFFFFFFFF000
01FFFFFFFFFFFFFFFFFFFFF800
03FFFFFFFFFFFFFFFFFFFFFC00
07FFFFFFFFFFFFFFFFFFFFFE00
0FFFFFFFFFFFFFFFFFFFFFFF00
0FFFFFFFFFFFFFFFFFFFFFFF00
1FFFFFFFFFFFFFFFFFFFFFFF80
3FFFFFFFFFFFFFFFFFFFFFFF80
3FFFFFFFFFFFFFFFFFFFFFFFC0
3FFFFFFFFFFFFFFFFFFFFFFFC0
7FFFFFFFFFFFFFFFFFFFFFFFE0
7FFFFFFFFFFFFFFFFFFFFFFFE0
7FFFFFFFFFFFFFFFFFFFFFFFE0
7FFFFFFFFFFFFFFFFFFFFFFFE0
FFFFFFFFFFFFFFFFFFFFFFFFF0
FFFFFFFFFFFFFFFFFFFFFFFFF0
FFFFFFFFFFFFFFFFFFFFFFFFF0
FFFFFFFFFFFFFFFFFFFFFFFFF0
FFFFFFFFFFFFFFFFFFFFFFFFF0
FFFFFFFFFFFFFFFFFFFFFFFFF0
FFFFFFFFFFFFFFFFFFFFFFFFF0
FFFFFFFFFFFFFFFFFFFFFFFFF0
FFFFFFFFFFFFFFFFFFFFFFFFF0
FFFFFFFFFFFFFFFFFFFFFFFFF0
FFFFFFFFFFFFFFFFFFFFFFFFF0
FFFFFFFFFFFE07FFFFFFFFFFF0
FFFFFFFFFFF001FFFFFFFFFFF0
FFFFFFFFFFE000FFFFFFFFFFF0
FFFFFFFFFFC0003FFFFFFFFFF0
FFFFFFFFFF80003FFFFFFFFFF0
FFFFFFFFFF00001FFFFFFFFFF0
FFFFFFFFFF00000FFFFFFFFFF0
FFFFFFFFFF00000FFFFFFFFFF0
FFFFFFFFFE00000FFFFFFFFFF0
FFFFFFFFFE00000FFFFFFFFFF0
FFFFFFFFFE00000FFFFFFFFFF0
FFFFFFFFFE00000FFFFFFFFFF0
FFFFFFFFFE00000FFFFFFFFFF0
FFFFFFFFFE00000FFFFFFFFFF0
FFFFFFFFFE00001FFFFFFFFFE0
FFFFFFFFFE00001FFFFFFFFFE0
FFFFFFFFFE00003FFFFFFFFFE0
FFFFFFFFFE00007FFFFFFFFFC0
FFFFFFFFFE00007FFFFFFFFFC0
FFFFFFFFFE00007FFFFFFFFF80
FFFFFFFFFE00003FFFFFFFFF00
FFFFFFFFFE00001FFFFFFFFE00
FFFFFFFFFE000007FFFFFFF800
FFFFFFFFFE000001FFFFFFE000
FFFFFFFFFE0000000000000000
FFFFFFFFFE0000000000000000
FFFFFFFFFF0000000000000000
FFFFFFFFFF0000000000000000
FFFFFFFFFF0000000000000000
FFFFFFFFFF8000000000000000
FFFFFFFFFFC000000000000000
FFFFFFFFFFE000000000000000
FFFFFFFFFFF000000000000000
FFFFFFFFFFFC00000000000000
FFFFFFFFFFFFFFFFFFFFF00000
FFFFFFFFFFFFFFFFFFFFFE0000
FFFFFFFFFFFFFFFFFFFFFF8000
FFFFFFFFFFFFFFFFFFFFFFE000
FFFFFFFFFFFFFFFFFFFFFFF000
FFFFFFFFFFFFFFFFFFFFFFF800
FFFFFFFFFFFFFFFFFFFFFFFC00
FFFFFFFFFFFFFFFFFFFFFFFE00
FFFFFFFFFFFFFFFFFFFFFFFF00
FFFFFFFFFFFFFFFFFFFFFFFF00
FFFFFFFFFFFFFFFFFFFFFFFF80
FFFFFFFFFFFFFFFFFFFFFFFFC0
FFFFFFFFFFFFFFFFFFFFFFFFC0
FFFFFFFFFFFFFFFFFFFFFFFFC0
FFFFFFFFFFFFFFFFFFFFFFFFE0
FFFFFFFFFFFFFFFFFFFFFFFFE0
FFFFFFFFFFFFFFFFFFFFFFFFE0
FFFFFFFFFFFFFFFFFFFFFFFFE0
FFFFFFFFFFFFFFFFFFFFFFFFF0
FFFFFFFFFFFFFFFFFFFFFFFFF0
FFFFFFFFFFFFFFFFFFFFFFFFF0
FFFFFFFFFFFFFFFFFFFFFFFFF0
FFFFFFFFFFFFFFFFFFFFFFFFF0
FFFFFFFFFFFFFFFFFFFFFFFFF0
FFFFFFFFFFFFFFFFFFFFFFFFF0
FFFFFFFFFFFFFFFFFFFFFFFFF0
FFFFFFFFFFFFFFFFFFFFFFFFF0
FFFFFFFFFFFFFFFFFFFFFFFFF0
FFFFFFFFFFFE07FFFFFFFFFFF0
FFFFFFFFFFF001FFFFFFFFFFF0
FFFFFFFFFFE0007FFFFFFFFFF0
FFFFFFFFFFC0003FFFFFFFFFF0
FFFFFFFFFF80003FFFFFFFFFF0
FFFFFFFFFF00001FFFFFFFFFF0
FFFFFFFFFF00000FFFFFFFFFF0
FFFFFFFFFF00000FFFFFFFFFF0
FFFFFFFFFE00000FFFFFFFFFF0
FFFFFFFFFE00000FFFFFFFFFF0
FFFFFFFFFE00000FFFFFFFFFF0
FFFFFFFFFE00000FFFFFFFFFF0
FFFFFFFFFE00000FFFFFFFFFF0
FFFFFFFFFE00000FFFFFFFFFF0
FFFFFFFFFE00000FFFFFFFFFF0
FFFFFFFFFE00000FFFFFFFFFF0
FFFFFFFFFE00000FFFFFFFFFF0
FFFFFFFFFE00000FFFFFFFFFF0
FFFFFFFFFE00000FFFFFFFFFF0
FFFFFFFFFF00000FFFFFFFFFF0
FFFFFFFFFF00000FFFFFFFFFF0
FFFFFFFFFF00001FFFFFFFFFF0
FFFFFFFFFF80003FFFFFFFFFF0
FFFFFFFFFFC0003FFFFFFFFFF0
FFFFFFFFFFE0007FFFFFFFFFF0
FFFFFFFFFFF001FFFFFFFFFFF0
FFFFFFFFFFFE07FFFFFFFFFFF0
FFFFFFFFFFFFFFFFFFFFFFFFF0
FFFFFFFFFFFFFFFFFFFFFFFFF0
FFFFFFFFFFFFFFFFFFFFFFFFF0
FFFFFFFFFFFFFFFFFFFFFFFFF0
FFFFFFFFFFFFFFFFFFFFFFFFF0
FFFFFFFFFFFFFFFFFFFFFFFFF0
FFFFFFFFFFFFFFFFFFFFFFFFF0
FFFFFFFFFFFFFFFFFFFFFFFFF0
FFFFFFFFFFFFFFFFFFFFFFFFF0
FFFFFFFFFFFFFFFFFFFFFFFFF0
FFFFFFFFFFFFFFFFFFFFFFFFF0
FFFFFFFFFFFFFFFFFFFFFFFFF0
FFFFFFFFFFFFFFFFFFFFFFFFF0
FFFFFFFFFFFFFFFFFFFFFFFFF0
FFFFFFFFFFFFFFFFFFFFFFFFF0
FFFFFFFFFFFFFFFFFFFFFFFFF0
FFFFFFFFFFFFFFFFFFFFFFFFF0
FFFFFFFFFFFFFFFFFFFFFFFFF0
7FFFFFFFFFFFFFFFFFFFFFFFE0
7FFFFFFFFFFFFFFFFFFFFFFFE0
7FFFFFFFFFFFFFFFFFFFFFFFE0
7FFFFFFFFFFFFFFFFFFFFFFFE0
3FFFFFFFFFFFFFFFFFFFFFFFC0
3FFFFFFFFFFFFFFFFFFFFFFFC0
3FFFFFFFFFFFFFFFFFFFFFFFC0
1FFFFFFFFFFFFFFFFFFFFFFF80
0FFFFFFFFFFFFFFFFFFFFFFF00
0FFFFFFFFFFFFFFFFFFFFFFF00
07FFFFFFFFFFFFFFFFFFFFFE00
03FFFFFFFFFFFFFFFFFFFFFC00
01FFFFFFFFFFFFFFFFFFFFF800
00FFFFFFFFFFFFFFFFFFFFF000
007FFFFFFFFFFFFFFFFFFFE000
001FFFFFFFFFFFFFFFFFFF8000
0007FFFFFFFFFFFFFFFFFE0000
0000FFFFFFFFFFFFFFFFE00000
ENDCHAR
STARTCHAR 0037
ENCODING 55
SWIDTH 615 0
DWIDTH 117 0
BBX 103 154 6 0
BITMAP
007FFFFFFFFFFFFFFFFF800000
03FFFFFFFFFFFFFFFFFFF80000
07FFFFFFFFFFFFFFFFFFFE0000
0FFFFFFFFFFFFFFFFFFFFF8000
1FFFFFFFFFFFFFFFFFFFFFE000
3FFFFFFFFFFFFFFFFFFFFFF000
7FFFFFFFFFFFFFFFFFFFFFF800
7FFFFFFFFFFFFFFFFFFFFFFC00
7FFFFFFFFFFFFFFFFFFFFFFE00
FFFFFFFFFFFFFFFFFFFFFFFF00
FFFFFFFFFFFFFFFFFFFFFFFF80
FFFFFFFFFFFFFFFFFFFFFFFFC0
FFFFFFFFFFFFFFFFFFFFFFFFE0
FFFFFFFFFFFFFFFFFFFFFFFFE0
FFFFFFFFFFFFFFFFFFFFFFFFF0
FFFFFFFFFFFFFFFFFFFFFFFFF0
FFFFFFFFFFFFFFFFFFFFFFFFF8
FFFFFFFFFFFFFFFFFFFFFFFFF8
FFFFFFFFFFFFFFFFFFFFFFFFFC
FFFFFFFFFFFFFFFFFFFFFFFFFC
FFFFFFFFFFFFFFFFFFFFFFFFFC
FFFFFFFFFFFFFFFFFFFFFFFFFE
FFFFFFFFFFFFFFFFFFFFFFFFFE
FFFFFFFFFFFFFFFFFFFFFFFFFE
FFFFFFFFFFFFFFFFFFFFFFFFFE
FFFFFFFFFFFFFFFFFFFFFFFFFE
FFFFFFFFFFFFFFFFFFFFFFFFFE
FFFFFFFFFFFFFFFFFFFFFFFFFE
FFFFFFFFFFFFFFFFFFFFFFFFFE
FFFFFFFFFFFF80FFFFFFFFFFFE
FFFFFFFFFFFE003FFFFFFFFFFE
7FFFFFFFFFFC001FFFFFFFFFFE
7FFFFFFFFFF8000FFFFFFFFFFE
3FFFFFFFFFF00007FFFFFFFFFE
3FFFFFFFFFE00003FFFFFFFFFE
1FFFFFFFFFE00003FFFFFFFFFC
0FFFFFFFFFC00001FFFFFFFFFC
07FFFFFFFFC00001FFFFFFFFFC
01FFFFFFFFC00001FFFFFFFFF8
0000000000000001FFFFFFFFF8
0000000000000001FFFFFFFFF8
0000000000000001FFFFFFFFF0
0000000000000003FFFFFFFFF0
0000000000000003FFFFFFFFE0
0000000000000007FFFFFFFFE0
0000000000000007FFFFFFFFE0
000000000000000FFFFFFFFFC0
000000000000003FFFFFFFFFC0
00000000000000FFFFFFFFFF80
0000000000007FFFFFFFFFFF80
000000000000FFFFFFFFFFFF80
000000000000FFFFFFFFFFFF00
000000000001FFFFFFFFFFFF00
000000000001FFFFFFFFFFFE00
000000000001FFFFFFFFFFFE00
000000000003FFFFFFFFFFFC00
000000000003FFFFFFFFFFFC00
000000000007FFFFFFFFFFFC00
000000000007FFFFFFFFFFF800
000000000007FFFFFFFFFFF800
00000000000FFFFFFFFFFFF000
00000000000FFFFFFFFFFFF000
00000000000FFFFFFFFFFFF000
00000000001FFFFFFFFFFFE000
00000000001FFFFFFFFFFFE000
00000000003FFFFFFFFFFFC000
00000000003FFFFFFFFFFFC000
00000000003FFFFFFFFFFFC000
00000000007FFFFFFFFFFF8000
00000000007FFFFFFFFFFF8000
0000000000FFFFFFFFFFFF0000
0000000000FFFFFFFFFFFF0000
0000000000FFFFFFFFFFFF0000
0000000001FFFFFFFFFFFE0000
0000000001FFFFFFFFFFFE0000
0000000003FFFFFFFFFFFC0000
0000000003FFFFFFFFFFFC0000
0000000003FFFFFFFFFFFC0000
0000000007FFFFFFFFFFF80000
0000000007FFFFFFFFFFF80000
000000000FFFFFFFFFFFF00000
000000000FFFFFFFFFFFF00000
000000000FFFFFFFFFFFF00000
000000001FFFFFFFFFFFE00000
000000001FFFFFFFFFFFE00000
000000003FFFFFFFFFFFC00000
000000003FFFFFFFFFFFC00000
000000003FFFFFFFFFFFC00000
000000007FFFFFFFFFFF800000
000000007FFFFFFFFFFF800000
00000000FFFFFFFFFFFF000000
00000000FFFFFFFFFFFF000000
00000000FFFFFFFFFFFF000000
00000001FFFFFFFFFFFE000000
00000001FFFFFFFFFFFE000000
00000003FFFFFFFFFFFC000000
00000003FFFFFFFFFFFC000000
00000003FFFFFFFFFFFC000000
00000007FFFFFFFFFFF8000000
00000007FFFFFFFFFFF8000000
0000000FFFFFFFFFFFF0000000
0000000FFFFFFFFFFFF0000000
0000000FFFFFFFFFFFF0000000
0000001FFFFFFFFFFFE0000000
0000001FFFFFFFFFFFE0000000
0000003FFFFFFFFFFFC0000000
0000003FFFFFFFFFFFC0000000
0000003FFFFFFFFFFFC0000000
0000007FFFFFFFFFFF80000000
0000007FFFFFFFFFFF80000000
0000007FFFFFFFFFFF00000000
000000FFFFFFFFFFFF00000000
000000FFFFFFFFFFFE00000000
000001FFFFFFFFFFFE00000000
000001FFFFFFFFFFFE00000000
000001FFFFFFFFFFFC00000000
000003FFFFFFFFFFFC00000000
000003FFFFFFFFFFF800000000
000007FFFFFFFFFFF800000000
000007FFFFFFFFFFF800000000
000007FFFFFFFFFFF000000000
00000FFFFFFFFFFFF000000000
00000FFFFFFFFFFFE000000000
00001FFFFFFFFFFFE000000000
00001FFFFFFFFFFFE000000000
00001FFFFFFFFFFFC000000000
00003FFFFFFFFFFFC000000000
00003FFFFFFFFFFF8000000000
00007FFFFFFFFFFF8000000000
00007FFFFFFFFFFF8000000000
00007FFFFFFFFFFF0000000000
0000FFFFFFFFFFFF0000000000
0000FFFFFFFFFFFE0000000000
0001FFFFFFFFFFFE0000000000
0001FFFFFFFFFFFE0000000000
0001FFFFFFFFFFFC0000000000
0003FFFFFFFFFFFC0000000000
0003FFFFFFFFFFF80000000000
0007FFFFFFFFFFF80000000000
0007FFFFFFFFFFF80000000000
0007FFFFFFFFFFF00000000000
0007FFFFFFFFFFF00000000000
0007FFFFFFFFFFE00000000000
0007FFFFFFFFFFE00000000000
0007FFFFFFFFFFE00000000000
0007FFFFFFFFFFC00000000000
0003FFFFFFFFFFC00000000000
0003FFFFFFFFFF800000000000
0001FFFFFFFFFF800000000000
0000FFFFFFFFFF000000000000
00007FFFFFFFFE000000000000
00003FFFFFFFFC000000000000
00001FFFFFFFF8000000000000
000003FFFFFFC0000000000000
ENDCHAR
STARTCHAR 0038
ENCODING 56
SWIDTH 663 0
DWIDTH 126 0
BBX 99 154 13 0
BITMAP
00000003FFFFFFFFFC00000000
0000007FFFFFFFFFFFE0000000
000003FFFFFFFFFFFFF8000000
00000FFFFFFFFFFFFFFF000000
00003FFFFFFFFFFFFFFF800000
00007FFFFFFFFFFFFFFFE00000
0001FFFFFFFFFFFFFFFFF80000
0003FFFFFFFFFFFFFFFFFC0000
0007FFFFFFFFFFFFFFFFFE0000
000FFFFFFFFFFFFFFFFFFF0000
001FFFFFFFFFFFFFFFFFFF8000
003FFFFFFFFFFFFFFFFFFFC000
007FFFFFFFFFFFFFFFFFFFE000
00FFFFFFFFFFFFFFFFFFFFF000
01FFFFFFFFFFFFFFFFFFFFF800
03FFFFFFFFFFFFFFFFFFFFF800
03FFFFFFFFFFFFFFFFFFFFFC00
07FFFFFFFFFFFFFFFFFFFFFE00
07FFFFFFFFFFFFFFFFFFFFFE00
0FFFFFFFFFFFFFFFFFFFFFFF00
1FFFFFFFFFFFFFFFFFFFFFFF00
1FFFFFFFFFFFFFFFFFFFFFFF80
1FFFFFFFFFFFFFFFFFFFFFFF80
3FFFFFFFFFFFFFFFFFFFFFFFC0
3FFFFFFFFFFFFFFFFFFFFFFFC0
3FFFFFFFFFFFFFFFFFFFFFFFC0
7FFFFFFFFFFFFFFFFFFFFFFFC0
7FFFFFFFFFFFFFFFFFFFFFFFE0
7FFFFFFFFFFFFFFFFFFFFFFFE0
7FFFFFFFFFFC03FFFFFFFFFFE0
7FFFFFFFFFF001FFFFFFFFFFE0
FFFFFFFFFFE0007FFFFFFFFFE0
FFFFFFFFFFC0003FFFFFFFFFE0
FFFFFFFFFF80001FFFFFFFFFE0
FFFFFFFFFF00001FFFFFFFFFE0
FFFFFFFFFF00000FFFFFFFFFE0
FFFFFFFFFF00000FFFFFFFFFE0
FFFFFFFFFE00000FFFFFFFFFE0
FFFFFFFFFE00000FFFFFFFFFE0
FFFFFFFFFE00000FFFFFFFFFE0
FFFFFFFFFE00000FFFFFFFFFE0
FFFFFFFFFF00000FFFFFFFFFE0
FFFFFFFFFF00000FFFFFFFFFE0
FFFFFFFFFF00001FFFFFFFFFE0
FFFFFFFFFF80001FFFFFFFFFE0
FFFFFFFFFFC0003FFFFFFFFFE0
FFFFFFFFFFE0007FFFFFFFFFE0
FFFFFFFFFFF000FFFFFFFFFFE0
7FFFFFFFFFF001FFFFFFFFFFE0
7FFFFFFFFFF001FFFFFFFFFFE0
7FFFFFFFFFF001FFFFFFFFFFE0
7FFFFFFFFFF001FFFFFFFFFFE0
7FFFFFFFFFF001FFFFFFFFFFE0
7FFFFFFFFFF001FFFFFFFFFFC0
3FFFFFFFFFF001FFFFFFFFFFC0
3FFFFFFFFFF001FFFFFFFFFFC0
3FFFFFFFFFF001FFFFFFFFFF80
1FFFFFFFFFF001FFFFFFFFFF80
1FFFFFFFFFF001FFFFFFFFFF80
0FFFFFFFFFF001FFFFFFFFFF00
0FFFFFFFFFF001FFFFFFFFFF00
07FFFFFFFFF001FFFFFFFFFE00
07FFFFFFFFF001FFFFFFFFFC00
03FFFFFFFFF001FFFFFFFFFC00
01FFFFFFFFF001FFFFFFFFF800
01FFFFFFFFF001FFFFFFFFF000
00FFFFFFFFF001FFFFFFFFF000
007FFFFFFFF001FFFFFFFFE000
003FFFFFFFF001FFFFFFFFC000
001FFFFFFFF001FFFFFFFF8000
000FFFFFFFF001FFFFFFFF0000
000FFFFFFFF001FFFFFFFE0000
001FFFFFFFF001FFFFFFFF0000
003FFFFFFFF001FFFFFFFF8000
007FFFFFFFF001FFFFFFFFC000
00FFFFFFFFF001FFFFFFFFE000
00FFFFFFFFF001FFFFFFFFF000
01FFFFFFFFF001FFFFFFFFF800
03FFFFFFFFF001FFFFFFFFFC00
07FFFFFFFFF001FFFFFFFFFC00
07FFFFFFFFF001FFFFFFFFFE00
0FFFFFFFFFF001FFFFFFFFFE00
0FFFFFFFFFF001FFFFFFFFFF00
1FFFFFFFFFF001FFFFFFFFFF00
1FFFFFFFFFF001FFFFFFFFFF80
3FFFFFFFFFF001FFFFFFFFFF80
3FFFFFFFFFF001FFFFFFFFFFC0
3FFFFFFFFFF001FFFFFFFFFFC0
3FFFFFFFFFF001FFFFFFFFFFC0
7FFFFFFFFFF001FFFFFFFFFFC0
7FFFFFFFFFF001FFFFFFFFFFE0
7FFFFFFFFFF001FFFFFFFFFFE0
7FFFFFFFFFF001FFFFFFFFFFE0
7FFFFFFFFFF001FFFFFFFFFFE0
FFFFFFFFFFF001FFFFFFFFFFE0
FFFFFFFFFFF001FFFFFFFFFFE0
FFFFFFFFFFF001FFFFFFFFFFE0
FFFFFFFFFFF001FFFFFFFFFFE0
FFFFFFFFFFF001FFFFFFFFFFE0
FFFFFFFFFFF001FFFFFFFFFFE0
FFFFFFFFFFF001FFFFFFFFFFE0
FFFFFFFFFFF001FFFFFFFFFFE0
FFFFFFFFFFF001FFFFFFFFFFE0
FFFFFFFFFFF001FFFFFFFFFFE0
FFFFFFFFFFF001FFFFFFFFFFE0
FFFFFFFFFFF001FFFFFFFFFFE0
FFFFFFFFFFF000FFFFFFFFFFE0
FFFFFFFFFFC0007FFFFFFFFFE0
FFFFFFFFFF80003FFFFFFFFFE0
FFFFFFFFFF80001FFFFFFFFFE0
FFFFFFFFFF00001FFFFFFFFFE0
FFFFFFFFFF00000FFFFFFFFFE0
FFFFFFFFFF00000FFFFFFFFFE0
FFFFFFFFFE00000FFFFFFFFFE0
FFFFFFFFFE00000FFFFFFFFFE0
FFFFFFFFFE00000FFFFFFFFFE0
FFFFFFFFFE00000FFFFFFFFFE0
FFFFFFFFFF00000FFFFFFFFFE0
FFFFFFFFFF00000FFFFFFFFFE0
FFFFFFFFFF00001FFFFFFFFFE0
FFFFFFFFFF80001FFFFFFFFFE0
FFFFFFFFFFC0003FFFFFFFFFE0
FFFFFFFFFFE0007FFFFFFFFFE0
7FFFFFFFFFF001FFFFFFFFFFE0
7FFFFFFFFFFC07FFFFFFFFFFE0
7FFFFFFFFFFFFFFFFFFFFFFFE0
7FFFFFFFFFFFFFFFFFFFFFFFE0
7FFFFFFFFFFFFFFFFFFFFFFFC0
3FFFFFFFFFFFFFFFFFFFFFFFC0
3FFFFFFFFFFFFFFFFFFFFFFFC0
3FFFFFFFFFFFFFFFFFFFFFFFC0
1FFFFFFFFFFFFFFFFFFFFFFF80
1FFFFFFFFFFFFFFFFFFFFFFF80
1FFFFFFFFFFFFFFFFFFFFFFF00
0FFFFFFFFFFFFFFFFFFFFFFF00
0FFFFFFFFFFFFFFFFFFFFFFE00
07FFFFFFFFFFFFFFFFFFFFFE00
03FFFFFFFFFFFFFFFFFFFFFC00
03FFFFFFFFFFFFFFFFFFFFF800
01FFFFFFFFFFFFFFFFFFFFF800
00FFFFFFFFFFFFFFFFFFFFF000
007FFFFFFFFFFFFFFFFFFFE000
003FFFFFFFFFFFFFFFFFFFC000
001FFFFFFFFFFFFFFFFFFF8000
000FFFFFFFFFFFFFFFFFFF0000
0007FFFFFFFFFFFFFFFFFE0000
0003FFFFFFFFFFFFFFFFFC0000
0001FFFFFFFFFFFFFFFFF80000
00007FFFFFFFFFFFFFFFE00000
00003FFFFFFFFFFFFFFFC00000
00000FFFFFFFFFFFFFFF000000
000003FFFFFFFFFFFFF8000000
0000007FFFFFFFFFFFE0000000
00000003FFFFFFFFFC00000000
ENDCHAR
STARTCHAR 0039
ENCODING 57
SWIDTH 663 0
DWIDTH 126 0
BBX 100 154 13 0
BITMAP
00007FFFFFFFFFFFFFFFE00000
0007FFFFFFFFFFFFFFFFFE0000
001FFFFFFFFFFFFFFFFFFF8000
003FFFFFFFFFFFFFFFFFFFC000
00FFFFFFFFFFFFFFFFFFFFF000
01FFFFFFFFFFFFFFFFFFFFF800
03FFFFFFFFFFFFFFFFFFFFFC00
07FFFFFFFFFFFFFFFFFFFFFE00
0FFFFFFFFFFFFFFFFFFFFFFF00
0FFFFFFFFFFFFFFFFFFFFFFF00
1FFFFFFFFFFFFFFFFFFFFFFF80
3FFFFFFFFFFFFFFFFFFFFFFF80
3FFFFFFFFFFFFFFFFFFFFFFFC0
3FFFFFFFFFFFFFFFFFFFFFFFC0
7FFFFFFFFFFFFFFFFFFFFFFFE0
7FFFFFFFFFFFFFFFFFFFFFFFE0
7FFFFFFFFFFFFFFFFFFFFFFFE0
7FFFFFFFFFFFFFFFFFFFFFFFE0
FFFFFFFFFFFFFFFFFFFFFFFFF0
FFFFFFFFFFFFFFFFFFFFFFFFF0
FFFFFFFFFFFFFFFFFFFFFFFFF0
FFFFFFFFFFFFFFFFFFFFFFFFF0
FFFFFFFFFFFFFFFFFFFFFFFFF0
FFFFFFFFFFFFFFFFFFFFFFFFF0
FFFFFFFFFFFFFFFFFFFFFFFFF0
FFFFFFFFFFFFFFFFFFFFFFFFF0
FFFFFFFFFFFFFFFFFFFFFFFFF0
FFFFFFFFFFFFFFFFFFFFFFFFF0
FFFFFFFFFFFFFFFFFFFFFFFFF0
FFFFFFFFFFFFFFFFFFFFFFFFF0
FFFFFFFFFFFFFFFFFFFFFFFFF0
FFFFFFFFFFFFFFFFFFFFFFFFF0
FFFFFFFFFFFFFFFFFFFFFFFFF0
FFFFFFFFFFFFFFFFFFFFFFFFF0
FFFFFFFFFFFFFFFFFFFFFFFFF0
FFFFFFFFFFFFFFFFFFFFFFFFF0
FFFFFFFFFFFE07FFFFFFFFFFF0
FFFFFFFFFFF001FFFFFFFFFFF0
FFFFFFFFFFE0007FFFFFFFFFF0
FFFFFFFFFFC0003FFFFFFFFFF0
FFFFFFFFFF80001FFFFFFFFFF0
FFFFFFFFFF00001FFFFFFFFFF0
FFFFFFFFFF00000FFFFFFFFFF0
FFFFFFFFFF00000FFFFFFFFFF0
FFFFFFFFFE00000FFFFFFFFFF0
FFFFFFFFFE00000FFFFFFFFFF0
FFFFFFFFFE00000FFFFFFFFFF0
FFFFFFFFFE00000FFFFFFFFFF0
FFFFFFFFFE00000FFFFFFFFFF0
FFFFFFFFFE00000FFFFFFFFFF0
FFFFFFFFFE00000FFFFFFFFFF0
FFFFFFFFFE00000FFFFFFFFFF0
FFFFFFFFFE00000FFFFFFFFFF0
FFFFFFFFFE00000FFFFFFFFFF0
FFFFFFFFFE00000FFFFFFFFFF0
FFFFFFFFFF00000FFFFFFFFFF0
FFFFFFFFFF00000FFFFFFFFFF0
FFFFFFFFFF00001FFFFFFFFFF0
FFFFFFFFFF80001FFFFFFFFFF0
FFFFFFFFFFC0003FFFFFFFFFF0
FFFFFFFFFFE0007FFFFFFFFFF0
FFFFFFFFFFF001FFFFFFFFFFF0
FFFFFFFFFFFC07FFFFFFFFFFF0
FFFFFFFFFFFFFFFFFFFFFFFFF0
FFFFFFFFFFFFFFFFFFFFFFFFF0
FFFFFFFFFFFFFFFFFFFFFFFFF0
FFFFFFFFFFFFFFFFFFFFFFFFF0
FFFFFFFFFFFFFFFFFFFFFFFFF0
FFFFFFFFFFFFFFFFFFFFFFFFF0
FFFFFFFFFFFFFFFFFFFFFFFFF0
FFFFFFFFFFFFFFFFFFFFFFFFF0
FFFFFFFFFFFFFFFFFFFFFFFFF0
FFFFFFFFFFFFFFFFFFFFFFFFF0
FFFFFFFFFFFFFFFFFFFFFFFFF0
7FFFFFFFFFFFFFFFFFFFFFFFF0
7FFFFFFFFFFFFFFFFFFFFFFFF0
7FFFFFFFFFFFFFFFFFFFFFFFF0
7FFFFFFFFFFFFFFFFFFFFFFFF0
3FFFFFFFFFFFFFFFFFFFFFFFF0
3FFFFFFFFFFFFFFFFFFFFFFFF0
1FFFFFFFFFFFFFFFFFFFFFFFF0
1FFFFFFFFFFFFFFFFFFFFFFFF0
0FFFFFFFFFFFFFFFFFFFFFFFF0
07FFFFFFFFFFFFFFFFFFFFFFF0
03FFFFFFFFFFFFFFFFFFFFFFF0
01FFFFFFFFFFFFFFFFFFFFFFF0
00FFFFFFFFFFFFFFFFFFFFFFF0
007FFFFFFFFFFFFFFFFFFFFFF0
001FFFFFFFFFFFFFFFFFFFFFF0
0007FFFFFFFFFFFFFFFFFFFFF0
0000FFFFFFFFFFFFFFFFFFFFF0
00000000000007FFFFFFFFFFF0
00000000000001FFFFFFFFFFF0
000000000000007FFFFFFFFFF0
000000000000003FFFFFFFFFF0
000000000000003FFFFFFFFFF0
000000000000001FFFFFFFFFF0
000000000000000FFFFFFFFFF0
000000000000000FFFFFFFFFF0
000000000000000FFFFFFFFFF0
000000000000000FFFFFFFFFF0
007FFFFFF000000FFFFFFFFFF0
01FFFFFFFE00000FFFFFFFFFF0
07FFFFFFFF00000FFFFFFFFFF0
0FFFFFFFFF80000FFFFFFFFFF0
1FFFFFFFFFC0000FFFFFFFFFF0
3FFFFFFFFFE0000FFFFFFFFFF0
3FFFFFFFFFE0000FFFFFFFFFF0
7FFFFFFFFFC0000FFFFFFFFFF0
7FFFFFFFFF80000FFFFFFFFFF0
7FFFFFFFFF00000FFFFFFFFFF0
FFFFFFFFFF00000FFFFFFFFFF0
FFFFFFFFFF00000FFFFFFFFFF0
FFFFFFFFFE00000FFFFFFFFFF0
FFFFFFFFFE00000FFFFFFFFFF0
FFFFFFFFFE00000FFFFFFFFFF0
FFFFFFFFFE00000FFFFFFFFFF0
FFFFFFFFFF00000FFFFFFFFFF0
FFFFFFFFFF00000FFFFFFFFFF0
FFFFFFFFFF00001FFFFFFFFFF0
FFFFFFFFFF80003FFFFFFFFFF0
FFFFFFFFFFC0003FFFFFFFFFF0
FFFFFFFFFFE0007FFFFFFFFFF0
FFFFFFFFFFF001FFFFFFFFFFF0
FFFFFFFFFFFC07FFFFFFFFFFF0
FFFFFFFFFFFFFFFFFFFFFFFFF0
FFFFFFFFFFFFFFFFFFFFFFFFF0
FFFFFFFFFFFFFFFFFFFFFFFFF0
FFFFFFFFFFFFFFFFFFFFFFFFF0
FFFFFFFFFFFFFFFFFFFFFFFFF0
FFFFFFFFFFFFFFFFFFFFFFFFF0
FFFFFFFFFFFFFFFFFFFFFFFFF0
FFFFFFFFFFFFFFFFFFFFFFFFF0
FFFFFFFFFFFFFFFFFFFFFFFFF0
FFFFFFFFFFFFFFFFFFFFFFFFF0
FFFFFFFFFFFFFFFFFFFFFFFFF0
7FFFFFFFFFFFFFFFFFFFFFFFE0
7FFFFFFFFFFFFFFFFFFFFFFFE0
7FFFFFFFFFFFFFFFFFFFFFFFE0
7FFFFFFFFFFFFFFFFFFFFFFFE0
3FFFFFFFFFFFFFFFFFFFFFFFC0
3FFFFFFFFFFFFFFFFFFFFFFFC0
3FFFFFFFFFFFFFFFFFFFFFFFC0
1FFFFFFFFFFFFFFFFFFFFFFF80
0FFFFFFFFFFFFFFFFFFFFFFF00
0FFFFFFFFFFFFFFFFFFFFFFF00
07FFFFFFFFFFFFFFFFFFFFFE00
03FFFFFFFFFFFFFFFFFFFFFC00
01FFFFFFFFFFFFFFFFFFFFF800
00FFFFFFFFFFFFFFFFFFFFF000
007FFFFFFFFFFFFFFFFFFFE000
001FFFFFFFFFFFFFFFFFFF8000
0007FFFFFFFFFFFFFFFFFE0000
00007FFFFFFFFFFFFFFFE00000
ENDCHAR
STARTCHAR 003A
ENCODING 58
SWIDTH 252 0
DWIDTH 48 0
BBX 25 113 11 0
BITMAP
1FFFFC00
3FFFFF00
7FFFFF00
7FFFFF80
FFFFFF80
FFFFFF80
FFFFFF80
FFFFFF80
FFFFFF80
FFFFFF80
FFFFFF80
FFFFFF80
FFFFFF80
FFFFFF80
FFFFFF80
FFFFFF80
FFFFFF80
FFFFFF80
FFFFFF80
FFFFFF80
FFFFFF80
FFFFFF80
FFFFFF80
FFFFFF80
FFFFFF80
FFFFFF80
FFFFFF80
FFFFFF80
FFFFFF80
FFFFFF80
FFFFFF80
7FFFFF80
7FFFFF00
3FFFFF00
1FFFFC00
00000000
00000000
00000000
00000000
00000000
00000000
00000000
00000000
00000000
00000000
00000000
00000000
00000000
00000000
00000000
00000000
00000000
00000000
00000000
00000000
00000000
00000000
00000000
00000000
00000000
00000000
00000000
00000000
00000000
00000000
00000000
00000000
00000000
00000000
00000000
00000000
00000000
00000000
00000000
00000000
00000000
00000000
00000000
1FFFFC00
3FFFFF00
7FFFFF00
7FFFFF80
FFFFFF80
FFFFFF80
FFFFFF80
FFFFFF80
FFFFFF80
FFFFFF80
FFFFFF80
FFFFFF80
FFFFFF80
FFFFFF80
FFFFFF80
FFFFFF80
FFFFFF80
FFFFFF80
FFFFFF80
FFFFFF80
FFFFFF80
FFFFFF80
FFFFFF80
FFFFFF80
FFFFFF80
FFFFFF80
FFFFFF80
FFFFFF80
FFFFFF80
FFFFFF80
FFFFFF80
7FFFFF80
7FFFFF00
3FFFFF00
1FFFFC00
ENDCHAR
STARTCHAR 003B
ENCODING 59
SWIDTH 252 0
DWIDTH 48 0
BBX 25 131 11 -18
BITMAP
1FFFFC00
3FFFFF00
7FFFFF00
7FFFFF80
FFFFFF80
FFFFFF80
FFFFFF80
FFFFFF80
FFFFFF80
FFFFFF80
FFFFFF80
FFFFFF80
FFFFFF80
FFFFFF80
FFFFFF80
FFFFFF80
FFFFFF80
FFFFFF80
FFFFFF80
FFFFFF80
FFFFFF80
FFFFFF80
FFFFFF80
FFFFFF80
FFFFFF80
FFFFFF80
FFFFFF80
FFFFFF80
FFFFFF80
FFFFFF80
FFFFFF80
7FFFFF80
7FFFFF00
3FFFFF00
1FFFFC00
00000000
00000000
00000000
00000000
00000000
00000000
00000000
00000000
00000000
00000000
00000000
00000000
00000000
00000000
00000000
00000000
00000000
00000000
00000000
00000000
00000000
00000000
00000000
00000000
00000000
00000000
00000000
00000000
00000000
00000000
00000000
00000000
00000000
00000000
00000000
00000000
00000000
00000000
00000000
00000000
00000000
00000000
00000000
0FFFFC00
3FFFFF00
7FFFFF80
7FFFFF80
7FFFFF80
FFFFFF80
FFFFFF80
FFFFFF80
FFFFFF80
FFFFFF80
FFFFFF80
FFFFFF80
FFFFFF80
FFFFFF80
FFFFFF80
FFFFFF80
FFFFFF80
FFFFFF80
FFFFFF80
FFFFFF80
FFFFFF80
FFFFFF80
FFFFFF80
FFFFFF80
FFFFFF80
FFFFFF80
FFFFFF80
FFFFFF80
FFFFFF80
FFFFFF80
FFFFFF80
FFFFFF80
FFFFFF80
FFFFFF80
FFFFFF80
FFFFFF80
FFFFFF80
FFFFFF80
FFFFFF80
FFFFFF80
FFFFFF80
FFFFFF80
FFFFFF00
FFFFFF00
FFFFFE00
FFFFFE00
FFFFFC00
FFFFF800
7FFFF000
7FFFE000
7FFFC000
3FFF0000
0FF80000
ENDCHAR
STARTCHAR 003C
ENCODING 60
SWIDTH 421 0
DWIDTH 80 0
BBX 64 98 11 10
BITMAP
000000000003E000
00000000000FF000
00000000001FF800
00000000003FFE00
00000000007FFF00
0000000000FFFF80
0000000001FFFFC0
0000000003FFFFE0
0000000007FFFFF0
000000000FFFFFF8
000000001FFFFFFC
000000003FFFFFFE
000000007FFFFFFE
00000000FFFFFFFE
00000001FFFFFFFF
00000003FFFFFFFF
00000007FFFFFFFF
0000000FFFFFFFFE
0000001FFFFFFFFE
0000003FFFFFFFFC
0000007FFFFFFFFC
000000FFFFFFFFF8
000001FFFFFFFFF0
000003FFFFFFFFE0
000007FFFFFFFFC0
00000FFFFFFFFF80
00001FFFFFFFFF00
00003FFFFFFFFE00
00003FFFFFFFFC00
00007FFFFFFFF800
0000FFFFFFFFF000
0001FFFFFFFFE000
0003FFFFFFFFC000
0007FFFFFFFF8000
000FFFFFFFFF0000
001FFFFFFFFE0000
003FFFFFFFFC0000
007FFFFFFFF80000
00FFFFFFFFF00000
01FFFFFFFFE00000
03FFFFFFFFC00000
07FFFFFFFF800000
0FFFFFFFFF000000
1FFFFFFFFE000000
3FFFFFFFFC000000
7FFFFFFFF8000000
7FFFFFFFF0000000
7FFFFFFFE0000000
FFFFFFFFC0000000
FFFFFFFFC0000000
FFFFFFFFE0000000
7FFFFFFFF0000000
7FFFFFFFF8000000
3FFFFFFFFC000000
1FFFFFFFFE000000
0FFFFFFFFF000000
07FFFFFFFF800000
03FFFFFFFFC00000
03FFFFFFFFE00000
01FFFFFFFFF00000
00FFFFFFFFF80000
007FFFFFFFFC0000
003FFFFFFFFE0000
001FFFFFFFFF0000
000FFFFFFFFF8000
0007FFFFFFFFC000
0003FFFFFFFFE000
0001FFFFFFFFF000
0000FFFFFFFFF800
00007FFFFFFFFC00
00003FFFFFFFFE00
00001FFFFFFFFF00
00000FFFFFFFFF80
000007FFFFFFFFC0
000003FFFFFFFFE0
000001FFFFFFFFF0
000000FFFFFFFFF8
0000007FFFFFFFF8
0000003FFFFFFFFC
0000001FFFFFFFFE
0000000FFFFFFFFE
00000007FFFFFFFF
00000003FFFFFFFF
00000001FFFFFFFF
00000000FFFFFFFE
000000007FFFFFFE
000000003FFFFFFE
000000001FFFFFFC
000000000FFFFFF8
0000000007FFFFF0
0000000003FFFFE0
0000000001FFFFC0
0000000000FFFF80
00000000007FFF00
00000000003FFE00
00000000001FFC00
00000000000FF800
000000000007E000
ENDCHAR
STARTCHAR 003D
ENCODING 61
SWIDTH 468 0
DWIDTH 89 0
BBX 71 57 9 29
BITMAP
0FFFFFFFFFFFFFFFF0
3FFFFFFFFFFFFFFFF8
7FFFFFFFFFFFFFFFFC
7FFFFFFFFFFFFFFFFC
7FFFFFFFFFFFFFFFFE
7FFFFFFFFFFFFFFFFE
FFFFFFFFFFFFFFFFFE
FFFFFFFFFFFFFFFFFE
FFFFFFFFFFFFFFFFFE
FFFFFFFFFFFFFFFFFE
FFFFFFFFFFFFFFFFFE
FFFFFFFFFFFFFFFFFE
FFFFFFFFFFFFFFFFFE
FFFFFFFFFFFFFFFFFE
FFFFFFFFFFFFFFFFFE
FFFFFFFFFFFFFFFFFE
FFFFFFFFFFFFFFFFFE
FFFFFFFFFFFFFFFFFE
7FFFFFFFFFFFFFFFFC
7FFFFFFFFFFFFFFFFC
7FFFFFFFFFFFFFFFFC
3FFFFFFFFFFFFFFFF8
0FFFFFFFFFFFFFFFF0
000000000000000000
000000000000000000
000000000000000000
000000000000000000
000000000000000000
000000000000000000
000000000000000000
000000000000000000
000000000000000000
000000000000000000
000000000000000000
000000000000000000
0FFFFFFFFFFFFFFFF0
3FFFFFFFFFFFFFFFF8
7FFFFFFFFFFFFFFFFC
7FFFFFFFFFFFFFFFFC
7FFFFFFFFFFFFFFFFE
FFFFFFFFFFFFFFFFFE
FFFFFFFFFFFFFFFFFE
FFFFFFFFFFFFFFFFFE
FFFFFFFFFFFFFFFFFE
FFFFFFFFFFFFFFFFFE
FFFFFFFFFFFFFFFFFE
FFFFFFFFFFFFFFFFFE
FFFFFFFFFFFFFFFFFE
FFFFFFFFFFFFFFFFFE
FFFFFFFFFFFFFFFFFE
FFFFFFFFFFFFFFFFFE
FFFFFFFFFFFFFFFFFE
7FFFFFFFFFFFFFFFFE
7FFFFFFFFFFFFFFFFC
7FFFFFFFFFFFFFFFFC
3FFFFFFFFFFFFFFFF8
1FFFFFFFFFFFFFFFF0
ENDCHAR
STARTCHAR 003E
ENCODING 62
SWIDTH 421 0
DWIDTH 80 0
BBX 63 98 6 10
BITMAP
0007C00000000000
001FF00000000000
003FF80000000000
007FFC0000000000
00FFFE0000000000
01FFFF0000000000
03FFFF8000000000
07FFFFC000000000
0FFFFFE000000000
1FFFFFF000000000
3FFFFFF800000000
7FFFFFFC00000000
7FFFFFFE00000000
FFFFFFFF00000000
FFFFFFFF80000000
FFFFFFFFC0000000
FFFFFFFFE0000000
FFFFFFFFF0000000
7FFFFFFFF0000000
7FFFFFFFF8000000
3FFFFFFFFC000000
1FFFFFFFFE000000
0FFFFFFFFF000000
07FFFFFFFF800000
03FFFFFFFFC00000
01FFFFFFFFE00000
00FFFFFFFFF00000
007FFFFFFFF80000
003FFFFFFFFC0000
001FFFFFFFFE0000
000FFFFFFFFF0000
0007FFFFFFFF8000
0003FFFFFFFFC000
0001FFFFFFFFE000
0000FFFFFFFFF000
00007FFFFFFFF800
00003FFFFFFFFC00
00001FFFFFFFFE00
00000FFFFFFFFF00
000007FFFFFFFF80
000003FFFFFFFFC0
000001FFFFFFFFE0
000000FFFFFFFFF0
0000007FFFFFFFF8
0000007FFFFFFFF8
0000003FFFFFFFFC
0000001FFFFFFFFE
0000000FFFFFFFFE
00000007FFFFFFFE
00000003FFFFFFFE
00000007FFFFFFFE
0000000FFFFFFFFE
0000001FFFFFFFFE
0000003FFFFFFFFC
0000007FFFFFFFF8
000000FFFFFFFFF0
000001FFFFFFFFE0
000003FFFFFFFFC0
000007FFFFFFFF80
00000FFFFFFFFF00
00001FFFFFFFFF00
00003FFFFFFFFE00
00007FFFFFFFFC00
0000FFFFFFFFF800
0000FFFFFFFFF000
0001FFFFFFFFE000
0003FFFFFFFFC000
0007FFFFFFFF8000
000FFFFFFFFF0000
001FFFFFFFFE0000
003FFFFFFFFC0000
007FFFFFFFF80000
00FFFFFFFFF00000
01FFFFFFFFE00000
03FFFFFFFFC00000
07FFFFFFFF800000
0FFFFFFFFF000000
1FFFFFFFFE000000
3FFFFFFFFC000000
7FFFFFFFF8000000
7FFFFFFFF0000000
FFFFFFFFE0000000
FFFFFFFFC0000000
FFFFFFFF80000000
FFFFFFFF00000000
FFFFFFFE00000000
7FFFFFFC00000000
3FFFFFFC00000000
1FFFFFF800000000
0FFFFFF000000000
07FFFFE000000000
03FFFFC000000000
01FFFF8000000000
00FFFF0000000000
007FFE0000000000
003FFC0000000000
001FF80000000000
0007E00000000000
ENDCHAR
STARTCHAR 003F
ENCODING 63
SWIDTH 642 0
DWIDTH 122 0
BBX 100 154 11 0
BITMAP
00007FFFFFFFFFFFFFF0000000
0007FFFFFFFFFFFFFFFF000000
001FFFFFFFFFFFFFFFFFE00000
003FFFFFFFFFFFFFFFFFF80000
00FFFFFFFFFFFFFFFFFFFE0000
01FFFFFFFFFFFFFFFFFFFF0000
03FFFFFFFFFFFFFFFFFFFFC000
07FFFFFFFFFFFFFFFFFFFFE000
0FFFFFFFFFFFFFFFFFFFFFF000
0FFFFFFFFFFFFFFFFFFFFFF800
1FFFFFFFFFFFFFFFFFFFFFFC00
1FFFFFFFFFFFFFFFFFFFFFFC00
3FFFFFFFFFFFFFFFFFFFFFFE00
3FFFFFFFFFFFFFFFFFFFFFFF00
7FFFFFFFFFFFFFFFFFFFFFFF00
7FFFFFFFFFFFFFFFFFFFFFFF80
7FFFFFFFFFFFFFFFFFFFFFFF80
7FFFFFFFFFFFFFFFFFFFFFFFC0
7FFFFFFFFFFFFFFFFFFFFFFFC0
FFFFFFFFFFFFFFFFFFFFFFFFC0
FFFFFFFFFFFFFFFFFFFFFFFFE0
FFFFFFFFFFFFFFFFFFFFFFFFE0
FFFFFFFFFFFFFFFFFFFFFFFFE0
FFFFFFFFFFFFFFFFFFFFFFFFE0
FFFFFFFFFFFFFFFFFFFFFFFFF0
FFFFFFFFFFFFFFFFFFFFFFFFF0
FFFFFFFFFFFFFFFFFFFFFFFFF0
FFFFFFFFFFFFFFFFFFFFFFFFF0
FFFFFFFFFFFFFFFFFFFFFFFFF0
FFFFFFFFFFFE07FFFFFFFFFFF0
FFFFFFFFFFF801FFFFFFFFFFF0
FFFFFFFFFFE0007FFFFFFFFFF0
FFFFFFFFFFC0003FFFFFFFFFF0
FFFFFFFFFFE0001FFFFFFFFFF0
FFFFFFFFFFE0001FFFFFFFFFF0
FFFFFFFFFFF0000FFFFFFFFFF0
FFFFFFFFFFF8000FFFFFFFFFF0
FFFFFFFFFFF8000FFFFFFFFFF0
FFFFFFFFFFF8000FFFFFFFFFF0
FFFFFFFFFFF8000FFFFFFFFFF0
FFFFFFFFFFF8000FFFFFFFFFF0
FFFFFFFFFFF8000FFFFFFFFFF0
7FFFFFFFFFF8000FFFFFFFFFF0
7FFFFFFFFFF8000FFFFFFFFFF0
7FFFFFFFFFF8000FFFFFFFFFF0
7FFFFFFFFFF0000FFFFFFFFFF0
3FFFFFFFFFF0000FFFFFFFFFF0
1FFFFFFFFFE0000FFFFFFFFFF0
1FFFFFFFFFE0000FFFFFFFFFF0
0FFFFFFFFFC0000FFFFFFFFFF0
03FFFFFFFF00000FFFFFFFFFF0
01FFFFFFFE00001FFFFFFFFFF0
003FFFFFF000001FFFFFFFFFF0
000000000000003FFFFFFFFFF0
000000000000007FFFFFFFFFF0
00000000000000FFFFFFFFFFF0
00000000000007FFFFFFFFFFF0
0000000000007FFFFFFFFFFFF0
000000000000FFFFFFFFFFFFE0
000000000001FFFFFFFFFFFFE0
000000000003FFFFFFFFFFFFE0
000000000007FFFFFFFFFFFFE0
00000000000FFFFFFFFFFFFFE0
00000000000FFFFFFFFFFFFFC0
00000000001FFFFFFFFFFFFFC0
00000000003FFFFFFFFFFFFF80
00000000007FFFFFFFFFFFFF80
0000000000FFFFFFFFFFFFFF00
0000000001FFFFFFFFFFFFFF00
0000000003FFFFFFFFFFFFFE00
0000000007FFFFFFFFFFFFFE00
000000000FFFFFFFFFFFFFFC00
000000001FFFFFFFFFFFFFF800
000000001FFFFFFFFFFFFFF000
000000003FFFFFFFFFFFFFE000
000000007FFFFFFFFFFFFFC000
00000000FFFFFFFFFFFFFF8000
00000000FFFFFFFFFFFFFF8000
00000001FFFFFFFFFFFFFF0000
00000001FFFFFFFFFFFFFE0000
00000003FFFFFFFFFFFFFC0000
00000003FFFFFFFFFFFFF80000
00000007FFFFFFFFFFFFF00000
00000007FFFFFFFFFFFFE00000
00000007FFFFFFFFFFFFC00000
0000000FFFFFFFFFFFFF800000
0000000FFFFFFFFFFFFF000000
0000000FFFFFFFFFFFFF000000
0000000FFFFFFFFFFFFE000000
0000000FFFFFFFFFFFFC000000
0000000FFFFFFFFFFFF8000000
0000000FFFFFFFFFFFF0000000
0000000FFFFFFFFFFFE0000000
0000000FFFFFFFFFFFC0000000
0000000FFFFFFFFFFF80000000
0000000FFFFFFFFFFF00000000
0000000FFFFFFFFFFF00000000
0000000FFFFFFFFFFF00000000
0000000FFFFFFFFFFF00000000
0000000FFFFFFFFFFF00000000
0000000FFFFFFFFFFF00000000
0000000FFFFFFFFFFF00000000
00000007FFFFFFFFFE00000000
00000007FFFFFFFFFE00000000
00000003FFFFFFFFFC00000000
00000003FFFFFFFFF800000000
00000001FFFFFFFFF800000000
00000000FFFFFFFFE000000000
000000003FFFFFFFC000000000
000000000FFFFFFF0000000000
00000000000000000000000000
00000000000000000000000000
00000000000000000000000000
00000000000000000000000000
00000000000000000000000000
00000000000000000000000000
00000000000000000000000000
00000000000000000000000000
00000000000000000000000000
000000000FFFFFFF0000000000
000000003FFFFFFFC000000000
00000000FFFFFFFFE000000000
00000001FFFFFFFFF800000000
00000003FFFFFFFFFC00000000
00000003FFFFFFFFFC00000000
00000007FFFFFFFFFE00000000
00000007FFFFFFFFFE00000000
0000000FFFFFFFFFFF00000000
0000000FFFFFFFFFFF00000000
0000000FFFFFFFFFFF00000000
0000000FFFFFFFFFFF00000000
0000000FFFFFFFFFFF00000000
0000000FFFFFFFFFFF00000000
0000000FFFFFFFFFFF00000000
0000000FFFFFFFFFFF00000000
0000000FFFFFFFFFFF00000000
0000000FFFFFFFFFFF00000000
0000000FFFFFFFFFFF00000000
0000000FFFFFFFFFFF00000000
0000000FFFFFFFFFFF00000000
0000000FFFFFFFFFFF00000000
0000000FFFFFFFFFFF00000000
0000000FFFFFFFFFFF00000000
0000000FFFFFFFFFFF00000000
0000000FFFFFFFFFFF00000000
0000000FFFFFFFFFFF00000000
00000007FFFFFFFFFE00000000
00000007FFFFFFFFFE00000000
00000003FFFFFFFFFC00000000
00000003FFFFFFFFFC00000000
00000001FFFFFFFFF800000000
00000000FFFFFFFFF000000000
000000003FFFFFFFC000000000
000000000FFFFFFF0000000000
ENDCHAR
STARTCHAR 0040
ENCODING 64
SWIDTH 778 0
DWIDTH 148 0
BBX 125 154 11 0
BITMAP
000001FFFFFFFFFFFFFFFFFFFE000000
00001FFFFFFFFFFFFFFFFFFFFFE00000
0000FFFFFFFFFFFFFFFFFFFFFFF80000
0003FFFFFFFFFFFFFFFFFFFFFFFE0000
0007FFFFFFFFFFFFFFFFFFFFFFFF8000
001FFFFFFFFFFFFFFFFFFFFFFFFFC000
003FFFFFFFFFFFFFFFFFFFFFFFFFE000
007FFFFFFFFFFFFFFFFFFFFFFFFFF000
00FFFFFFFFFFFFFFFFFFFFFFFFFFF800
01FFFFFFFFFFFFFFFFFFFFFFFFFFFC00
03FFFFFFFFFFFFFFFFFFFFFFFFFFFE00
03FFFF00000000000000000003FFFF00
07FFF8000000000000000000007FFF80
0FFFE0000000000000000000001FFF80
0FFF80000000000000000000000FFFC0
1FFF000000000000000000000003FFC0
1FFE000000000000000000000001FFE0
3FFC000000000000000000000000FFE0
3FF80000000000000000000000007FF0
3FF00000000000000000000000007FF0
7FF00000000000000000000000003FF0
7FE00001FFFFFFFFFFFFFF0000003FF8
7FE00007FFFFFFFFFFFFFFE000001FF8
7FC0000FFFFFFFFFFFFFFFF800001FF8
7FC0001FFFFFFFFFFFFFFFFE00000FF8
FFC0003FFFFFFFFFFFFFFFFF00000FF8
FFC0007FFFFFFFFFFFFFFFFF80000FF8
FFC0007FFFFFFFFFFFFFFFFFC0000FF8
FF80007FFFFFFFFFFFFFFFFFE0000FF8
FF8000FFFFFFFFFFFFFFFFFFE0000FF8
FF8000FFFFFFFFFFFFFFFFFFF0000FF8
FF8000FFFFFFFFFFFFFFFFFFF8000FF8
FF8000FFFFFFFFFFFFFFFFFFF8000FF8
FF8000FFFFFFFFFFFFFFFFFFF8000FF8
FF8000FFFFFFFFFFFFFFFFFFFC000FF8
FF8000FFFFFFFFFFFFFFFFFFFC000FF8
FF8000FFFFFFFFFFFFFFFFFFFC000FF8
FF8000FFFFFFFFFFFFFFFFFFFC000FF8
FF8000FFFFFFFFFFFFFFFFFFFC000FF8
FF8000FFFFFFFFFFFFFFFFFFFC000FF8
FF8000FFFFFFFFFFFFFFFFFFFC000FF8
FF8000FFFFFFFFFFFFFFFFFFFC000FF8
FF8000FFFFFFFFFFFFFFFFFFFC000FF8
FF8000FFFFFFFFFFFFFFFFFFFC000FF8
FF80007FFFFFFFFFFFFFFFFFFC000FF8
FF80007FFFFFFFFFFFFFFFFFFC000FF8
FF80007FFFFFFFFFFFFFFFFFFC000FF8
FF80003FFFFFFFFFFFFFFFFFFC000FF8
FF80001FFFFFFFFFFFFFFFFFFC000FF8
FF80000FFFFFFFFFFFFFFFFFFC000FF8
FF800007FFFFFFFFFFFFFFFFFC000FF8
FF800001FFFFFFFFFFFFFFFFFC000FF8
FF8000000000000FFFFFFFFFFC000FF8
FF80000000000001FFFFFFFFFC000FF8
FF80000000000000FFFFFFFFFC000FF8
FF800000000000007FFFFFFFFC000FF8
FF800000000000003FFFFFFFFC000FF8
FF800000000000003FFFFFFFFC000FF8
FF800000000000001FFFFFFFFC000FF8
FF800000000000001FFFFFFFFC000FF8
FF800000000000001FFFFFFFFC000FF8
FF800000000000001FFFFFFFFC000FF8
FF8000000FFFC0001FFFFFFFFC000FF8
FF8000007FFFF0001FFFFFFFFC000FF8
FF800001FFFFF8001FFFFFFFFC000FF8
FF800007FFFFFC001FFFFFFFFC000FF8
FF80000FFFFFFE001FFFFFFFFC000FF8
FF80001FFFFFFF001FFFFFFFFC000FF8
FF80003FFFFFFF001FFFFFFFFC000FF8
FF80007FFFFFFF001FFFFFFFFC000FF8
FF8000FFFFFFFF001FFFFFFFFC000FF8
FF8000FFFFFFFF001FFFFFFFFC000FF8
FF8001FFFFFFFF001FFFFFFFFC000FF8
FF8001FFFFFFFF001FFFFFFFFC000FF8
FF8003FFFFFFFF001FFFFFFFFC000FF8
FF8003FFFFFFFF001FFFFFFFFC000FF8
FF8003FFFFFFFF001FFFFFFFFC000FF8
FF8003FFFFFFFF001FFFFFFFFC000FF8
FF8007FFFFFFFF001FFFFFFFFC000FF8
FF8007FFFFFFFF001FFFFFFFFC000FF8
FF8007FFFFFFFF001FFFFFFFFC000FF8
FF8007FFFFFFFF001FFFFFFFFC000FF8
FF8007FFFFFFFF001FFFFFFFFC000FF8
FF8007FFFFFFFF001FFFFFFFFC000FF8
FF8007FFFFFFFF001FFFFFFFFC000FF8
FF8007FFFFFFFF001FFFFFFFFC000FF8
FF8007FFFFFFFF000FFFFFFFFC000FF8
FF8007FFFFFFFE0007FFFFFFFC000FF8
FF8007FFFFFFFC0003FFFFFFFC000FF8
FF8007FFFFFFF80001FFFFFFFC000FF8
FF8007FFFFFFF00001FFFFFFFC000FF8
FF8007FFFFFFF00000FFFFFFFC000FF8
FF8007FFFFFFF00000FFFFFFFC000FF8
FF8007FFFFFFE00000FFFFFFFC000FF8
FF8007FFFFFFE00000FFFFFFFC000FF8
FF8007FFFFFFE00000FFFFFFFC000FF8
FF8007FFFFFFF00000FFFFFFFC000FF8
FF8007FFFFFFF00000FFFFFFFC000FF8
FF8007FFFFFFF00000FFFFFFFC000FF8
FF8007FFFFFFF00001FFFFFFFC000FF8
FF8007FFFFFFF80001FFFFFFFC000FF8
FF8007FFFFFFFC0003FFFFFFFC000FF8
FF8007FFFFFFFE0007FFFFFFFC000FF8
FF8007FFFFFFFF000FFFFFFFFC000FF8
FF8007FFFFFFFFE07FFFFFFFFC000FF8
FF8007FFFFFFFFFFFFFFFFFFFC000FF8
FF8007FFFFFFFFFFFFFFFFFFFC000FF8
FF8007FFFFFFFFFFFFFFFFFFFC000FF8
FF8007FFFFFFFFFFFFFFFFFFFC001FF8
FF8007FFFFFFFFFFFFFFFFFFFC001FF8
FF8007FFFFFFFFFFFFFFFFFFFC001FF8
FF8007FFFFFFFFFFFFFFFFFFFC003FF0
FF8007FFFFFFFFFFFFFFFFFFFC003FF0
FF8007FFFFFFFFFFFFFFFFFFFC007FF0
FF8007FFFFFFFFFFFFFFFFFFFC00FFE0
FF8007FFFFFFFFFFFFFFFFFFFC01FFE0
FF8003FFFFFFFFFFFFFFFFFFFC03FFC0
FF8003FFFFFFFFFFFFFFFFFFFC07FFC0
FF8003FFFFFFFFFFFFFFFFFFF80FFF80
FF8003FFFFFFFFFFFFFFFFFFF83FFF80
FF8001FFFFFFFFFFFFFFFFFFF1FFFF00
FF8001FFFFFFFFFFFFFFFFFFFFFFFE00
FF8000FFFFFFFFFFFFFFFFFFFFFFFC00
FF8000FFFFFFFFFFFFFFFFFFFFFFF800
FF80007FFFFFFFFFFFFFFFFFFFFFF000
FF80003FFFFFFFFFFFFFFFFFFFFFE000
FFC0001FFFFFFFFFFFFFFFFFFFFFC000
FFC0000FFFFFFFFFFFFFFFFFFFFF8000
FFC00007FFFFFFFFFFFFFFFFFFFE0000
7FC00003FFFFFFFFFFFFFFFFFFF80000
7FC00000FFFFFFFFFFFFFFFFFFE00000
7FE000000FFFFFFFFFFFFFFFFE000000
7FE00000000000000000000000000000
7FF00000000000000000000000000000
3FF00000000000000000000000000000
3FF80000000000000000000000000000
3FFC0000000000000000000000000000
1FFE0000000000000000000000000000
1FFF0000000000000000000000000000
0FFF8000000000000000000000000000
0FFFE000000000000000000000000000
07FFF800000000000000000000000000
07FFFF00000000000000000000000000
03FFFFFFFFFFFFFFFFFFFFFF80000000
01FFFFFFFFFFFFFFFFFFFFFF80000000
00FFFFFFFFFFFFFFFFFFFFFF80000000
007FFFFFFFFFFFFFFFFFFFFF80000000
003FFFFFFFFFFFFFFFFFFFFF80000000
001FFFFFFFFFFFFFFFFFFFFF80000000
0007FFFFFFFFFFFFFFFFFFFF80000000
0003FFFFFFFFFFFFFFFFFFFF80000000
0000FFFFFFFFFFFFFFFFFFFF80000000
00001FFFFFFFFFFFFFFFFFFF80000000
000001FFFFFFFFFFFFFFFFFF80000000
ENDCHAR
STARTCHAR 0041
ENCODING 65
SWIDTH 642 0
DWIDTH 122 0
BBX 100 154 11 0
BITMAP
000001FFFFFFFFFFFFF8000000
00001FFFFFFFFFFFFFFF800000
00007FFFFFFFFFFFFFFFF00000
0001FFFFFFFFFFFFFFFFFC0000
0007FFFFFFFFFFFFFFFFFE0000
000FFFFFFFFFFFFFFFFFFF8000
003FFFFFFFFFFFFFFFFFFFC000
007FFFFFFFFFFFFFFFFFFFE000
00FFFFFFFFFFFFFFFFFFFFF000
01FFFFFFFFFFFFFFFFFFFFF800
03FFFFFFFFFFFFFFFFFFFFFC00
03FFFFFFFFFFFFFFFFFFFFFC00
07FFFFFFFFFFFFFFFFFFFFFE00
0FFFFFFFFFFFFFFFFFFFFFFF00
0FFFFFFFFFFFFFFFFFFFFFFF00
1FFFFFFFFFFFFFFFFFFFFFFF80
1FFFFFFFFFFFFFFFFFFFFFFF80
3FFFFFFFFFFFFFFFFFFFFFFFC0
3FFFFFFFFFFFFFFFFFFFFFFFC0
3FFFFFFFFFFFFFFFFFFFFFFFE0
7FFFFFFFFFFFFFFFFFFFFFFFE0
7FFFFFFFFFFFFFFFFFFFFFFFE0
7FFFFFFFFFFFFFFFFFFFFFFFE0
7FFFFFFFFFFFFFFFFFFFFFFFE0
7FFFFFFFFFFFFFFFFFFFFFFFF0
7FFFFFFFFFFFFFFFFFFFFFFFF0
FFFFFFFFFFFFFFFFFFFFFFFFF0
FFFFFFFFFFFFFFFFFFFFFFFFF0
FFFFFFFFFFFFFFFFFFFFFFFFF0
FFFFFFFFFFFF03FFFFFFFFFFF0
FFFFFFFFFFF800FFFFFFFFFFF0
FFFFFFFFFFF0003FFFFFFFFFF0
FFFFFFFFFFE0001FFFFFFFFFF0
FFFFFFFFFFC0000FFFFFFFFFF0
FFFFFFFFFF80000FFFFFFFFFF0
FFFFFFFFFF800007FFFFFFFFF0
FFFFFFFFFF800007FFFFFFFFF0
FFFFFFFFFF800007FFFFFFFFF0
FFFFFFFFFF000007FFFFFFFFF0
FFFFFFFFFF000007FFFFFFFFF0
FFFFFFFFFF000007FFFFFFFFF0
FFFFFFFFFF000007FFFFFFFFF0
FFFFFFFFFF000007FFFFFFFFF0
FFFFFFFFFF000007FFFFFFFFF0
FFFFFFFFFF000007FFFFFFFFF0
FFFFFFFFFF000007FFFFFFFFF0
FFFFFFFFFF000007FFFFFFFFF0
FFFFFFFFFF800007FFFFFFFFF0
FFFFFFFFFF800007FFFFFFFFF0
FFFFFFFFFF800007FFFFFFFFF0
FFFFFFFFFFC0000FFFFFFFFFF0
FFFFFFFFFFC0000FFFFFFFFFF0
FFFFFFFFFFE0001FFFFFFFFFF0
FFFFFFFFFFF0003FFFFFFFFFF0
FFFFFFFFFFF800FFFFFFFFFFF0
FFFFFFFFFFFF03FFFFFFFFFFF0
FFFFFFFFFFFFFFFFFFFFFFFFF0
FFFFFFFFFFFFFFFFFFFFFFFFF0
FFFFFFFFFFFFFFFFFFFFFFFFF0
FFFFFFFFFFFFFFFFFFFFFFFFF0
FFFFFFFFFFFFFFFFFFFFFFFFF0
FFFFFFFFFFFFFFFFFFFFFFFFF0
FFFFFFFFFFFFFFFFFFFFFFFFF0
FFFFFFFFFFFFFFFFFFFFFFFFF0
FFFFFFFFFFFFFFFFFFFFFFFFF0
FFFFFFFFFFFFFFFFFFFFFFFFF0
FFFFFFFFFFFFFFFFFFFFFFFFF0
FFFFFFFFFFFFFFFFFFFFFFFFF0
FFFFFFFFFFFFFFFFFFFFFFFFF0
FFFFFFFFFFFFFFFFFFFFFFFFF0
FFFFFFFFFFFFFFFFFFFFFFFFF0
FFFFFFFFFFFFFFFFFFFFFFFFF0
FFFFFFFFFFFFFFFFFFFFFFFFF0
FFFFFFFFFFFFFFFFFFFFFFFFF0
FFFFFFFFFFFFFFFFFFFFFFFFF0
FFFFFFFFFFFFFFFFFFFFFFFFF0
FFFFFFFFFFFFFFFFFFFFFFFFF0
FFFFFFFFFFFFFFFFFFFFFFFFF0
FFFFFFFFFFFFFFFFFFFFFFFFF0
FFFFFFFFFFFFFFFFFFFFFFFFF0
FFFFFFFFFFFFFFFFFFFFFFFFF0
FFFFFFFFFFFFFFFFFFFFFFFFF0
FFFFFFFFFFFFFFFFFFFFFFFFF0
FFFFFFFFFFFFFFFFFFFFFFFFF0
FFFFFFFFFFFFFFFFFFFFFFFFF0
FFFFFFFFFFFE01FFFFFFFFFFF0
FFFFFFFFFFF8007FFFFFFFFFF0
FFFFFFFFFFF0003FFFFFFFFFF0
FFFFFFFFFFE0001FFFFFFFFFF0
FFFFFFFFFFC0000FFFFFFFFFF0
FFFFFFFFFF80000FFFFFFFFFF0
FFFFFFFFFF800007FFFFFFFFF0
FFFFFFFFFF800007FFFFFFFFF0
FFFFFFFFFF000007FFFFFFFFF0
FFFFFFFFFF000007FFFFFFFFF0
FFFFFFFFFF000007FFFFFFFFF0
FFFFFFFFFF000007FFFFFFFFF0
FFFFFFFFFF800007FFFFFFFFF0
FFFFFFFFFF800007FFFFFFFFF0
FFFFFFFFFF80000FFFFFFFFFF0
FFFFFFFFFFC0001FFFFFFFFFF0
FFFFFFFFFFC0001FFFFFFFFFF0
FFFFFFFFFFE0007FFFFFFFFFF0
FFFFFFFFFFF000FFFFFFFFFFF0
FFFFFFFFFFF001FFFFFFFFFFF0
FFFFFFFFFFF001FFFFFFFFFFF0
FFFFFFFFFFF001FFFFFFFFFFF0
FFFFFFFFFFF001FFFFFFFFFFF0
FFFFFFFFFFF001FFFFFFFFFFF0
FFFFFFFFFFF001FFFFFFFFFFF0
FFFFFFFFFFF001FFFFFFFFFFF0
FFFFFFFFFFF001FFFFFFFFFFF0
FFFFFFFFFFF001FFFFFFFFFFF0
FFFFFFFFFFF001FFFFFFFFFFF0
FFFFFFFFFFF001FFFFFFFFFFF0
FFFFFFFFFFF001FFFFFFFFFFF0
FFFFFFFFFFF001FFFFFFFFFFF0
FFFFFFFFFFF001FFFFFFFFFFF0
FFFFFFFFFFF001FFFFFFFFFFF0
FFFFFFFFFFF001FFFFFFFFFFF0
FFFFFFFFFFF001FFFFFFFFFFF0
FFFFFFFFFFF001FFFFFFFFFFF0
FFFFFFFFFFF001FFFFFFFFFFF0
FFFFFFFFFFF001FFFFFFFFFFF0
FFFFFFFFFFF001FFFFFFFFFFF0
FFFFFFFFFFF001FFFFFFFFFFF0
FFFFFFFFFFF001FFFFFFFFFFF0
FFFFFFFFFFF001FFFFFFFFFFF0
FFFFFFFFFFF001FFFFFFFFFFF0
FFFFFFFFFFF001FFFFFFFFFFF0
FFFFFFFFFFF001FFFFFFFFFFF0
FFFFFFFFFFF001FFFFFFFFFFF0
FFFFFFFFFFF001FFFFFFFFFFF0
FFFFFFFFFFF001FFFFFFFFFFF0
FFFFFFFFFFF001FFFFFFFFFFF0
FFFFFFFFFFF001FFFFFFFFFFF0
FFFFFFFFFFF001FFFFFFFFFFF0
FFFFFFFFFFF001FFFFFFFFFFF0
FFFFFFFFFFF001FFFFFFFFFFF0
FFFFFFFFFFF001FFFFFFFFFFF0
FFFFFFFFFFF001FFFFFFFFFFF0
FFFFFFFFFFF001FFFFFFFFFFF0
FFFFFFFFFFF001FFFFFFFFFFF0
FFFFFFFFFFF001FFFFFFFFFFF0
7FFFFFFFFFF000FFFFFFFFFFE0
7FFFFFFFFFF000FFFFFFFFFFE0
7FFFFFFFFFF000FFFFFFFFFFE0
3FFFFFFFFFE0007FFFFFFFFFC0
3FFFFFFFFFE0007FFFFFFFFFC0
1FFFFFFFFFC0003FFFFFFFFF80
0FFFFFFFFF80001FFFFFFFFF00
07FFFFFFFF00000FFFFFFFFE00
01FFFFFFFC000007FFFFFFFC00
007FFFFFF0000000FFFFFFE000
ENDCHAR
STARTCHAR 0042
ENCODING 66
SWIDTH 636 0
DWIDTH 121 0
BBX 100 154 11 0
BITMAP
007FFFFFFFFFFFFFFFF8000000
01FFFFFFFFFFFFFFFFFF800000
07FFFFFFFFFFFFFFFFFFF00000
0FFFFFFFFFFFFFFFFFFFF80000
1FFFFFFFFFFFFFFFFFFFFE0000
3FFFFFFFFFFFFFFFFFFFFF8000
3FFFFFFFFFFFFFFFFFFFFFC000
7FFFFFFFFFFFFFFFFFFFFFE000
7FFFFFFFFFFFFFFFFFFFFFF000
7FFFFFFFFFFFFFFFFFFFFFF800
7FFFFFFFFFFFFFFFFFFFFFFC00
FFFFFFFFFFFFFFFFFFFFFFFC00
FFFFFFFFFFFFFFFFFFFFFFFE00
FFFFFFFFFFFFFFFFFFFFFFFF00
FFFFFFFFFFFFFFFFFFFFFFFF00
FFFFFFFFFFFFFFFFFFFFFFFF80
FFFFFFFFFFFFFFFFFFFFFFFF80
FFFFFFFFFFFFFFFFFFFFFFFFC0
FFFFFFFFFFFFFFFFFFFFFFFFC0
FFFFFFFFFFFFFFFFFFFFFFFFE0
FFFFFFFFFFFFFFFFFFFFFFFFE0
FFFFFFFFFFFFFFFFFFFFFFFFE0
FFFFFFFFFFFFFFFFFFFFFFFFE0
FFFFFFFFFFFFFFFFFFFFFFFFF0
FFFFFFFFFFFFFFFFFFFFFFFFF0
FFFFFFFFFFFFFFFFFFFFFFFFF0
FFFFFFFFFFFFFFFFFFFFFFFFF0
FFFFFFFFFFFFFFFFFFFFFFFFF0
FFFFFFFFFFFFFFFFFFFFFFFFF0
FFFFFFFFFFFE07FFFFFFFFFFF0
FFFFFFFFFFF001FFFFFFFFFFF0
FFFFFFFFFFE0007FFFFFFFFFF0
FFFFFFFFFFC0003FFFFFFFFFF0
FFFFFFFFFF80001FFFFFFFFFF0
FFFFFFFFFF80001FFFFFFFFFF0
FFFFFFFFFF00000FFFFFFFFFF0
FFFFFFFFFF00000FFFFFFFFFF0
FFFFFFFFFF00000FFFFFFFFFF0
FFFFFFFFFE00000FFFFFFFFFF0
FFFFFFFFFE00000FFFFFFFFFF0
FFFFFFFFFE00000FFFFFFFFFF0
FFFFFFFFFF00000FFFFFFFFFF0
FFFFFFFFFF00000FFFFFFFFFE0
FFFFFFFFFF00000FFFFFFFFFE0
FFFFFFFFFF80001FFFFFFFFFE0
FFFFFFFFFFC0001FFFFFFFFFE0
FFFFFFFFFFC0003FFFFFFFFFC0
FFFFFFFFFFF000FFFFFFFFFFC0
FFFFFFFFFFF001FFFFFFFFFFC0
FFFFFFFFFFF001FFFFFFFFFF80
FFFFFFFFFFF001FFFFFFFFFF80
FFFFFFFFFFF001FFFFFFFFFF00
FFFFFFFFFFF001FFFFFFFFFE00
FFFFFFFFFFF001FFFFFFFFFE00
FFFFFFFFFFF001FFFFFFFFFC00
FFFFFFFFFFF001FFFFFFFFF800
FFFFFFFFFFF001FFFFFFFFF000
FFFFFFFFFFF001FFFFFFFFE000
FFFFFFFFFFF001FFFFFFFFC000
FFFFFFFFFFF001FFFFFFFF8000
FFFFFFFFFFF001FFFFFFFE0000
FFFFFFFFFFF001FFFFFFFC0000
FFFFFFFFFFF001FFFFFFF00000
FFFFFFFFFFF001FFFFFF800000
FFFFFFFFFFF001FFFFFC000000
FFFFFFFFFFF000000000000000
FFFFFFFFFFF000000000000000
FFFFFFFFFFF000000000000000
FFFFFFFFFFF000000000000000
FFFFFFFFFFF000000000000000
FFFFFFFFFFF000000000000000
FFFFFFFFFFF000000000000000
FFFFFFFFFFF000000000000000
FFFFFFFFFFF000000000000000
FFFFFFFFFFF000000000000000
FFFFFFFFFFF001FFFFF8000000
FFFFFFFFFFF001FFFFFF800000
FFFFFFFFFFF001FFFFFFF00000
FFFFFFFFFFF001FFFFFFFC0000
FFFFFFFFFFF001FFFFFFFE0000
FFFFFFFFFFF001FFFFFFFF8000
FFFFFFFFFFF001FFFFFFFFC000
FFFFFFFFFFF001FFFFFFFFE000
FFFFFFFFFFF001FFFFFFFFF000
FFFFFFFFFFF001FFFFFFFFF800
FFFFFFFFFFF001FFFFFFFFFC00
FFFFFFFFFFF001FFFFFFFFFE00
FFFFFFFFFFF001FFFFFFFFFE00
FFFFFFFFFFF001FFFFFFFFFF00
FFFFFFFFFFF001FFFFFFFFFF00
FFFFFFFFFFF001FFFFFFFFFF80
FFFFFFFFFFF001FFFFFFFFFF80
FFFFFFFFFFF001FFFFFFFFFFC0
FFFFFFFFFFF001FFFFFFFFFFC0
FFFFFFFFFFF001FFFFFFFFFFE0
FFFFFFFFFFF001FFFFFFFFFFE0
FFFFFFFFFFF001FFFFFFFFFFE0
FFFFFFFFFFF001FFFFFFFFFFE0
FFFFFFFFFFF001FFFFFFFFFFF0
FFFFFFFFFFF001FFFFFFFFFFF0
FFFFFFFFFFF001FFFFFFFFFFF0
FFFFFFFFFFF001FFFFFFFFFFF0
FFFFFFFFFFF001FFFFFFFFFFF0
FFFFFFFFFFF001FFFFFFFFFFF0
FFFFFFFFFFF001FFFFFFFFFFF0
FFFFFFFFFFF001FFFFFFFFFFF0
FFFFFFFFFFF000FFFFFFFFFFF0
FFFFFFFFFFE0003FFFFFFFFFF0
FFFFFFFFFFC0003FFFFFFFFFF0
FFFFFFFFFF80001FFFFFFFFFF0
FFFFFFFFFF00000FFFFFFFFFF0
FFFFFFFFFF00000FFFFFFFFFF0
FFFFFFFFFF00000FFFFFFFFFF0
FFFFFFFFFE00000FFFFFFFFFF0
FFFFFFFFFE00000FFFFFFFFFF0
FFFFFFFFFE00000FFFFFFFFFF0
FFFFFFFFFF00000FFFFFFFFFF0
FFFFFFFFFF00000FFFFFFFFFF0
FFFFFFFFFF00000FFFFFFFFFF0
FFFFFFFFFF80001FFFFFFFFFF0
FFFFFFFFFF80001FFFFFFFFFF0
FFFFFFFFFFC0003FFFFFFFFFF0
FFFFFFFFFFE0007FFFFFFFFFF0
FFFFFFFFFFF000FFFFFFFFFFF0
FFFFFFFFFFFE07FFFFFFFFFFF0
FFFFFFFFFFFFFFFFFFFFFFFFF0
FFFFFFFFFFFFFFFFFFFFFFFFF0
FFFFFFFFFFFFFFFFFFFFFFFFF0
FFFFFFFFFFFFFFFFFFFFFFFFF0
FFFFFFFFFFFFFFFFFFFFFFFFF0
FFFFFFFFFFFFFFFFFFFFFFFFF0
FFFFFFFFFFFFFFFFFFFFFFFFE0
FFFFFFFFFFFFFFFFFFFFFFFFE0
FFFFFFFFFFFFFFFFFFFFFFFFE0
FFFFFFFFFFFFFFFFFFFFFFFFE0
FFFFFFFFFFFFFFFFFFFFFFFFC0
FFFFFFFFFFFFFFFFFFFFFFFFC0
FFFFFFFFFFFFFFFFFFFFFFFF80
FFFFFFFFFFFFFFFFFFFFFFFF80
FFFFFFFFFFFFFFFFFFFFFFFF00
FFFFFFFFFFFFFFFFFFFFFFFF00
FFFFFFFFFFFFFFFFFFFFFFFE00
FFFFFFFFFFFFFFFFFFFFFFFE00
FFFFFFFFFFFFFFFFFFFFFFFC00
7FFFFFFFFFFFFFFFFFFFFFF800
7FFFFFFFFFFFFFFFFFFFFFF000
7FFFFFFFFFFFFFFFFFFFFFE000
3FFFFFFFFFFFFFFFFFFFFFC000
3FFFFFFFFFFFFFFFFFFFFF8000
1FFFFFFFFFFFFFFFFFFFFE0000
0FFFFFFFFFFFFFFFFFFFFC0000
07FFFFFFFFFFFFFFFFFFF00000
01FFFFFFFFFFFFFFFFFF800000
007FFFFFFFFFFFFFFFF8000000
ENDCHAR
STARTCHAR 0043
ENCODING 67
SWIDTH 621 0
DWIDTH 118 0
BBX 100 154 11 0
BITMAP
000001FFFFFFFFFFFFF8000000
00001FFFFFFFFFFFFFFF800000
00007FFFFFFFFFFFFFFFF00000
0001FFFFFFFFFFFFFFFFFC0000
0007FFFFFFFFFFFFFFFFFE0000
000FFFFFFFFFFFFFFFFFFF8000
003FFFFFFFFFFFFFFFFFFFC000
007FFFFFFFFFFFFFFFFFFFE000
00FFFFFFFFFFFFFFFFFFFFF000
01FFFFFFFFFFFFFFFFFFFFF800
01FFFFFFFFFFFFFFFFFFFFFC00
03FFFFFFFFFFFFFFFFFFFFFC00
07FFFFFFFFFFFFFFFFFFFFFE00
0FFFFFFFFFFFFFFFFFFFFFFF00
0FFFFFFFFFFFFFFFFFFFFFFF00
1FFFFFFFFFFFFFFFFFFFFFFF80
1FFFFFFFFFFFFFFFFFFFFFFF80
3FFFFFFFFFFFFFFFFFFFFFFFC0
3FFFFFFFFFFFFFFFFFFFFFFFC0
3FFFFFFFFFFFFFFFFFFFFFFFE0
7FFFFFFFFFFFFFFFFFFFFFFFE0
7FFFFFFFFFFFFFFFFFFFFFFFE0
7FFFFFFFFFFFFFFFFFFFFFFFE0
7FFFFFFFFFFFFFFFFFFFFFFFE0
7FFFFFFFFFFFFFFFFFFFFFFFF0
7FFFFFFFFFFFFFFFFFFFFFFFF0
FFFFFFFFFFFFFFFFFFFFFFFFF0
FFFFFFFFFFFFFFFFFFFFFFFFF0
FFFFFFFFFFFFFFFFFFFFFFFFF0
FFFFFFFFFFFC03FFFFFFFFFFF0
FFFFFFFFFFF000FFFFFFFFFFF0
FFFFFFFFFFE0007FFFFFFFFFF0
FFFFFFFFFFC0003FFFFFFFFFF0
FFFFFFFFFF80001FFFFFFFFFF0
FFFFFFFFFF00001FFFFFFFFFF0
FFFFFFFFFF00000FFFFFFFFFF0
FFFFFFFFFF00000FFFFFFFFFF0
FFFFFFFFFE00000FFFFFFFFFF0
FFFFFFFFFE00000FFFFFFFFFF0
FFFFFFFFFE00000FFFFFFFFFE0
FFFFFFFFFF00000FFFFFFFFFE0
FFFFFFFFFF00000FFFFFFFFFC0
FFFFFFFFFF00000FFFFFFFFFC0
FFFFFFFFFF00001FFFFFFFFF80
FFFFFFFFFF80001FFFFFFFFF00
FFFFFFFFFFC0000FFFFFFFFE00
FFFFFFFFFFE00007FFFFFFFC00
FFFFFFFFFFF00000FFFFFFE000
FFFFFFFFFFF000000000000000
FFFFFFFFFFF000000000000000
FFFFFFFFFFF000000000000000
FFFFFFFFFFF000000000000000
FFFFFFFFFFF000000000000000
FFFFFFFFFFF000000000000000
FFFFFFFFFFF000000000000000
FFFFFFFFFFF000000000000000
FFFFFFFFFFF000000000000000
FFFFFFFFFFF000000000000000
FFFFFFFFFFF000000000000000
FFFFFFFFFFF000000000000000
FFFFFFFFFFF000000000000000
FFFFFFFFFFF000000000000000
FFFFFFFFFFF000000000000000
FFFFFFFFFFF000000000000000
FFFFFFFFFFF000000000000000
FFFFFFFFFFF000000000000000
FFFFFFFFFFF000000000000000
FFFFFFFFFFF000000000000000
FFFFFFFFFFF000000000000000
FFFFFFFFFFF000000000000000
FFFFFFFFFFF000000000000000
FFFFFFFFFFF000000000000000
FFFFFFFFFFF000000000000000
FFFFFFFFFFF000000000000000
FFFFFFFFFFF000000000000000
FFFFFFFFFFF000000000000000
FFFFFFFFFFF000000000000000
FFFFFFFFFFF000000000000000
FFFFFFFFFFF000000000000000
FFFFFFFFFFF000000000000000
FFFFFFFFFFF000000000000000
FFFFFFFFFFF000000000000000
FFFFFFFFFFF000000000000000
FFFFFFFFFFF000000000000000
FFFFFFFFFFF000000000000000
FFFFFFFFFFF000000000000000
FFFFFFFFFFF000000000000000
FFFFFFFFFFF000000000000000
FFFFFFFFFFF000000000000000
FFFFFFFFFFF000000000000000
FFFFFFFFFFF000000000000000
FFFFFFFFFFF000000000000000
FFFFFFFFFFF000000000000000
FFFFFFFFFFF000000000000000
FFFFFFFFFFF000000000000000
FFFFFFFFFFF000000000000000
FFFFFFFFFFF000000000000000
FFFFFFFFFFF000000000000000
FFFFFFFFFFF000000000000000
FFFFFFFFFFF000000000000000
FFFFFFFFFFF000000000000000
FFFFFFFFFFF000000000000000
FFFFFFFFFFF000000000000000
FFFFFFFFFFF000000000000000
FFFFFFFFFFF000000000000000
FFFFFFFFFFF00000FFFFFFE000
FFFFFFFFFFF00003FFFFFFF800
FFFFFFFFFFE0000FFFFFFFFE00
FFFFFFFFFFC0001FFFFFFFFF00
FFFFFFFFFF80001FFFFFFFFF80
FFFFFFFFFF00001FFFFFFFFFC0
FFFFFFFFFF00000FFFFFFFFFC0
FFFFFFFFFF00000FFFFFFFFFE0
FFFFFFFFFE00000FFFFFFFFFE0
FFFFFFFFFE00000FFFFFFFFFE0
FFFFFFFFFE00000FFFFFFFFFF0
FFFFFFFFFF00000FFFFFFFFFF0
FFFFFFFFFF00000FFFFFFFFFF0
FFFFFFFFFF00000FFFFFFFFFF0
FFFFFFFFFF00001FFFFFFFFFF0
FFFFFFFFFF80001FFFFFFFFFF0
FFFFFFFFFFC0003FFFFFFFFFF0
FFFFFFFFFFE0007FFFFFFFFFF0
FFFFFFFFFFF000FFFFFFFFFFF0
FFFFFFFFFFFC03FFFFFFFFFFF0
FFFFFFFFFFFFFFFFFFFFFFFFF0
FFFFFFFFFFFFFFFFFFFFFFFFF0
FFFFFFFFFFFFFFFFFFFFFFFFF0
FFFFFFFFFFFFFFFFFFFFFFFFF0
7FFFFFFFFFFFFFFFFFFFFFFFF0
7FFFFFFFFFFFFFFFFFFFFFFFE0
7FFFFFFFFFFFFFFFFFFFFFFFE0
7FFFFFFFFFFFFFFFFFFFFFFFE0
7FFFFFFFFFFFFFFFFFFFFFFFE0
3FFFFFFFFFFFFFFFFFFFFFFFC0
3FFFFFFFFFFFFFFFFFFFFFFFC0
3FFFFFFFFFFFFFFFFFFFFFFFC0
1FFFFFFFFFFFFFFFFFFFFFFF80
1FFFFFFFFFFFFFFFFFFFFFFF80
0FFFFFFFFFFFFFFFFFFFFFFF00
0FFFFFFFFFFFFFFFFFFFFFFF00
07FFFFFFFFFFFFFFFFFFFFFE00
03FFFFFFFFFFFFFFFFFFFFFC00
01FFFFFFFFFFFFFFFFFFFFFC00
01FFFFFFFFFFFFFFFFFFFFF800
00FFFFFFFFFFFFFFFFFFFFF000
007FFFFFFFFFFFFFFFFFFFE000
001FFFFFFFFFFFFFFFFFFFC000
000FFFFFFFFFFFFFFFFFFF8000
0007FFFFFFFFFFFFFFFFFE0000
0001FFFFFFFFFFFFFFFFFC0000
00007FFFFFFFFFFFFFFFF00000
00001FFFFFFFFFFFFFFF800000
000001FFFFFFFFFFFFF8000000
ENDCHAR
STARTCHAR 0044
ENCODING 68
SWIDTH 642 0
DWIDTH 122 0
BBX 100 154 11 0
BITMAP
007FFFFFFFFFFFFFFFF8000000
01FFFFFFFFFFFFFFFFFF800000
07FFFFFFFFFFFFFFFFFFF00000
0FFFFFFFFFFFFFFFFFFFF80000
1FFFFFFFFFFFFFFFFFFFFE0000
3FFFFFFFFFFFFFFFFFFFFF8000
3FFFFFFFFFFFFFFFFFFFFFC000
7FFFFFFFFFFFFFFFFFFFFFE000
7FFFFFFFFFFFFFFFFFFFFFF000
7FFFFFFFFFFFFFFFFFFFFFF800
7FFFFFFFFFFFFFFFFFFFFFFC00
FFFFFFFFFFFFFFFFFFFFFFFE00
FFFFFFFFFFFFFFFFFFFFFFFE00
FFFFFFFFFFFFFFFFFFFFFFFF00
FFFFFFFFFFFFFFFFFFFFFFFF00
FFFFFFFFFFFFFFFFFFFFFFFF80
FFFFFFFFFFFFFFFFFFFFFFFF80
FFFFFFFFFFFFFFFFFFFFFFFFC0
FFFFFFFFFFFFFFFFFFFFFFFFC0
FFFFFFFFFFFFFFFFFFFFFFFFE0
FFFFFFFFFFFFFFFFFFFFFFFFE0
FFFFFFFFFFFFFFFFFFFFFFFFE0
FFFFFFFFFFFFFFFFFFFFFFFFE0
FFFFFFFFFFFFFFFFFFFFFFFFF0
FFFFFFFFFFFFFFFFFFFFFFFFF0
FFFFFFFFFFFFFFFFFFFFFFFFF0
FFFFFFFFFFFFFFFFFFFFFFFFF0
FFFFFFFFFFFFFFFFFFFFFFFFF0
FFFFFFFFFFFFFFFFFFFFFFFFF0
FFFFFFFFFFFC03FFFFFFFFFFF0
FFFFFFFFFFF000FFFFFFFFFFF0
FFFFFFFFFFE0007FFFFFFFFFF0
FFFFFFFFFFC0003FFFFFFFFFF0
FFFFFFFFFF80001FFFFFFFFFF0
FFFFFFFFFF00001FFFFFFFFFF0
FFFFFFFFFF00000FFFFFFFFFF0
FFFFFFFFFF00000FFFFFFFFFF0
FFFFFFFFFE00000FFFFFFFFFF0
FFFFFFFFFE00000FFFFFFFFFF0
FFFFFFFFFE00000FFFFFFFFFF0
FFFFFFFFFF00000FFFFFFFFFF0
FFFFFFFFFF00000FFFFFFFFFF0
FFFFFFFFFF00000FFFFFFFFFF0
FFFFFFFFFF00001FFFFFFFFFF0
FFFFFFFFFF80001FFFFFFFFFF0
FFFFFFFFFFC0003FFFFFFFFFF0
FFFFFFFFFFE0007FFFFFFFFFF0
FFFFFFFFFFF000FFFFFFFFFFF0
FFFFFFFFFFF001FFFFFFFFFFF0
FFFFFFFFFFF001FFFFFFFFFFF0
FFFFFFFFFFF001FFFFFFFFFFF0
FFFFFFFFFFF001FFFFFFFFFFF0
FFFFFFFFFFF001FFFFFFFFFFF0
FFFFFFFFFFF001FFFFFFFFFFF0
FFFFFFFFFFF001FFFFFFFFFFF0
FFFFFFFFFFF001FFFFFFFFFFF0
FFFFFFFFFFF001FFFFFFFFFFF0
FFFFFFFFFFF001FFFFFFFFFFF0
FFFFFFFFFFF001FFFFFFFFFFF0
FFFFFFFFFFF001FFFFFFFFFFF0
FFFFFFFFFFF001FFFFFFFFFFF0
FFFFFFFFFFF001FFFFFFFFFFF0
FFFFFFFFFFF001FFFFFFFFFFF0
FFFFFFFFFFF001FFFFFFFFFFF0
FFFFFFFFFFF001FFFFFFFFFFF0
FFFFFFFFFFF001FFFFFFFFFFF0
FFFFFFFFFFF001FFFFFFFFFFF0
FFFFFFFFFFF001FFFFFFFFFFF0
FFFFFFFFFFF001FFFFFFFFFFF0
FFFFFFFFFFF001FFFFFFFFFFF0
FFFFFFFFFFF001FFFFFFFFFFF0
FFFFFFFFFFF001FFFFFFFFFFF0
FFFFFFFFFFF001FFFFFFFFFFF0
FFFFFFFFFFF001FFFFFFFFFFF0
FFFFFFFFFFF001FFFFFFFFFFF0
FFFFFFFFFFF001FFFFFFFFFFF0
FFFFFFFFFFF001FFFFFFFFFFF0
FFFFFFFFFFF001FFFFFFFFFFF0
FFFFFFFFFFF001FFFFFFFFFFF0
FFFFFFFFFFF001FFFFFFFFFFF0
FFFFFFFFFFF001FFFFFFFFFFF0
FFFFFFFFFFF001FFFFFFFFFFF0
FFFFFFFFFFF001FFFFFFFFFFF0
FFFFFFFFFFF001FFFFFFFFFFF0
FFFFFFFFFFF001FFFFFFFFFFF0
FFFFFFFFFFF001FFFFFFFFFFF0
FFFFFFFFFFF001FFFFFFFFFFF0
FFFFFFFFFFF001FFFFFFFFFFF0
FFFFFFFFFFF001FFFFFFFFFFF0
FFFFFFFFFFF001FFFFFFFFFFF0
FFFFFFFFFFF001FFFFFFFFFFF0
FFFFFFFFFFF001FFFFFFFFFFF0
FFFFFFFFFFF001FFFFFFFFFFF0
FFFFFFFFFFF001FFFFFFFFFFF0
FFFFFFFFFFF001FFFFFFFFFFF0
FFFFFFFFFFF001FFFFFFFFFFF0
FFFFFFFFFFF001FFFFFFFFFFF0
FFFFFFFFFFF001FFFFFFFFFFF0
FFFFFFFFFFF001FFFFFFFFFFF0
FFFFFFFFFFF001FFFFFFFFFFF0
FFFFFFFFFFF001FFFFFFFFFFF0
FFFFFFFFFFF001FFFFFFFFFFF0
FFFFFFFFFFF001FFFFFFFFFFF0
FFFFFFFFFFF001FFFFFFFFFFF0
FFFFFFFFFFF001FFFFFFFFFFF0
FFFFFFFFFFF001FFFFFFFFFFF0
FFFFFFFFFFF001FFFFFFFFFFF0
FFFFFFFFFFE0007FFFFFFFFFF0
FFFFFFFFFFC0003FFFFFFFFFF0
FFFFFFFFFF80001FFFFFFFFFF0
FFFFFFFFFF80001FFFFFFFFFF0
FFFFFFFFFF00000FFFFFFFFFF0
FFFFFFFFFF00000FFFFFFFFFF0
FFFFFFFFFF00000FFFFFFFFFF0
FFFFFFFFFE00000FFFFFFFFFF0
FFFFFFFFFE00000FFFFFFFFFF0
FFFFFFFFFE00000FFFFFFFFFF0
FFFFFFFFFF00000FFFFFFFFFF0
FFFFFFFFFF00000FFFFFFFFFF0
FFFFFFFFFF00000FFFFFFFFFF0
FFFFFFFFFF80001FFFFFFFFFF0
FFFFFFFFFF80003FFFFFFFFFF0
FFFFFFFFFFC0003FFFFFFFFFF0
FFFFFFFFFFE000FFFFFFFFFFF0
FFFFFFFFFFF801FFFFFFFFFFF0
FFFFFFFFFFFF0FFFFFFFFFFFF0
FFFFFFFFFFFFFFFFFFFFFFFFF0
FFFFFFFFFFFFFFFFFFFFFFFFF0
FFFFFFFFFFFFFFFFFFFFFFFFF0
FFFFFFFFFFFFFFFFFFFFFFFFF0
FFFFFFFFFFFFFFFFFFFFFFFFF0
FFFFFFFFFFFFFFFFFFFFFFFFE0
FFFFFFFFFFFFFFFFFFFFFFFFE0
FFFFFFFFFFFFFFFFFFFFFFFFE0
FFFFFFFFFFFFFFFFFFFFFFFFE0
FFFFFFFFFFFFFFFFFFFFFFFFC0
FFFFFFFFFFFFFFFFFFFFFFFFC0
FFFFFFFFFFFFFFFFFFFFFFFF80
FFFFFFFFFFFFFFFFFFFFFFFF80
FFFFFFFFFFFFFFFFFFFFFFFF00
FFFFFFFFFFFFFFFFFFFFFFFF00
FFFFFFFFFFFFFFFFFFFFFFFE00
FFFFFFFFFFFFFFFFFFFFFFFE00
FFFFFFFFFFFFFFFFFFFFFFFC00
7FFFFFFFFFFFFFFFFFFFFFF800
7FFFFFFFFFFFFFFFFFFFFFF000
7FFFFFFFFFFFFFFFFFFFFFE000
3FFFFFFFFFFFFFFFFFFFFFC000
3FFFFFFFFFFFFFFFFFFFFF8000
1FFFFFFFFFFFFFFFFFFFFE0000
0FFFFFFFFFFFFFFFFFFFFC0000
07FFFFFFFFFFFFFFFFFFF00000
01FFFFFFFFFFFFFFFFFF800000
007FFFFFFFFFFFFFFFF8000000
ENDCHAR
STARTCHAR 0045
ENCODING 69
SWIDTH 642 0
DWIDTH 122 0
BBX 100 154 11 0
BITMAP
007FFFFFFFFFFFFFFFFFFFE000
01FFFFFFFFFFFFFFFFFFFFF800
07FFFFFFFFFFFFFFFFFFFFFE00
0FFFFFFFFFFFFFFFFFFFFFFF00
1FFFFFFFFFFFFFFFFFFFFFFF80
3FFFFFFFFFFFFFFFFFFFFFFFC0
3FFFFFFFFFFFFFFFFFFFFFFFC0
7FFFFFFFFFFFFFFFFFFFFFFFE0
7FFFFFFFFFFFFFFFFFFFFFFFE0
7FFFFFFFFFFFFFFFFFFFFFFFE0
7FFFFFFFFFFFFFFFFFFFFFFFF0
FFFFFFFFFFFFFFFFFFFFFFFFF0
FFFFFFFFFFFFFFFFFFFFFFFFF0
FFFFFFFFFFFFFFFFFFFFFFFFF0
FFFFFFFFFFFFFFFFFFFFFFFFF0
FFFFFFFFFFFFFFFFFFFFFFFFF0
FFFFFFFFFFFFFFFFFFFFFFFFF0
FFFFFFFFFFFFFFFFFFFFFFFFF0
FFFFFFFFFFFFFFFFFFFFFFFFF0
FFFFFFFFFFFFFFFFFFFFFFFFF0
FFFFFFFFFFFFFFFFFFFFFFFFF0
FFFFFFFFFFFFFFFFFFFFFFFFF0
FFFFFFFFFFFFFFFFFFFFFFFFF0
FFFFFFFFFFFFFFFFFFFFFFFFF0
FFFFFFFFFFFFFFFFFFFFFFFFF0
FFFFFFFFFFFFFFFFFFFFFFFFF0
FFFFFFFFFFFFFFFFFFFFFFFFF0
FFFFFFFFFFFFFFFFFFFFFFFFF0
FFFFFFFFFFFFFFFFFFFFFFFFF0
FFFFFFFFFFFE07FFFFFFFFFFF0
FFFFFFFFFFF001FFFFFFFFFFF0
FFFFFFFFFFE0007FFFFFFFFFF0
FFFFFFFFFFC0003FFFFFFFFFF0
FFFFFFFFFF80001FFFFFFFFFF0
FFFFFFFFFF80001FFFFFFFFFF0
FFFFFFFFFF00000FFFFFFFFFF0
FFFFFFFFFF00000FFFFFFFFFF0
FFFFFFFFFF00000FFFFFFFFFF0
FFFFFFFFFE00000FFFFFFFFFF0
FFFFFFFFFE00000FFFFFFFFFF0
FFFFFFFFFE00000FFFFFFFFFE0
FFFFFFFFFE00000FFFFFFFFFE0
FFFFFFFFFE00000FFFFFFFFFE0
FFFFFFFFFE00001FFFFFFFFFC0
FFFFFFFFFE00003FFFFFFFFF80
FFFFFFFFFE00001FFFFFFFFF00
FFFFFFFFFE00000FFFFFFFFE00
FFFFFFFFFE000007FFFFFFFC00
FFFFFFFFFE000001FFFFFFF000
FFFFFFFFFE0000000000000000
FFFFFFFFFE0000000000000000
FFFFFFFFFF0000000000000000
FFFFFFFFFF0000000000000000
FFFFFFFFFF0000000000000000
FFFFFFFFFF8000000000000000
FFFFFFFFFF8000000000000000
FFFFFFFFFFC000000000000000
FFFFFFFFFFE000000000000000
FFFFFFFFFFF000000000000000
FFFFFFFFFFFE00000000000000
FFFFFFFFFFFFFFFFFFFFFF8000
FFFFFFFFFFFFFFFFFFFFFFE000
FFFFFFFFFFFFFFFFFFFFFFF000
FFFFFFFFFFFFFFFFFFFFFFF800
FFFFFFFFFFFFFFFFFFFFFFFC00
FFFFFFFFFFFFFFFFFFFFFFFE00
FFFFFFFFFFFFFFFFFFFFFFFE00
FFFFFFFFFFFFFFFFFFFFFFFE00
FFFFFFFFFFFFFFFFFFFFFFFF00
FFFFFFFFFFFFFFFFFFFFFFFF00
FFFFFFFFFFFFFFFFFFFFFFFF00
FFFFFFFFFFFFFFFFFFFFFFFF00
FFFFFFFFFFFFFFFFFFFFFFFF00
FFFFFFFFFFFFFFFFFFFFFFFF00
FFFFFFFFFFFFFFFFFFFFFFFF00
FFFFFFFFFFFFFFFFFFFFFFFF00
FFFFFFFFFFFFFFFFFFFFFFFF00
FFFFFFFFFFFFFFFFFFFFFFFF00
FFFFFFFFFFFFFFFFFFFFFFFF00
FFFFFFFFFFFFFFFFFFFFFFFF00
FFFFFFFFFFFFFFFFFFFFFFFF00
FFFFFFFFFFFFFFFFFFFFFFFF00
FFFFFFFFFFFFFFFFFFFFFFFF00
FFFFFFFFFFFFFFFFFFFFFFFF00
FFFFFFFFFFFFFFFFFFFFFFFF00
FFFFFFFFFFFFFFFFFFFFFFFF00
FFFFFFFFFFFFFFFFFFFFFFFE00
FFFFFFFFFFFFFFFFFFFFFFFE00
FFFFFFFFFFFFFFFFFFFFFFFC00
FFFFFFFFFFFFFFFFFFFFFFF800
FFFFFFFFFFFFFFFFFFFFFFF000
FFFFFFFFFFFFFFFFFFFFFFE000
FFFFFFFFFFFFFFFFFFFFFF8000
FFFFFFFFFFFE00000000000000
FFFFFFFFFFF800000000000000
FFFFFFFFFFE000000000000000
FFFFFFFFFFC000000000000000
FFFFFFFFFF8000000000000000
FFFFFFFFFF8000000000000000
FFFFFFFFFF0000000000000000
FFFFFFFFFF0000000000000000
FFFFFFFFFF0000000000000000
FFFFFFFFFE0000000000000000
FFFFFFFFFE000000FFFFFFE000
FFFFFFFFFE000003FFFFFFFC00
FFFFFFFFFE00000FFFFFFFFE00
FFFFFFFFFE00001FFFFFFFFF00
FFFFFFFFFE00003FFFFFFFFF80
FFFFFFFFFE00007FFFFFFFFFC0
FFFFFFFFFE00003FFFFFFFFFC0
FFFFFFFFFE00001FFFFFFFFFE0
FFFFFFFFFE00000FFFFFFFFFE0
FFFFFFFFFE00000FFFFFFFFFE0
FFFFFFFFFE00000FFFFFFFFFF0
FFFFFFFFFE00000FFFFFFFFFF0
FFFFFFFFFE00000FFFFFFFFFF0
FFFFFFFFFE00000FFFFFFFFFF0
FFFFFFFFFF00000FFFFFFFFFF0
FFFFFFFFFF00000FFFFFFFFFF0
FFFFFFFFFF00000FFFFFFFFFF0
FFFFFFFFFF80001FFFFFFFFFF0
FFFFFFFFFF80003FFFFFFFFFF0
FFFFFFFFFFC0003FFFFFFFFFF0
FFFFFFFFFFE0007FFFFFFFFFF0
FFFFFFFFFFF001FFFFFFFFFFF0
FFFFFFFFFFFE07FFFFFFFFFFF0
FFFFFFFFFFFFFFFFFFFFFFFFF0
FFFFFFFFFFFFFFFFFFFFFFFFF0
FFFFFFFFFFFFFFFFFFFFFFFFF0
FFFFFFFFFFFFFFFFFFFFFFFFF0
FFFFFFFFFFFFFFFFFFFFFFFFF0
FFFFFFFFFFFFFFFFFFFFFFFFF0
FFFFFFFFFFFFFFFFFFFFFFFFF0
FFFFFFFFFFFFFFFFFFFFFFFFF0
FFFFFFFFFFFFFFFFFFFFFFFFF0
FFFFFFFFFFFFFFFFFFFFFFFFF0
FFFFFFFFFFFFFFFFFFFFFFFFF0
FFFFFFFFFFFFFFFFFFFFFFFFF0
FFFFFFFFFFFFFFFFFFFFFFFFF0
FFFFFFFFFFFFFFFFFFFFFFFFF0
FFFFFFFFFFFFFFFFFFFFFFFFF0
FFFFFFFFFFFFFFFFFFFFFFFFF0
FFFFFFFFFFFFFFFFFFFFFFFFF0
FFFFFFFFFFFFFFFFFFFFFFFFF0
7FFFFFFFFFFFFFFFFFFFFFFFE0
7FFFFFFFFFFFFFFFFFFFFFFFE0
7FFFFFFFFFFFFFFFFFFFFFFFE0
3FFFFFFFFFFFFFFFFFFFFFFFC0
3FFFFFFFFFFFFFFFFFFFFFFFC0
1FFFFFFFFFFFFFFFFFFFFFFF80
0FFFFFFFFFFFFFFFFFFFFFFF00
07FFFFFFFFFFFFFFFFFFFFFE00
01FFFFFFFFFFFFFFFFFFFFF800
007FFFFFFFFFFFFFFFFFFFE000
ENDCHAR
STARTCHAR 0046
ENCODING 70
SWIDTH 621 0
DWIDTH 118 0
BBX 100 154 11 0
BITMAP
007FFFFFFFFFFFFFFFFFFFE000
01FFFFFFFFFFFFFFFFFFFFF800
07FFFFFFFFFFFFFFFFFFFFFE00
0FFFFFFFFFFFFFFFFFFFFFFF00
1FFFFFFFFFFFFFFFFFFFFFFF80
3FFFFFFFFFFFFFFFFFFFFFFFC0
3FFFFFFFFFFFFFFFFFFFFFFFC0
7FFFFFFFFFFFFFFFFFFFFFFFE0
7FFFFFFFFFFFFFFFFFFFFFFFE0
7FFFFFFFFFFFFFFFFFFFFFFFE0
7FFFFFFFFFFFFFFFFFFFFFFFF0
FFFFFFFFFFFFFFFFFFFFFFFFF0
FFFFFFFFFFFFFFFFFFFFFFFFF0
FFFFFFFFFFFFFFFFFFFFFFFFF0
FFFFFFFFFFFFFFFFFFFFFFFFF0
FFFFFFFFFFFFFFFFFFFFFFFFF0
FFFFFFFFFFFFFFFFFFFFFFFFF0
FFFFFFFFFFFFFFFFFFFFFFFFF0
FFFFFFFFFFFFFFFFFFFFFFFFF0
FFFFFFFFFFFFFFFFFFFFFFFFF0
FFFFFFFFFFFFFFFFFFFFFFFFF0
FFFFFFFFFFFFFFFFFFFFFFFFF0
FFFFFFFFFFFFFFFFFFFFFFFFF0
FFFFFFFFFFFFFFFFFFFFFFFFF0
FFFFFFFFFFFFFFFFFFFFFFFFF0
FFFFFFFFFFFFFFFFFFFFFFFFF0
FFFFFFFFFFFFFFFFFFFFFFFFF0
FFFFFFFFFFFFFFFFFFFFFFFFF0
FFFFFFFFFFFFFFFFFFFFFFFFF0
FFFFFFFFFFFE07FFFFFFFFFFF0
FFFFFFFFFFF001FFFFFFFFFFF0
FFFFFFFFFFE0007FFFFFFFFFF0
FFFFFFFFFFC0003FFFFFFFFFF0
FFFFFFFFFF80003FFFFFFFFFF0
FFFFFFFFFF80001FFFFFFFFFF0
FFFFFFFFFF00000FFFFFFFFFF0
FFFFFFFFFF00000FFFFFFFFFF0
FFFFFFFFFF00000FFFFFFFFFF0
FFFFFFFFFE00000FFFFFFFFFE0
FFFFFFFFFE00000FFFFFFFFFE0
FFFFFFFFFE00000FFFFFFFFFE0
FFFFFFFFFE00000FFFFFFFFFC0
FFFFFFFFFE00000FFFFFFFFF80
FFFFFFFFFE00001FFFFFFFFF80
FFFFFFFFFE00001FFFFFFFFF00
FFFFFFFFFE000007FFFFFFFC00
FFFFFFFFFE000003FFFFFFF800
FFFFFFFFFE0000007FFFFFE000
FFFFFFFFFE0000000000000000
FFFFFFFFFF0000000000000000
FFFFFFFFFF0000000000000000
FFFFFFFFFF0000000000000000
FFFFFFFFFF8000000000000000
FFFFFFFFFF8000000000000000
FFFFFFFFFFC000000000000000
FFFFFFFFFFE000000000000000
FFFFFFFFFFF000000000000000
FFFFFFFFFFFC00000000000000
FFFFFFFFFFFFFFFFFFFFFF8000
FFFFFFFFFFFFFFFFFFFFFFE000
FFFFFFFFFFFFFFFFFFFFFFF000
FFFFFFFFFFFFFFFFFFFFFFF800
FFFFFFFFFFFFFFFFFFFFFFFC00
FFFFFFFFFFFFFFFFFFFFFFFE00
FFFFFFFFFFFFFFFFFFFFFFFE00
FFFFFFFFFFFFFFFFFFFFFFFF00
FFFFFFFFFFFFFFFFFFFFFFFF00
FFFFFFFFFFFFFFFFFFFFFFFF00
FFFFFFFFFFFFFFFFFFFFFFFF00
FFFFFFFFFFFFFFFFFFFFFFFF00
FFFFFFFFFFFFFFFFFFFFFFFF00
FFFFFFFFFFFFFFFFFFFFFFFF00
FFFFFFFFFFFFFFFFFFFFFFFF00
FFFFFFFFFFFFFFFFFFFFFFFF00
FFFFFFFFFFFFFFFFFFFFFFFF00
FFFFFFFFFFFFFFFFFFFFFFFF00
FFFFFFFFFFFFFFFFFFFFFFFF00
FFFFFFFFFFFFFFFFFFFFFFFF00
FFFFFFFFFFFFFFFFFFFFFFFF00
FFFFFFFFFFFFFFFFFFFFFFFF00
FFFFFFFFFFFFFFFFFFFFFFFF00
FFFFFFFFFFFFFFFFFFFFFFFF00
FFFFFFFFFFFFFFFFFFFFFFFF00
FFFFFFFFFFFFFFFFFFFFFFFE00
FFFFFFFFFFFFFFFFFFFFFFFE00
FFFFFFFFFFFFFFFFFFFFFFFE00
FFFFFFFFFFFFFFFFFFFFFFFC00
FFFFFFFFFFFFFFFFFFFFFFF800
FFFFFFFFFFFFFFFFFFFFFFF000
FFFFFFFFFFFFFFFFFFFFFFC000
FFFFFFFFFFFFFFFFFFFFFC0000
FFFFFFFFFFF800000000000000
FFFFFFFFFFF800000000000000
FFFFFFFFFFF800000000000000
FFFFFFFFFFF800000000000000
FFFFFFFFFFF800000000000000
FFFFFFFFFFF800000000000000
FFFFFFFFFFF800000000000000
FFFFFFFFFFF800000000000000
FFFFFFFFFFF800000000000000
FFFFFFFFFFF800000000000000
FFFFFFFFFFF800000000000000
FFFFFFFFFFF800000000000000
FFFFFFFFFFF800000000000000
FFFFFFFFFFF800000000000000
FFFFFFFFFFF800000000000000
FFFFFFFFFFF800000000000000
FFFFFFFFFFF800000000000000
FFFFFFFFFFF800000000000000
FFFFFFFFFFF800000000000000
FFFFFFFFFFF800000000000000
FFFFFFFFFFF800000000000000
FFFFFFFFFFF800000000000000
FFFFFFFFFFF800000000000000
FFFFFFFFFFF800000000000000
FFFFFFFFFFF800000000000000
FFFFFFFFFFF800000000000000
FFFFFFFFFFF800000000000000
FFFFFFFFFFF800000000000000
FFFFFFFFFFF800000000000000
FFFFFFFFFFF800000000000000
FFFFFFFFFFF800000000000000
FFFFFFFFFFF800000000000000
FFFFFFFFFFF800000000000000
FFFFFFFFFFF800000000000000
FFFFFFFFFFF800000000000000
FFFFFFFFFFF800000000000000
FFFFFFFFFFF800000000000000
FFFFFFFFFFF800000000000000
FFFFFFFFFFF800000000000000
FFFFFFFFFFF800000000000000
FFFFFFFFFFF800000000000000
FFFFFFFFFFF800000000000000
FFFFFFFFFFF800000000000000
FFFFFFFFFFF800000000000000
FFFFFFFFFFF800000000000000
FFFFFFFFFFF800000000000000
FFFFFFFFFFF800000000000000
FFFFFFFFFFF800000000000000
FFFFFFFFFFF800000000000000
FFFFFFFFFFF800000000000000
FFFFFFFFFFF800000000000000
FFFFFFFFFFF800000000000000
FFFFFFFFFFF800000000000000
7FFFFFFFFFF800000000000000
7FFFFFFFFFF000000000000000
7FFFFFFFFFF000000000000000
3FFFFFFFFFF000000000000000
3FFFFFFFFFE000000000000000
1FFFFFFFFFC000000000000000
0FFFFFFFFF8000000000000000
07FFFFFFFF0000000000000000
01FFFFFFFE0000000000000000
007FFFFFF00000000000000000
ENDCHAR
STARTCHAR 0047
ENCODING 71
SWIDTH 636 0
DWIDTH 121 0
BBX 100 154 11 0
BITMAP
000001FFFFFFFFFFFFFC000000
00001FFFFFFFFFFFFFFF800000
00007FFFFFFFFFFFFFFFF00000
0001FFFFFFFFFFFFFFFFFC0000
0007FFFFFFFFFFFFFFFFFF0000
000FFFFFFFFFFFFFFFFFFF8000
003FFFFFFFFFFFFFFFFFFFC000
007FFFFFFFFFFFFFFFFFFFE000
00FFFFFFFFFFFFFFFFFFFFF000
01FFFFFFFFFFFFFFFFFFFFF800
01FFFFFFFFFFFFFFFFFFFFFC00
03FFFFFFFFFFFFFFFFFFFFFE00
07FFFFFFFFFFFFFFFFFFFFFF00
0FFFFFFFFFFFFFFFFFFFFFFF00
0FFFFFFFFFFFFFFFFFFFFFFF80
1FFFFFFFFFFFFFFFFFFFFFFF80
1FFFFFFFFFFFFFFFFFFFFFFFC0
3FFFFFFFFFFFFFFFFFFFFFFFC0
3FFFFFFFFFFFFFFFFFFFFFFFE0
3FFFFFFFFFFFFFFFFFFFFFFFE0
7FFFFFFFFFFFFFFFFFFFFFFFE0
7FFFFFFFFFFFFFFFFFFFFFFFE0
7FFFFFFFFFFFFFFFFFFFFFFFF0
7FFFFFFFFFFFFFFFFFFFFFFFF0
7FFFFFFFFFFFFFFFFFFFFFFFF0
7FFFFFFFFFFFFFFFFFFFFFFFF0
FFFFFFFFFFFFFFFFFFFFFFFFF0
FFFFFFFFFFFFFFFFFFFFFFFFF0
FFFFFFFFFFFFFFFFFFFFFFFFF0
FFFFFFFFFFFC03FFFFFFFFFFF0
FFFFFFFFFFF000FFFFFFFFFFF0
FFFFFFFFFFE0007FFFFFFFFFF0
FFFFFFFFFFC0003FFFFFFFFFF0
FFFFFFFFFF80001FFFFFFFFFF0
FFFFFFFFFF00001FFFFFFFFFF0
FFFFFFFFFF00000FFFFFFFFFF0
FFFFFFFFFF00000FFFFFFFFFF0
FFFFFFFFFE00000FFFFFFFFFF0
FFFFFFFFFE00000FFFFFFFFFF0
FFFFFFFFFE00000FFFFFFFFFF0
FFFFFFFFFF00000FFFFFFFFFE0
FFFFFFFFFF00000FFFFFFFFFE0
FFFFFFFFFF00000FFFFFFFFFC0
FFFFFFFFFF00001FFFFFFFFFC0
FFFFFFFFFF80001FFFFFFFFF80
FFFFFFFFFFC0000FFFFFFFFE00
FFFFFFFFFFE00003FFFFFFFC00
FFFFFFFFFFF00000FFFFFFF000
FFFFFFFFFFF000000000000000
FFFFFFFFFFF000000000000000
FFFFFFFFFFF000000000000000
FFFFFFFFFFF000000000000000
FFFFFFFFFFF000000000000000
FFFFFFFFFFF000000000000000
FFFFFFFFFFF000000000000000
FFFFFFFFFFF000000000000000
FFFFFFFFFFF000000000000000
FFFFFFFFFFF000000000000000
FFFFFFFFFFF000000000000000
FFFFFFFFFFF000000000000000
FFFFFFFFFFF000000000000000
FFFFFFFFFFF000000000000000
FFFFFFFFFFF000000000000000
FFFFFFFFFFF000000000000000
FFFFFFFFFFF000000000000000
FFFFFFFFFFF000000000000000
FFFFFFFFFFF000000000000000
FFFFFFFFFFF000000000000000
FFFFFFFFFFF000000000000000
FFFFFFFFFFF000000000000000
FFFFFFFFFFF000000000000000
FFFFFFFFFFF000000000000000
FFFFFFFFFFF000000000000000
FFFFFFFFFFF000000000000000
FFFFFFFFFFF000000000000000
FFFFFFFFFFF00000FFFFFFE000
FFFFFFFFFFF00003FFFFFFFC00
FFFFFFFFFFF0000FFFFFFFFE00
FFFFFFFFFFF0001FFFFFFFFF00
FFFFFFFFFFF0003FFFFFFFFF80
FFFFFFFFFFF0007FFFFFFFFFC0
FFFFFFFFFFF0007FFFFFFFFFE0
FFFFFFFFFFF000FFFFFFFFFFE0
FFFFFFFFFFF000FFFFFFFFFFE0
FFFFFFFFFFF000FFFFFFFFFFF0
FFFFFFFFFFF000FFFFFFFFFFF0
FFFFFFFFFFF001FFFFFFFFFFF0
FFFFFFFFFFF001FFFFFFFFFFF0
FFFFFFFFFFF001FFFFFFFFFFF0
FFFFFFFFFFF001FFFFFFFFFFF0
FFFFFFFFFFF001FFFFFFFFFFF0
FFFFFFFFFFF001FFFFFFFFFFF0
FFFFFFFFFFF001FFFFFFFFFFF0
FFFFFFFFFFF001FFFFFFFFFFF0
FFFFFFFFFFF001FFFFFFFFFFF0
FFFFFFFFFFF001FFFFFFFFFFF0
FFFFFFFFFFF001FFFFFFFFFFF0
FFFFFFFFFFF001FFFFFFFFFFF0
FFFFFFFFFFF001FFFFFFFFFFF0
FFFFFFFFFFF001FFFFFFFFFFF0
FFFFFFFFFFF001FFFFFFFFFFF0
FFFFFFFFFFF001FFFFFFFFFFF0
FFFFFFFFFFF001FFFFFFFFFFF0
FFFFFFFFFFF001FFFFFFFFFFF0
FFFFFFFFFFF001FFFFFFFFFFF0
FFFFFFFFFFF001FFFFFFFFFFF0
FFFFFFFFFFF0007FFFFFFFFFF0
FFFFFFFFFFE0003FFFFFFFFFF0
FFFFFFFFFFC0001FFFFFFFFFF0
FFFFFFFFFF80001FFFFFFFFFF0
FFFFFFFFFF00000FFFFFFFFFF0
FFFFFFFFFF00000FFFFFFFFFF0
FFFFFFFFFF00000FFFFFFFFFF0
FFFFFFFFFE00000FFFFFFFFFF0
FFFFFFFFFE00000FFFFFFFFFF0
FFFFFFFFFE00000FFFFFFFFFF0
FFFFFFFFFF00000FFFFFFFFFF0
FFFFFFFFFF00000FFFFFFFFFF0
FFFFFFFFFF00000FFFFFFFFFF0
FFFFFFFFFF80001FFFFFFFFFF0
FFFFFFFFFF80001FFFFFFFFFF0
FFFFFFFFFFC0003FFFFFFFFFF0
FFFFFFFFFFE0007FFFFFFFFFF0
FFFFFFFFFFF001FFFFFFFFFFF0
FFFFFFFFFFFE07FFFFFFFFFFF0
FFFFFFFFFFFFFFFFFFFFFFFFF0
FFFFFFFFFFFFFFFFFFFFFFFFF0
FFFFFFFFFFFFFFFFFFFFFFFFF0
FFFFFFFFFFFFFFFFFFFFFFFFF0
7FFFFFFFFFFFFFFFFFFFFFFFF0
7FFFFFFFFFFFFFFFFFFFFFFFF0
7FFFFFFFFFFFFFFFFFFFFFFFE0
7FFFFFFFFFFFFFFFFFFFFFFFE0
7FFFFFFFFFFFFFFFFFFFFFFFE0
3FFFFFFFFFFFFFFFFFFFFFFFE0
3FFFFFFFFFFFFFFFFFFFFFFFC0
3FFFFFFFFFFFFFFFFFFFFFFFC0
1FFFFFFFFFFFFFFFFFFFFFFFC0
1FFFFFFFFFFFFFFFFFFFFFFF80
0FFFFFFFFFFFFFFFFFFFFFFF80
0FFFFFFFFFFFFFFFFFFFFFFF00
07FFFFFFFFFFFFFFFFFFFFFE00
03FFFFFFFFFFFFFFFFFFFFFE00
03FFFFFFFFFFFFFFFFFFFFFC00
01FFFFFFFFFFFFFFFFFFFFF800
00FFFFFFFFFFFFFFFFFFFFF000
007FFFFFFFFFFFFFFFFFFFE000
003FFFFFFFFFFFFFFFFFFFC000
000FFFFFFFFFFFFFFFFFFF8000
0007FFFFFFFFFFFFFFFFFE0000
0001FFFFFFFFFFFFFFFFFC0000
00007FFFFFFFFFFFFFFFF00000
00001FFFFFFFFFFFFFFF800000
000001FFFFFFFFFFFFFC000000
ENDCHAR
STARTCHAR 0048
ENCODING 72
SWIDTH 642 0
DWIDTH 122 0
BBX 100 154 11 0
BITMAP
007FFFFFF0000000FFFFFFE000
01FFFFFFFC000003FFFFFFF800
07FFFFFFFF00000FFFFFFFFE00
0FFFFFFFFF80001FFFFFFFFF00
1FFFFFFFFFC0003FFFFFFFFF80
3FFFFFFFFFC0007FFFFFFFFFC0
3FFFFFFFFFE0007FFFFFFFFFC0
7FFFFFFFFFF000FFFFFFFFFFE0
7FFFFFFFFFF000FFFFFFFFFFE0
7FFFFFFFFFF000FFFFFFFFFFE0
7FFFFFFFFFF001FFFFFFFFFFE0
FFFFFFFFFFF001FFFFFFFFFFF0
FFFFFFFFFFF001FFFFFFFFFFF0
FFFFFFFFFFF001FFFFFFFFFFF0
FFFFFFFFFFF001FFFFFFFFFFF0
FFFFFFFFFFF001FFFFFFFFFFF0
FFFFFFFFFFF001FFFFFFFFFFF0
FFFFFFFFFFF001FFFFFFFFFFF0
FFFFFFFFFFF001FFFFFFFFFFF0
FFFFFFFFFFF001FFFFFFFFFFF0
FFFFFFFFFFF001FFFFFFFFFFF0
FFFFFFFFFFF001FFFFFFFFFFF0
FFFFFFFFFFF001FFFFFFFFFFF0
FFFFFFFFFFF001FFFFFFFFFFF0
FFFFFFFFFFF001FFFFFFFFFFF0
FFFFFFFFFFF001FFFFFFFFFFF0
FFFFFFFFFFF001FFFFFFFFFFF0
FFFFFFFFFFF001FFFFFFFFFFF0
FFFFFFFFFFF001FFFFFFFFFFF0
FFFFFFFFFFF001FFFFFFFFFFF0
FFFFFFFFFFF001FFFFFFFFFFF0
FFFFFFFFFFF001FFFFFFFFFFF0
FFFFFFFFFFF001FFFFFFFFFFF0
FFFFFFFFFFF001FFFFFFFFFFF0
FFFFFFFFFFF001FFFFFFFFFFF0
FFFFFFFFFFF001FFFFFFFFFFF0
FFFFFFFFFFF001FFFFFFFFFFF0
FFFFFFFFFFE0007FFFFFFFFFF0
FFFFFFFFFFC0003FFFFFFFFFF0
FFFFFFFFFF80001FFFFFFFFFF0
FFFFFFFFFF80001FFFFFFFFFF0
FFFFFFFFFF00000FFFFFFFFFF0
FFFFFFFFFF00000FFFFFFFFFF0
FFFFFFFFFF00000FFFFFFFFFF0
FFFFFFFFFE00000FFFFFFFFFF0
FFFFFFFFFE00000FFFFFFFFFF0
FFFFFFFFFE00000FFFFFFFFFF0
FFFFFFFFFF00000FFFFFFFFFF0
FFFFFFFFFF00000FFFFFFFFFF0
FFFFFFFFFF00000FFFFFFFFFF0
FFFFFFFFFF80001FFFFFFFFFF0
FFFFFFFFFF80001FFFFFFFFFF0
FFFFFFFFFFC0003FFFFFFFFFF0
FFFFFFFFFFE0007FFFFFFFFFF0
FFFFFFFFFFF801FFFFFFFFFFF0
FFFFFFFFFFFE0FFFFFFFFFFFF0
FFFFFFFFFFFFFFFFFFFFFFFFF0
FFFFFFFFFFFFFFFFFFFFFFFFF0
FFFFFFFFFFFFFFFFFFFFFFFFF0
FFFFFFFFFFFFFFFFFFFFFFFFF0
FFFFFFFFFFFFFFFFFFFFFFFFF0
FFFFFFFFFFFFFFFFFFFFFFFFF0
FFFFFFFFFFFFFFFFFFFFFFFFF0
FFFFFFFFFFFFFFFFFFFFFFFFF0
FFFFFFFFFFFFFFFFFFFFFFFFF0
FFFFFFFFFFFFFFFFFFFFFFFFF0
FFFFFFFFFFFFFFFFFFFFFFFFF0
FFFFFFFFFFFFFFFFFFFFFFFFF0
FFFFFFFFFFFFFFFFFFFFFFFFF0
FFFFFFFFFFFFFFFFFFFFFFFFF0
FFFFFFFFFFFFFFFFFFFFFFFFF0
FFFFFFFFFFFFFFFFFFFFFFFFF0
FFFFFFFFFFFFFFFFFFFFFFFFF0
FFFFFFFFFFFFFFFFFFFFFFFFF0
FFFFFFFFFFFFFFFFFFFFFFFFF0
FFFFFFFFFFFFFFFFFFFFFFFFF0
FFFFFFFFFFFFFFFFFFFFFFFFF0
FFFFFFFFFFFFFFFFFFFFFFFFF0
FFFFFFFFFFFFFFFFFFFFFFFFF0
FFFFFFFFFFFFFFFFFFFFFFFFF0
FFFFFFFFFFFFFFFFFFFFFFFFF0
FFFFFFFFFFFFFFFFFFFFFFFFF0
FFFFFFFFFFFFFFFFFFFFFFFFF0
FFFFFFFFFFFFFFFFFFFFFFFFF0
FFFFFFFFFFFF0FFFFFFFFFFFF0
FFFFFFFFFFF801FFFFFFFFFFF0
FFFFFFFFFFE000FFFFFFFFFFF0
FFFFFFFFFFC0003FFFFFFFFFF0
FFFFFFFFFF80003FFFFFFFFFF0
FFFFFFFFFF80001FFFFFFFFFF0
FFFFFFFFFF00000FFFFFFFFFF0
FFFFFFFFFF00000FFFFFFFFFF0
FFFFFFFFFF00000FFFFFFFFFF0
FFFFFFFFFE00000FFFFFFFFFF0
FFFFFFFFFE00000FFFFFFFFFF0
FFFFFFFFFE00000FFFFFFFFFF0
FFFFFFFFFF00000FFFFFFFFFF0
FFFFFFFFFF00000FFFFFFFFFF0
FFFFFFFFFF00000FFFFFFFFFF0
FFFFFFFFFF80001FFFFFFFFFF0
FFFFFFFFFF80001FFFFFFFFFF0
FFFFFFFFFFC0003FFFFFFFFFF0
FFFFFFFFFFE0007FFFFFFFFFF0
FFFFFFFFFFF001FFFFFFFFFFF0
FFFFFFFFFFF001FFFFFFFFFFF0
FFFFFFFFFFF001FFFFFFFFFFF0
FFFFFFFFFFF001FFFFFFFFFFF0
FFFFFFFFFFF001FFFFFFFFFFF0
FFFFFFFFFFF001FFFFFFFFFFF0
FFFFFFFFFFF001FFFFFFFFFFF0
FFFFFFFFFFF001FFFFFFFFFFF0
FFFFFFFFFFF001FFFFFFFFFFF0
FFFFFFFFFFF001FFFFFFFFFFF0
FFFFFFFFFFF001FFFFFFFFFFF0
FFFFFFFFFFF001FFFFFFFFFFF0
FFFFFFFFFFF001FFFFFFFFFFF0
FFFFFFFFFFF001FFFFFFFFFFF0
FFFFFFFFFFF001FFFFFFFFFFF0
FFFFFFFFFFF001FFFFFFFFFFF0
FFFFFFFFFFF001FFFFFFFFFFF0
FFFFFFFFFFF001FFFFFFFFFFF0
FFFFFFFFFFF001FFFFFFFFFFF0
FFFFFFFFFFF001FFFFFFFFFFF0
FFFFFFFFFFF001FFFFFFFFFFF0
FFFFFFFFFFF001FFFFFFFFFFF0
FFFFFFFFFFF001FFFFFFFFFFF0
FFFFFFFFFFF001FFFFFFFFFFF0
FFFFFFFFFFF001FFFFFFFFFFF0
FFFFFFFFFFF001FFFFFFFFFFF0
FFFFFFFFFFF001FFFFFFFFFFF0
FFFFFFFFFFF001FFFFFFFFFFF0
FFFFFFFFFFF001FFFFFFFFFFF0
FFFFFFFFFFF001FFFFFFFFFFF0
FFFFFFFFFFF001FFFFFFFFFFF0
FFFFFFFFFFF001FFFFFFFFFFF0
FFFFFFFFFFF001FFFFFFFFFFF0
FFFFFFFFFFF001FFFFFFFFFFF0
FFFFFFFFFFF001FFFFFFFFFFF0
FFFFFFFFFFF001FFFFFFFFFFF0
FFFFFFFFFFF001FFFFFFFFFFF0
FFFFFFFFFFF001FFFFFFFFFFF0
FFFFFFFFFFF001FFFFFFFFFFF0
FFFFFFFFFFF001FFFFFFFFFFF0
FFFFFFFFFFF001FFFFFFFFFFE0
7FFFFFFFFFF000FFFFFFFFFFE0
7FFFFFFFFFF000FFFFFFFFFFE0
7FFFFFFFFFF000FFFFFFFFFFE0
3FFFFFFFFFE0007FFFFFFFFFC0
3FFFFFFFFFE0007FFFFFFFFFC0
1FFFFFFFFFC0003FFFFFFFFF80
0FFFFFFFFF80001FFFFFFFFF00
07FFFFFFFF00000FFFFFFFFE00
01FFFFFFFC000003FFFFFFF800
007FFFFFF0000000FFFFFFE000
ENDCHAR
STARTCHAR 0049
ENCODING 73
SWIDTH 352 0
DWIDTH 67 0
BBX 45 154 11 0
BITMAP
007FFFFFF000
01FFFFFFFE00
07FFFFFFFF00
0FFFFFFFFF80
1FFFFFFFFFC0
3FFFFFFFFFE0
3FFFFFFFFFE0
7FFFFFFFFFF0
7FFFFFFFFFF0
7FFFFFFFFFF8
7FFFFFFFFFF8
FFFFFFFFFFF8
FFFFFFFFFFF8
FFFFFFFFFFF8
FFFFFFFFFFF8
FFFFFFFFFFF8
FFFFFFFFFFF8
FFFFFFFFFFF8
FFFFFFFFFFF8
FFFFFFFFFFF8
FFFFFFFFFFF8
FFFFFFFFFFF8
FFFFFFFFFFF8
FFFFFFFFFFF8
FFFFFFFFFFF8
FFFFFFFFFFF8
FFFFFFFFFFF8
FFFFFFFFFFF8
FFFFFFFFFFF8
FFFFFFFFFFF8
FFFFFFFFFFF8
FFFFFFFFFFF8
FFFFFFFFFFF8
FFFFFFFFFFF8
FFFFFFFFFFF8
FFFFFFFFFFF8
FFFFFFFFFFF8
FFFFFFFFFFF8
FFFFFFFFFFF8
FFFFFFFFFFF8
FFFFFFFFFFF8
FFFFFFFFFFF8
FFFFFFFFFFF8
FFFFFFFFFFF8
FFFFFFFFFFF8
FFFFFFFFFFF8
FFFFFFFFFFF8
FFFFFFFFFFF8
FFFFFFFFFFF8
FFFFFFFFFFF8
FFFFFFFFFFF8
FFFFFFFFFFF8
FFFFFFFFFFF8
FFFFFFFFFFF8
FFFFFFFFFFF8
FFFFFFFFFFF8
FFFFFFFFFFF8
FFFFFFFFFFF8
FFFFFFFFFFF8
FFFFFFFFFFF8
FFFFFFFFFFF8
FFFFFFFFFFF8
FFFFFFFFFFF8
FFFFFFFFFFF8
FFFFFFFFFFF8
FFFFFFFFFFF8
FFFFFFFFFFF8
FFFFFFFFFFF8
FFFFFFFFFFF8
FFFFFFFFFFF8
FFFFFFFFFFF8
FFFFFFFFFFF8
FFFFFFFFFFF8
FFFFFFFFFFF8
FFFFFFFFFFF8
FFFFFFFFFFF8
FFFFFFFFFFF8
FFFFFFFFFFF8
FFFFFFFFFFF8
FFFFFFFFFFF8
FFFFFFFFFFF8
FFFFFFFFFFF8
FFFFFFFFFFF8
FFFFFFFFFFF8
FFFFFFFFFFF8
FFFFFFFFFFF8
FFFFFFFFFFF8
FFFFFFFFFFF8
FFFFFFFFFFF8
FFFFFFFFFFF8
FFFFFFFFFFF8
FFFFFFFFFFF8
FFFFFFFFFFF8
FFFFFFFFFFF8
FFFFFFFFFFF8
FFFFFFFFFFF8
FFFFFFFFFFF8
FFFFFFFFFFF8
FFFFFFFFFFF8
FFFFFFFFFFF8
FFFFFFFFFFF8
FFFFFFFFFFF8
FFFFFFFFFFF8
FFFFFFFFFFF8
FFFFFFFFFFF8
FFFFFFFFFFF8
FFFFFFFFFFF8
FFFFFFFFFFF8
FFFFFFFFFFF8
FFFFFFFFFFF8
FFFFFFFFFFF8
FFFFFFFFFFF8
FFFFFFFFFFF8
FFFFFFFFFFF8
FFFFFFFFFFF8
FFFFFFFFFFF8
FFFFFFFFFFF8
FFFFFFFFFFF8
FFFFFFFFFFF8
FFFFFFFFFFF8
FFFFFFFFFFF8
FFFFFFFFFFF8
FFFFFFFFFFF8
FFFFFFFFFFF8
FFFFFFFFFFF8
FFFFFFFFFFF8
FFFFFFFFFFF8
FFFFFFFFFFF8
FFFFFFFFFFF8
FFFFFFFFFFF8
FFFFFFFFFFF8
FFFFFFFFFFF8
FFFFFFFFFFF8
FFFFFFFFFFF8
FFFFFFFFFFF8
FFFFFFFFFFF8
FFFFFFFFFFF8
FFFFFFFFFFF8
FFFFFFFFFFF8
FFFFFFFFFFF8
FFFFFFFFFFF8
FFFFFFFFFFF8
FFFFFFFFFFF8
FFFFFFFFFFF8
7FFFFFFFFFF8
7FFFFFFFFFF0
7FFFFFFFFFF0
3FFFFFFFFFF0
3FFFFFFFFFE0
1FFFFFFFFFC0
0FFFFFFFFF80
07FFFFFFFF00
01FFFFFFFE00
007FFFFFF000
ENDCHAR
STARTCHAR 004A
ENCODING 74
SWIDTH 621 0
DWIDTH 118 0
BBX 99 154 8 0
BITMAP
0000000000000001FFFFFFC000
0000000000000007FFFFFFF800
000000000000000FFFFFFFFC00
000000000000003FFFFFFFFE00
000000000000003FFFFFFFFF00
000000000000007FFFFFFFFF80
00000000000000FFFFFFFFFFC0
00000000000000FFFFFFFFFFC0
00000000000001FFFFFFFFFFC0
00000000000001FFFFFFFFFFE0
00000000000001FFFFFFFFFFE0
00000000000001FFFFFFFFFFE0
00000000000001FFFFFFFFFFE0
00000000000001FFFFFFFFFFE0
00000000000001FFFFFFFFFFE0
00000000000001FFFFFFFFFFE0
00000000000001FFFFFFFFFFE0
00000000000001FFFFFFFFFFE0
00000000000001FFFFFFFFFFE0
00000000000001FFFFFFFFFFE0
00000000000001FFFFFFFFFFE0
00000000000001FFFFFFFFFFE0
00000000000001FFFFFFFFFFE0
00000000000001FFFFFFFFFFE0
00000000000001FFFFFFFFFFE0
00000000000001FFFFFFFFFFE0
00000000000001FFFFFFFFFFE0
00000000000001FFFFFFFFFFE0
00000000000001FFFFFFFFFFE0
00000000000001FFFFFFFFFFE0
00000000000001FFFFFFFFFFE0
00000000000001FFFFFFFFFFE0
00000000000001FFFFFFFFFFE0
00000000000001FFFFFFFFFFE0
00000000000001FFFFFFFFFFE0
00000000000001FFFFFFFFFFE0
00000000000001FFFFFFFFFFE0
00000000000001FFFFFFFFFFE0
00000000000001FFFFFFFFFFE0
00000000000001FFFFFFFFFFE0
00000000000001FFFFFFFFFFE0
00000000000001FFFFFFFFFFE0
00000000000001FFFFFFFFFFE0
00000000000001FFFFFFFFFFE0
00000000000001FFFFFFFFFFE0
00000000000001FFFFFFFFFFE0
00000000000001FFFFFFFFFFE0
00000000000001FFFFFFFFFFE0
00000000000001FFFFFFFFFFE0
00000000000001FFFFFFFFFFE0
00000000000001FFFFFFFFFFE0
00000000000001FFFFFFFFFFE0
00000000000001FFFFFFFFFFE0
00000000000001FFFFFFFFFFE0
00000000000001FFFFFFFFFFE0
00000000000001FFFFFFFFFFE0
00000000000001FFFFFFFFFFE0
00000000000001FFFFFFFFFFE0
00000000000001FFFFFFFFFFE0
00000000000001FFFFFFFFFFE0
00000000000001FFFFFFFFFFE0
00000000000001FFFFFFFFFFE0
00000000000001FFFFFFFFFFE0
00000000000001FFFFFFFFFFE0
00000000000001FFFFFFFFFFE0
00000000000001FFFFFFFFFFE0
00000000000001FFFFFFFFFFE0
00000000000001FFFFFFFFFFE0
00000000000001FFFFFFFFFFE0
00000000000001FFFFFFFFFFE0
00000000000001FFFFFFFFFFE0
00000000000001FFFFFFFFFFE0
00000000000001FFFFFFFFFFE0
00000000000001FFFFFFFFFFE0
00000000000001FFFFFFFFFFE0
00000000000001FFFFFFFFFFE0
00000000000001FFFFFFFFFFE0
00000000000001FFFFFFFFFFE0
00000000000001FFFFFFFFFFE0
00000000000001FFFFFFFFFFE0
00000000000001FFFFFFFFFFE0
00000000000001FFFFFFFFFFE0
00000000000001FFFFFFFFFFE0
00000000000001FFFFFFFFFFE0
00000000000001FFFFFFFFFFE0
00FFFFFFF00001FFFFFFFFFFE0
03FFFFFFFC0001FFFFFFFFFFE0
0FFFFFFFFF0001FFFFFFFFFFE0
1FFFFFFFFF8001FFFFFFFFFFE0
3FFFFFFFFFC001FFFFFFFFFFE0
3FFFFFFFFFC001FFFFFFFFFFE0
7FFFFFFFFFE001FFFFFFFFFFE0
7FFFFFFFFFE001FFFFFFFFFFE0
FFFFFFFFFFF001FFFFFFFFFFE0
FFFFFFFFFFF001FFFFFFFFFFE0
FFFFFFFFFFF001FFFFFFFFFFE0
FFFFFFFFFFF001FFFFFFFFFFE0
FFFFFFFFFFF001FFFFFFFFFFE0
FFFFFFFFFFF001FFFFFFFFFFE0
FFFFFFFFFFF001FFFFFFFFFFE0
FFFFFFFFFFF001FFFFFFFFFFE0
FFFFFFFFFFF001FFFFFFFFFFE0
FFFFFFFFFFF001FFFFFFFFFFE0
FFFFFFFFFFF001FFFFFFFFFFE0
FFFFFFFFFFF001FFFFFFFFFFE0
FFFFFFFFFFF001FFFFFFFFFFE0
FFFFFFFFFFE000FFFFFFFFFFE0
FFFFFFFFFFC0007FFFFFFFFFE0
FFFFFFFFFF80007FFFFFFFFFE0
FFFFFFFFFF00003FFFFFFFFFE0
FFFFFFFFFF00003FFFFFFFFFE0
FFFFFFFFFE00001FFFFFFFFFE0
FFFFFFFFFE00001FFFFFFFFFE0
FFFFFFFFFE00001FFFFFFFFFE0
FFFFFFFFFE00001FFFFFFFFFE0
FFFFFFFFFE00001FFFFFFFFFE0
FFFFFFFFFE00001FFFFFFFFFE0
FFFFFFFFFE00001FFFFFFFFFE0
FFFFFFFFFF00003FFFFFFFFFE0
FFFFFFFFFF00003FFFFFFFFFE0
FFFFFFFFFF80007FFFFFFFFFE0
FFFFFFFFFF80007FFFFFFFFFE0
FFFFFFFFFFC000FFFFFFFFFFE0
FFFFFFFFFFF003FFFFFFFFFFE0
FFFFFFFFFFFC0FFFFFFFFFFFE0
FFFFFFFFFFFFFFFFFFFFFFFFE0
FFFFFFFFFFFFFFFFFFFFFFFFE0
FFFFFFFFFFFFFFFFFFFFFFFFE0
FFFFFFFFFFFFFFFFFFFFFFFFE0
FFFFFFFFFFFFFFFFFFFFFFFFE0
FFFFFFFFFFFFFFFFFFFFFFFFE0
FFFFFFFFFFFFFFFFFFFFFFFFE0
FFFFFFFFFFFFFFFFFFFFFFFFE0
FFFFFFFFFFFFFFFFFFFFFFFFE0
FFFFFFFFFFFFFFFFFFFFFFFFE0
FFFFFFFFFFFFFFFFFFFFFFFFE0
FFFFFFFFFFFFFFFFFFFFFFFFE0
FFFFFFFFFFFFFFFFFFFFFFFFE0
7FFFFFFFFFFFFFFFFFFFFFFFC0
7FFFFFFFFFFFFFFFFFFFFFFFC0
7FFFFFFFFFFFFFFFFFFFFFFFC0
3FFFFFFFFFFFFFFFFFFFFFFF80
3FFFFFFFFFFFFFFFFFFFFFFF80
1FFFFFFFFFFFFFFFFFFFFFFF00
1FFFFFFFFFFFFFFFFFFFFFFF00
0FFFFFFFFFFFFFFFFFFFFFFE00
07FFFFFFFFFFFFFFFFFFFFFC00
03FFFFFFFFFFFFFFFFFFFFF800
01FFFFFFFFFFFFFFFFFFFFF000
00FFFFFFFFFFFFFFFFFFFFE000
007FFFFFFFFFFFFFFFFFFFC000
001FFFFFFFFFFFFFFFFFFF0000
0007FFFFFFFFFFFFFFFFFC0000
0000FFFFFFFFFFFFFFFFE00000
ENDCHAR
STARTCHAR 004B
ENCODING 75
SWIDTH 642 0
DWIDTH 122 0
BBX 100 154 11 0
BITMAP
007FFFFFF0000000FFFFFFE000
01FFFFFFFC000003FFFFFFF800
07FFFFFFFF00000FFFFFFFFE00
0FFFFFFFFF80001FFFFFFFFF00
1FFFFFFFFFC0003FFFFFFFFF80
3FFFFFFFFFE0007FFFFFFFFFC0
3FFFFFFFFFE0007FFFFFFFFFC0
7FFFFFFFFFF000FFFFFFFFFFE0
7FFFFFFFFFF000FFFFFFFFFFE0
7FFFFFFFFFF000FFFFFFFFFFE0
7FFFFFFFFFF001FFFFFFFFFFE0
FFFFFFFFFFF001FFFFFFFFFFF0
FFFFFFFFFFF001FFFFFFFFFFF0
FFFFFFFFFFF001FFFFFFFFFFF0
FFFFFFFFFFF001FFFFFFFFFFF0
FFFFFFFFFFF001FFFFFFFFFFF0
FFFFFFFFFFF001FFFFFFFFFFF0
FFFFFFFFFFF001FFFFFFFFFFF0
FFFFFFFFFFF001FFFFFFFFFFF0
FFFFFFFFFFF001FFFFFFFFFFF0
FFFFFFFFFFF001FFFFFFFFFFF0
FFFFFFFFFFF001FFFFFFFFFFF0
FFFFFFFFFFF001FFFFFFFFFFF0
FFFFFFFFFFF001FFFFFFFFFFF0
FFFFFFFFFFF001FFFFFFFFFFF0
FFFFFFFFFFF001FFFFFFFFFFF0
FFFFFFFFFFF001FFFFFFFFFFF0
FFFFFFFFFFF001FFFFFFFFFFF0
FFFFFFFFFFF001FFFFFFFFFFF0
FFFFFFFFFFF001FFFFFFFFFFF0
FFFFFFFFFFF001FFFFFFFFFFF0
FFFFFFFFFFF001FFFFFFFFFFF0
FFFFFFFFFFF001FFFFFFFFFFF0
FFFFFFFFFFF001FFFFFFFFFFF0
FFFFFFFFFFF001FFFFFFFFFFF0
FFFFFFFFFFF001FFFFFFFFFFF0
FFFFFFFFFFF001FFFFFFFFFFF0
FFFFFFFFFFE000FFFFFFFFFFF0
FFFFFFFFFFC0003FFFFFFFFFF0
FFFFFFFFFF80003FFFFFFFFFF0
FFFFFFFFFF80001FFFFFFFFFF0
FFFFFFFFFF00000FFFFFFFFFF0
FFFFFFFFFF00000FFFFFFFFFF0
FFFFFFFFFF00000FFFFFFFFFF0
FFFFFFFFFE00000FFFFFFFFFF0
FFFFFFFFFE00000FFFFFFFFFF0
FFFFFFFFFE00000FFFFFFFFFF0
FFFFFFFFFF00000FFFFFFFFFE0
FFFFFFFFFF00000FFFFFFFFFE0
FFFFFFFFFF00000FFFFFFFFFE0
FFFFFFFFFF80001FFFFFFFFFE0
FFFFFFFFFF80003FFFFFFFFFE0
FFFFFFFFFFC0003FFFFFFFFFE0
FFFFFFFFFFE000FFFFFFFFFFE0
FFFFFFFFFFF801FFFFFFFFFFC0
FFFFFFFFFFFE0FFFFFFFFFFFC0
FFFFFFFFFFFFFFFFFFFFFFFF80
FFFFFFFFFFFFFFFFFFFFFFFF80
FFFFFFFFFFFFFFFFFFFFFFFF80
FFFFFFFFFFFFFFFFFFFFFFFF00
FFFFFFFFFFFFFFFFFFFFFFFE00
FFFFFFFFFFFFFFFFFFFFFFFE00
FFFFFFFFFFFFFFFFFFFFFFFC00
FFFFFFFFFFFFFFFFFFFFFFF800
FFFFFFFFFFFFFFFFFFFFFFF000
FFFFFFFFFFFFFFFFFFFFFFE000
FFFFFFFFFFFFFFFFFFFFFFC000
FFFFFFFFFFFFFFFFFFFFFF8000
FFFFFFFFFFFFFFFFFFFFFE0000
FFFFFFFFFFFFFFFFFFFFFC0000
FFFFFFFFFFFFFFFFFFFFFF0000
FFFFFFFFFFFFFFFFFFFFFF8000
FFFFFFFFFFFFFFFFFFFFFFC000
FFFFFFFFFFFFFFFFFFFFFFE000
FFFFFFFFFFFFFFFFFFFFFFF000
FFFFFFFFFFFFFFFFFFFFFFF800
FFFFFFFFFFFFFFFFFFFFFFFC00
FFFFFFFFFFFFFFFFFFFFFFFE00
FFFFFFFFFFFFFFFFFFFFFFFE00
FFFFFFFFFFFFFFFFFFFFFFFF00
FFFFFFFFFFFFFFFFFFFFFFFF80
FFFFFFFFFFFFFFFFFFFFFFFF80
FFFFFFFFFFFFFFFFFFFFFFFFC0
FFFFFFFFFFFFFFFFFFFFFFFFC0
FFFFFFFFFFFFFFFFFFFFFFFFC0
FFFFFFFFFFFC03FFFFFFFFFFE0
FFFFFFFFFFF000FFFFFFFFFFE0
FFFFFFFFFFE0007FFFFFFFFFE0
FFFFFFFFFFC0003FFFFFFFFFE0
FFFFFFFFFF80001FFFFFFFFFE0
FFFFFFFFFF00001FFFFFFFFFE0
FFFFFFFFFF00000FFFFFFFFFF0
FFFFFFFFFF00000FFFFFFFFFF0
FFFFFFFFFE00000FFFFFFFFFF0
FFFFFFFFFE00000FFFFFFFFFF0
FFFFFFFFFE00000FFFFFFFFFF0
FFFFFFFFFF00000FFFFFFFFFF0
FFFFFFFFFF00000FFFFFFFFFF0
FFFFFFFFFF00000FFFFFFFFFF0
FFFFFFFFFF00001FFFFFFFFFF0
FFFFFFFFFF80001FFFFFFFFFF0
FFFFFFFFFFC0003FFFFFFFFFF0
FFFFFFFFFFE0007FFFFFFFFFF0
FFFFFFFFFFF000FFFFFFFFFFF0
FFFFFFFFFFF001FFFFFFFFFFF0
FFFFFFFFFFF001FFFFFFFFFFF0
FFFFFFFFFFF001FFFFFFFFFFF0
FFFFFFFFFFF001FFFFFFFFFFF0
FFFFFFFFFFF001FFFFFFFFFFF0
FFFFFFFFFFF001FFFFFFFFFFF0
FFFFFFFFFFF001FFFFFFFFFFF0
FFFFFFFFFFF001FFFFFFFFFFF0
FFFFFFFFFFF001FFFFFFFFFFF0
FFFFFFFFFFF001FFFFFFFFFFF0
FFFFFFFFFFF001FFFFFFFFFFF0
FFFFFFFFFFF001FFFFFFFFFFF0
FFFFFFFFFFF001FFFFFFFFFFF0
FFFFFFFFFFF001FFFFFFFFFFF0
FFFFFFFFFFF001FFFFFFFFFFF0
FFFFFFFFFFF001FFFFFFFFFFF0
FFFFFFFFFFF001FFFFFFFFFFF0
FFFFFFFFFFF001FFFFFFFFFFF0
FFFFFFFFFFF001FFFFFFFFFFF0
FFFFFFFFFFF001FFFFFFFFFFF0
FFFFFFFFFFF001FFFFFFFFFFF0
FFFFFFFFFFF001FFFFFFFFFFF0
FFFFFFFFFFF001FFFFFFFFFFF0
FFFFFFFFFFF001FFFFFFFFFFF0
FFFFFFFFFFF001FFFFFFFFFFF0
FFFFFFFFFFF001FFFFFFFFFFF0
FFFFFFFFFFF001FFFFFFFFFFF0
FFFFFFFFFFF001FFFFFFFFFFF0
FFFFFFFFFFF001FFFFFFFFFFF0
FFFFFFFFFFF001FFFFFFFFFFF0
FFFFFFFFFFF001FFFFFFFFFFF0
FFFFFFFFFFF001FFFFFFFFFFF0
FFFFFFFFFFF001FFFFFFFFFFF0
FFFFFFFFFFF001FFFFFFFFFFF0
FFFFFFFFFFF001FFFFFFFFFFF0
FFFFFFFFFFF001FFFFFFFFFFF0
FFFFFFFFFFF001FFFFFFFFFFF0
FFFFFFFFFFF001FFFFFFFFFFF0
FFFFFFFFFFF001FFFFFFFFFFF0
FFFFFFFFFFF001FFFFFFFFFFE0
7FFFFFFFFFF000FFFFFFFFFFE0
7FFFFFFFFFF000FFFFFFFFFFE0
7FFFFFFFFFF000FFFFFFFFFFE0
3FFFFFFFFFE0007FFFFFFFFFC0
3FFFFFFFFFE0007FFFFFFFFFC0
1FFFFFFFFFC0003FFFFFFFFF80
0FFFFFFFFF80001FFFFFFFFF00
07FFFFFFFF00000FFFFFFFFE00
01FFFFFFFC000007FFFFFFF800
007FFFFFF0000000FFFFFFE000
ENDCHAR
STARTCHAR 004C
ENCODING 76
SWIDTH 621 0
DWIDTH 118 0
BBX 100 154 11 0
BITMAP
007FFFFFF00000000000000000
01FFFFFFFE0000000000000000
07FFFFFFFF0000000000000000
0FFFFFFFFF8000000000000000
1FFFFFFFFFC000000000000000
3FFFFFFFFFE000000000000000
3FFFFFFFFFF000000000000000
7FFFFFFFFFF000000000000000
7FFFFFFFFFF000000000000000
7FFFFFFFFFF800000000000000
7FFFFFFFFFF800000000000000
FFFFFFFFFFF800000000000000
FFFFFFFFFFF800000000000000
FFFFFFFFFFF800000000000000
FFFFFFFFFFF800000000000000
FFFFFFFFFFF800000000000000
FFFFFFFFFFF800000000000000
FFFFFFFFFFF800000000000000
FFFFFFFFFFF800000000000000
FFFFFFFFFFF800000000000000
FFFFFFFFFFF800000000000000
FFFFFFFFFFF800000000000000
FFFFFFFFFFF800000000000000
FFFFFFFFFFF800000000000000
FFFFFFFFFFF800000000000000
FFFFFFFFFFF800000000000000
FFFFFFFFFFF800000000000000
FFFFFFFFFFF800000000000000
FFFFFFFFFFF800000000000000
FFFFFFFFFFF800000000000000
FFFFFFFFFFF800000000000000
FFFFFFFFFFF800000000000000
FFFFFFFFFFF800000000000000
FFFFFFFFFFF800000000000000
FFFFFFFFFFF800000000000000
FFFFFFFFFFF800000000000000
FFFFFFFFFFF800000000000000
FFFFFFFFFFF800000000000000
FFFFFFFFFFF800000000000000
FFFFFFFFFFF800000000000000
FFFFFFFFFFF800000000000000
FFFFFFFFFFF800000000000000
FFFFFFFFFFF800000000000000
FFFFFFFFFFF800000000000000
FFFFFFFFFFF800000000000000
FFFFFFFFFFF800000000000000
FFFFFFFFFFF800000000000000
FFFFFFFFFFF800000000000000
FFFFFFFFFFF800000000000000
FFFFFFFFFFF800000000000000
FFFFFFFFFFF800000000000000
FFFFFFFFFFF800000000000000
FFFFFFFFFFF800000000000000
FFFFFFFFFFF800000000000000
FFFFFFFFFFF800000000000000
FFFFFFFFFFF800000000000000
FFFFFFFFFFF800000000000000
FFFFFFFFFFF800000000000000
FFFFFFFFFFF800000000000000
FFFFFFFFFFF800000000000000
FFFFFFFFFFF800000000000000
FFFFFFFFFFF800000000000000
FFFFFFFFFFF800000000000000
FFFFFFFFFFF800000000000000
FFFFFFFFFFF800000000000000
FFFFFFFFFFF800000000000000
FFFFFFFFFFF800000000000000
FFFFFFFFFFF800000000000000
FFFFFFFFFFF800000000000000
FFFFFFFFFFF800000000000000
FFFFFFFFFFF800000000000000
FFFFFFFFFFF800000000000000
FFFFFFFFFFF800000000000000
FFFFFFFFFFF800000000000000
FFFFFFFFFFF800000000000000
FFFFFFFFFFF800000000000000
FFFFFFFFFFF800000000000000
FFFFFFFFFFF800000000000000
FFFFFFFFFFF800000000000000
FFFFFFFFFFF800000000000000
FFFFFFFFFFF800000000000000
FFFFFFFFFFF800000000000000
FFFFFFFFFFF800000000000000
FFFFFFFFFFF800000000000000
FFFFFFFFFFF800000000000000
FFFFFFFFFFF800000000000000
FFFFFFFFFFF800000000000000
FFFFFFFFFFF800000000000000
FFFFFFFFFFF800000000000000
FFFFFFFFFFF800000000000000
FFFFFFFFFFF800000000000000
FFFFFFFFFFF800000000000000
FFFFFFFFFFF800000000000000
FFFFFFFFFFF800000000000000
FFFFFFFFFFF800000000000000
FFFFFFFFFFF800000000000000
FFFFFFFFFFF800000000000000
FFFFFFFFFFF800000000000000
FFFFFFFFFFF800000000000000
FFFFFFFFFFF800000000000000
FFFFFFFFFFF800000000000000
FFFFFFFFFFF800000000000000
FFFFFFFFFFF800000000000000
FFFFFFFFFFF800000000000000
FFFFFFFFFFF800000000000000
FFFFFFFFFFF800000000000000
FFFFFFFFFFF800000000000000
FFFFFFFFFFF000000000000000
FFFFFFFFFFC000000000000000
FFFFFFFFFF8000000000000000
FFFFFFFFFF8000000000000000
FFFFFFFFFF0000000000000000
FFFFFFFFFF0000000000000000
FFFFFFFFFF0000000000000000
FFFFFFFFFE0000000000000000
FFFFFFFFFE00000FFFFFFFC000
FFFFFFFFFE00000FFFFFFFFC00
FFFFFFFFFF00000FFFFFFFFF00
FFFFFFFFFF00000FFFFFFFFF80
FFFFFFFFFF00000FFFFFFFFFC0
FFFFFFFFFF80001FFFFFFFFFC0
FFFFFFFFFF80003FFFFFFFFFE0
FFFFFFFFFFC0007FFFFFFFFFE0
FFFFFFFFFFE000FFFFFFFFFFE0
FFFFFFFFFFF801FFFFFFFFFFF0
FFFFFFFFFFFF0FFFFFFFFFFFF0
FFFFFFFFFFFFFFFFFFFFFFFFF0
FFFFFFFFFFFFFFFFFFFFFFFFF0
FFFFFFFFFFFFFFFFFFFFFFFFF0
FFFFFFFFFFFFFFFFFFFFFFFFF0
FFFFFFFFFFFFFFFFFFFFFFFFF0
FFFFFFFFFFFFFFFFFFFFFFFFF0
FFFFFFFFFFFFFFFFFFFFFFFFF0
FFFFFFFFFFFFFFFFFFFFFFFFF0
FFFFFFFFFFFFFFFFFFFFFFFFF0
FFFFFFFFFFFFFFFFFFFFFFFFF0
FFFFFFFFFFFFFFFFFFFFFFFFF0
FFFFFFFFFFFFFFFFFFFFFFFFF0
FFFFFFFFFFFFFFFFFFFFFFFFF0
FFFFFFFFFFFFFFFFFFFFFFFFF0
FFFFFFFFFFFFFFFFFFFFFFFFF0
FFFFFFFFFFFFFFFFFFFFFFFFF0
FFFFFFFFFFFFFFFFFFFFFFFFF0
FFFFFFFFFFFFFFFFFFFFFFFFF0
7FFFFFFFFFFFFFFFFFFFFFFFF0
7FFFFFFFFFFFFFFFFFFFFFFFE0
7FFFFFFFFFFFFFFFFFFFFFFFE0
3FFFFFFFFFFFFFFFFFFFFFFFE0
3FFFFFFFFFFFFFFFFFFFFFFFE0
1FFFFFFFFFFFFFFFFFFFFFFFC0
0FFFFFFFFFFFFFFFFFFFFFFF80
07FFFFFFFFFFFFFFFFFFFFFF00
03FFFFFFFFFFFFFFFFFFFFFE00
007FFFFFFFFFFFFFFFFFFFF800
ENDCHAR
STARTCHAR 004D
ENCODING 77
SWIDTH 789 0
DWIDTH 150 0
BBX 128 154 11 0
BITMAP
0000FFFFFFC00000000007FFFFFE0000
0007FFFFFFF8000000003FFFFFFFE000
001FFFFFFFFE00000000FFFFFFFFF800
003FFFFFFFFF80000001FFFFFFFFFC00
00FFFFFFFFFFC0000007FFFFFFFFFF00
01FFFFFFFFFFF000000FFFFFFFFFFF80
03FFFFFFFFFFF800001FFFFFFFFFFFC0
07FFFFFFFFFFFC00003FFFFFFFFFFFE0
0FFFFFFFFFFFFC00007FFFFFFFFFFFE0
0FFFFFFFFFFFFE00007FFFFFFFFFFFF0
1FFFFFFFFFFFFF0000FFFFFFFFFFFFF8
1FFFFFFFFFFFFF0000FFFFFFFFFFFFF8
3FFFFFFFFFFFFF8001FFFFFFFFFFFFFC
3FFFFFFFFFFFFF8001FFFFFFFFFFFFFC
7FFFFFFFFFFFFF8003FFFFFFFFFFFFFE
7FFFFFFFFFFFFFC003FFFFFFFFFFFFFE
7FFFFFFFFFFFFFC003FFFFFFFFFFFFFE
7FFFFFFFFFFFFFC003FFFFFFFFFFFFFE
7FFFFFFFFFFFFFC003FFFFFFFFFFFFFE
FFFFFFFFFFFFFFC007FFFFFFFFFFFFFE
FFFFFFFFFFFFFFC007FFFFFFFFFFFFFF
FFFFFFFFFFFFFFC007FFFFFFFFFFFFFF
FFFFFFFFFFFFFFC007FFFFFFFFFFFFFF
FFFFFFFFFFFFFFC007FFFFFFFFFFFFFF
FFFFFFFFFFFFFFC007FFFFFFFFFFFFFF
FFFFFFFFFFFFFFC007FFFFFFFFFFFFFF
FFFFFFFFFFFFFFC007FFFFFFFFFFFFFF
FFFFFFFFFFFFFFC007FFFFFFFFFFFFFF
FFFFFFFFFFFFFFC007FFFFFFFFFFFFFF
FFFFFFFFFFFFFFC007FFFFFFFFFFFFFF
FFFFFFFFFFFFFFC007FFFFFFFFFFFFFF
FFFFFFFFFFFFFFC007FFFFFFFFFFFFFF
FFFFFFFFFFFFFFC007FFFFFFFFFFFFFF
FFFFFFFFFFFFFFC007FFFFFFFFFFFFFF
FFFFFFFFFFFFFFC007FFFFFFFFFFFFFF
FFFFFFFFFFFFFFC007FFFFFFFFFFFFFF
FFFFFFFFFFFFFFC007FFFFFFFFFFFFFF
FFFFFFFFFFFFFF8001FFFFFFFFFFFFFF
FFFFFFFFFFFFFF0000FFFFFFFFFFFFFF
FFFFFFFFFFFFFE00007FFFFFFFFFFFFF
FFFFFFFFFFFFFE00007FFFFFFFFFFFFF
FFFFFFFFFFFFFC00003FFFFFFFFFFFFF
FFFFFFFFFFFFFC00003FFFFFFFFFFFFF
FFFFFFFFFFFFFC00003FFFFFFFFFFFFF
FFFFFFFFFFFFF800003FFFFFFFFFFFFF
FFFFFFFFFFFFF800003FFFFFFFFFFFFF
FFFFFFFFFFFFF800003FFFFFFFFFFFFF
FFFFFFFFFFFFFC00003FFFFFFFFFFFFF
FFFFFFFFFFFFFC00003FFFFFFFFFFFFF
FFFFFFFFFFFFFC00003FFFFFFFFFFFFF
FFFFFFFFFFFFFE00007FFFFFFFFFFFFF
FFFFFFFFFFFFFF0000FFFFFFFFFFFFFF
FFFFFFFFFFFFFF0001FFFFFFFFFFFFFF
FFFFFFFFFFFFFFC003FFFFFFFFFFFFFF
FFFFFFFFFFFFFFE007FFFFFFFFFFFFFF
FFFFFFFFFFFFFFFE7FFFFFFFFFFFFFFF
FFFFFFFFFFFFFFFFFFFFFFFFFFFFFFFF
FFFFFFFFFFFFFFFFFFFFFFFFFFFFFFFF
FFFFFFFFFFFFFFFFFFFFFFFFFFFFFFFF
FFFFFFFFFFFFFFFFFFFFFFFFFFFFFFFF
FFFFFFFFFFFFFFFFFFFFFFFFFFFFFFFF
FFFFFFFFFFFFFFFFFFFFFFFFFFFFFFFF
FFFFFFFFFFFFFFFFFFFFFFFFFFFFFFFF
FFFFFFFFFFFFFFFFFFFFFFFFFFFFFFFF
FFFFFFFFFFFFFFFFFFFFFFFFFFFFFFFF
FFFFFFFFFFFFFFFFFFFFFFFFFFFFFFFF
FFFFFFFFFFFFFFFFFFFFFFFFFFFFFFFF
FFFFFFFFFFFFFFFFFFFFFFFFFFFFFFFF
FFFFFFFFFFFFFFFFFFFFFFFFFFFFFFFF
FFFFFFFFFFFFFFFFFFFFFFFFFFFFFFFF
FFFFFFFFFFFFFFFFFFFFFFFFFFFFFFFF
FFFFFFFFFFFFFFFFFFFFFFFFFFFFFFFF
FFFFFE00FFFFFFFFFFFFFFFE00FFFFFF
FFFFFC003FFFFFFFFFFFFFFC003FFFFF
FFFFF8001FFFFFFFFFFFFFF8001FFFFF
FFFFF0000FFFFFFFFFFFFFF0000FFFFF
FFFFE00007FFFFFFFFFFFFE00007FFFF
FFFFC00007FFFFFFFFFFFFC00007FFFF
FFFFC00003FFFFFFFFFFFFC00003FFFF
FFFFC00003FFFFFFFFFFFFC00003FFFF
FFFF800003FFFFFFFFFFFF800003FFFF
FFFF800003FFFFFFFFFFFF800003FFFF
FFFF800003FFFFFFFFFFFF800003FFFF
FFFFC00003FFFFFFFFFFFFC00003FFFF
FFFFC00003FFFFFFFFFFFFC00003FFFF
FFFFC00003FFFFFFFFFFFFC00003FFFF
FFFFC00007FFFFFFFFFFFFE00007FFFF
FFFFE00007FFFFFFFFFFFFE00007FFFF
FFFFF0000FFFFFFFFFFFFFF0000FFFFF
FFFFF8001FFFFFFFFFFFFFF8001FFFFF
FFFFFE001FFFFFFFFFFFFFF8007FFFFF
FFFFFF800FFFFFFFFFFFFFF801FFFFFF
FFFFFFC00FFFFFFFFFFFFFF001FFFFFF
FFFFFFC00FFFFFFFFFFFFFF003FFFFFF
FFFFFFC00FFFFFFFFFFFFFF003FFFFFF
FFFFFFC00FFFFFFFFFFFFFF003FFFFFF
FFFFFFC007FFFFFFFFFFFFF003FFFFFF
FFFFFFE007FFFFFFFFFFFFE003FFFFFF
FFFFFFE007FFFFFFFFFFFFE007FFFFFF
FFFFFFE007FFFFFFFFFFFFE007FFFFFF
FFFFFFE007FFFFFFFFFFFFE007FFFFFF
FFFFFFE003FFFFFFFFFFFFC007FFFFFF
FFFFFFF003FFFFFFFFFFFFC00FFFFFFF
FFFFFFF003FFFFFFFFFFFFC00FFFFFFF
FFFFFFF003FFFFFFFFFFFFC00FFFFFFF
FFFFFFF003FFFFFFFFFFFFC00FFFFFFF
FFFFFFF801FFFFFFFFFFFF800FFFFFFF
FFFFFFF801FFFFFFFFFFFF801FFFFFFF
FFFFFFF801FFFFFFFFFFFF801FFFFFFF
FFFFFFF801FFFFFFFFFFFF801FFFFFFF
FFFFFFF800FFFFFFFFFFFF801FFFFFFF
FFFFFFFC00FFFFFFFFFFFF001FFFFFFF
FFFFFFFC00FFFFFFFFFFFF003FFFFFFF
FFFFFFFC00FFFFFFFFFFFF003FFFFFFF
FFFFFFFC00FFFFFFFFFFFF003FFFFFFF
FFFFFFFC007FFFFFFFFFFE003FFFFFFF
FFFFFFFE007FFFFFFFFFFE003FFFFFFF
FFFFFFFE007FFFFFFFFFFE007FFFFFFF
FFFFFFFE007FFFFFFFFFFE007FFFFFFF
FFFFFFFE007FFFFFFFFFFE007FFFFFFF
FFFFFFFE003FFFFFFFFFFC007FFFFFFF
FFFFFFFF003FFFFFFFFFFC00FFFFFFFF
FFFFFFFF003FFFFFFFFFFC00FFFFFFFF
FFFFFFFF003FFFFFFFFFFC00FFFFFFFF
FFFFFFFF001FFFFFFFFFFC00FFFFFFFF
FFFFFFFF801FFFFFFFFFF800FFFFFFFF
FFFFFFFF801FFFFFFFFFF801FFFFFFFF
FFFFFFFF801FFFFFFFFFF801FFFFFFFF
FFFFFFFF801FFFFFFFFFF801FFFFFFFF
FFFFFFFF800FFFFFFFFFF801FFFFFFFF
FFFFFFFFC00FFFFFFFFFF001FFFFFFFF
FFFFFFFFC00FFFFFFFFFF003FFFFFFFF
FFFFFFFFC00FFFFFFFFFF003FFFFFFFF
FFFFFFFFC00FFFFFFFFFF003FFFFFFFF
FFFFFFFFC007FFFFFFFFE003FFFFFFFF
FFFFFFFFE007FFFFFFFFE007FFFFFFFF
FFFFFFFFE007FFFFFFFFE007FFFFFFFF
FFFFFFFFE007FFFFFFFFE007FFFFFFFF
FFFFFFFFE007FFFFFFFFE007FFFFFFFF
FFFFFFFFF003FFFFFFFFC007FFFFFFFF
FFFFFFFFF003FFFFFFFFC00FFFFFFFFF
FFFFFFFFF003FFFFFFFFC00FFFFFFFFF
FFFFFFFFF003FFFFFFFFC00FFFFFFFFF
FFFFFFFFF001FFFFFFFFC00FFFFFFFFE
7FFFFFFFF801FFFFFFFF800FFFFFFFFE
7FFFFFFFF801FFFFFFFF801FFFFFFFFE
7FFFFFFFF801FFFFFFFF801FFFFFFFFE
3FFFFFFFF800FFFFFFFF001FFFFFFFFC
3FFFFFFFF800FFFFFFFF001FFFFFFFFC
1FFFFFFFFC007FFFFFFE003FFFFFFFF8
0FFFFFFFFC003FFFFFFC003FFFFFFFF0
07FFFFFFFC001FFFFFF8003FFFFFFFE0
01FFFFFFFC0007FFFFE0003FFFFFFF80
007FFFFFFC0000FFFF80003FFFFFFE00
ENDCHAR
STARTCHAR 004E
ENCODING 78
SWIDTH 642 0
DWIDTH 122 0
BBX 100 154 11 0
BITMAP
007FFFFFF8000001FFFFFFE000
01FFFFFFFF000007FFFFFFF800
07FFFFFFFF80001FFFFFFFFE00
0FFFFFFFFFC0003FFFFFFFFF00
1FFFFFFFFFE0003FFFFFFFFF80
3FFFFFFFFFF0007FFFFFFFFFC0
3FFFFFFFFFF000FFFFFFFFFFC0
7FFFFFFFFFF800FFFFFFFFFFE0
7FFFFFFFFFF800FFFFFFFFFFE0
7FFFFFFFFFF800FFFFFFFFFFE0
7FFFFFFFFFFC00FFFFFFFFFFF0
FFFFFFFFFFFC007FFFFFFFFFF0
FFFFFFFFFFFC007FFFFFFFFFF0
FFFFFFFFFFFE007FFFFFFFFFF0
FFFFFFFFFFFE003FFFFFFFFFF0
FFFFFFFFFFFF003FFFFFFFFFF0
FFFFFFFFFFFF003FFFFFFFFFF0
FFFFFFFFFFFF001FFFFFFFFFF0
FFFFFFFFFFFF801FFFFFFFFFF0
FFFFFFFFFFFF800FFFFFFFFFF0
FFFFFFFFFFFF800FFFFFFFFFF0
FFFFFFFFFFFFC00FFFFFFFFFF0
FFFFFFFFFFFFC007FFFFFFFFF0
FFFFFFFFFFFFC007FFFFFFFFF0
FFFFFFFFFFFFE007FFFFFFFFF0
FFFFFFFFFFFFE003FFFFFFFFF0
FFFFFFFFFFFFF003FFFFFFFFF0
FFFFFFFFFFFFF003FFFFFFFFF0
FFFFFFFFFFFFF001FFFFFFFFF0
FFFFFFFFFFFFF801FFFFFFFFF0
FFFFFFFFFFFFF800FFFFFFFFF0
FFFFFFFFFFFFF800FFFFFFFFF0
FFFFFFFFFFFFFC00FFFFFFFFF0
FFFFFFFFFFFFFC007FFFFFFFF0
FFFFFFFFFFFFFC007FFFFFFFF0
FFFFFFFFFFFFFE007FFFFFFFF0
FFFFFFFFFFFFFE003FFFFFFFF0
FFFFFFFFFFFFFF003FFFFFFFF0
FFFFFFFFFFFFFF003FFFFFFFF0
FFFFFFFFFFFFFF001FFFFFFFF0
FFFFFFFFFFFFFF801FFFFFFFF0
FFFFFFFFFFFFFF800FFFFFFFF0
FFFFFFFFFFFFFF800FFFFFFFF0
FFFFFFFFFFFFFFC00FFFFFFFF0
FFFFFFFFFFFFFFC007FFFFFFF0
FFFFFFFFFFFFFFC007FFFFFFF0
FFFFFFFFFFFFFFE007FFFFFFF0
FFFFFFFFFFFFFFE003FFFFFFF0
FFFFFFFFFFFFFFF000FFFFFFF0
FFFFFFFFFFFFFFF0003FFFFFF0
FFFFFFFFFFFFFFF0001FFFFFF0
FFFFFFFFFFFFFFF8000FFFFFF0
FFFFFFFFFFFFFFF00007FFFFF0
FFFFFFFFFFFFFFE00007FFFFF0
FFFFFFFFFFFFFFC00003FFFFF0
FFFFFFFFFFFFFFC00003FFFFF0
FFFFFFFFFFFFFFC00003FFFFF0
FFFFFFFFFFFFFF800003FFFFF0
FFFFFFFFFFFFFF800003FFFFF0
FFFFFFFFFFFFFF800003FFFFF0
FFFFFFFFFFFFFFC00003FFFFF0
FFFFFFFFFFFFFFC00003FFFFF0
FFFFFFFFFFFFFFC00007FFFFF0
FFFFFFFFFFFFFFE00007FFFFF0
FFFFFFFFFFFFFFF0000FFFFFF0
FFFFFFFFFFFFFFF8001FFFFFF0
FFFFFFFFFFFFFFFC003FFFFFF0
FFFFFFFFFFFFFFFF00FFFFFFF0
FFFFFFFFFFFFFFFFFFFFFFFFF0
FFFFFFFFFFFFFFFFFFFFFFFFF0
FFFFFFFFFFFFFFFFFFFFFFFFF0
FFFFFFFFFFFFFFFFFFFFFFFFF0
FFFFFFFFFFFFFFFFFFFFFFFFF0
FFFFFFFFFFFFFFFFFFFFFFFFF0
FFFFFFFFFFFFFFFFFFFFFFFFF0
FFFFFFFFFFFFFFFFFFFFFFFFF0
FFFFFFFFFFFFFFFFFFFFFFFFF0
FFFFFFFFFFFFFFFFFFFFFFFFF0
FFFFFFFFFFFFFFFFFFFFFFFFF0
FFFFFFFFFFFFFFFFFFFFFFFFF0
FFFFFFFFFFFFFFFFFFFFFFFFF0
FFFFFFFFFFFFFFFFFFFFFFFFF0
FFFFFFF83FFFFFFFFFFFFFFFF0
FFFFFFC00FFFFFFFFFFFFFFFF0
FFFFFF0003FFFFFFFFFFFFFFF0
FFFFFE0001FFFFFFFFFFFFFFF0
FFFFFC0001FFFFFFFFFFFFFFF0
FFFFFC0000FFFFFFFFFFFFFFF0
FFFFF800007FFFFFFFFFFFFFF0
FFFFF800007FFFFFFFFFFFFFF0
FFFFF800007FFFFFFFFFFFFFF0
FFFFF000007FFFFFFFFFFFFFF0
FFFFF000007FFFFFFFFFFFFFF0
FFFFF000007FFFFFFFFFFFFFF0
FFFFF800007FFFFFFFFFFFFFF0
FFFFF800007FFFFFFFFFFFFFF0
FFFFF80000FFFFFFFFFFFFFFF0
FFFFFC0000FFFFFFFFFFFFFFF0
FFFFFE0001FFFFFFFFFFFFFFF0
FFFFFE0003FFFFFFFFFFFFFFF0
FFFFFF0001FFFFFFFFFFFFFFF0
FFFFFFC001FFFFFFFFFFFFFFF0
FFFFFFF800FFFFFFFFFFFFFFF0
FFFFFFF800FFFFFFFFFFFFFFF0
FFFFFFFC00FFFFFFFFFFFFFFF0
FFFFFFFC007FFFFFFFFFFFFFF0
FFFFFFFC007FFFFFFFFFFFFFF0
FFFFFFFE007FFFFFFFFFFFFFF0
FFFFFFFE003FFFFFFFFFFFFFF0
FFFFFFFE003FFFFFFFFFFFFFF0
FFFFFFFF003FFFFFFFFFFFFFF0
FFFFFFFF001FFFFFFFFFFFFFF0
FFFFFFFF801FFFFFFFFFFFFFF0
FFFFFFFF800FFFFFFFFFFFFFF0
FFFFFFFF800FFFFFFFFFFFFFF0
FFFFFFFFC00FFFFFFFFFFFFFF0
FFFFFFFFC007FFFFFFFFFFFFF0
FFFFFFFFC007FFFFFFFFFFFFF0
FFFFFFFFE007FFFFFFFFFFFFF0
FFFFFFFFE003FFFFFFFFFFFFF0
FFFFFFFFE003FFFFFFFFFFFFF0
FFFFFFFFF003FFFFFFFFFFFFF0
FFFFFFFFF001FFFFFFFFFFFFF0
FFFFFFFFF801FFFFFFFFFFFFF0
FFFFFFFFF800FFFFFFFFFFFFF0
FFFFFFFFF800FFFFFFFFFFFFF0
FFFFFFFFFC00FFFFFFFFFFFFF0
FFFFFFFFFC007FFFFFFFFFFFF0
FFFFFFFFFC007FFFFFFFFFFFF0
FFFFFFFFFE007FFFFFFFFFFFF0
FFFFFFFFFE003FFFFFFFFFFFF0
FFFFFFFFFE003FFFFFFFFFFFF0
FFFFFFFFFF003FFFFFFFFFFFF0
FFFFFFFFFF001FFFFFFFFFFFF0
FFFFFFFFFF801FFFFFFFFFFFF0
FFFFFFFFFF801FFFFFFFFFFFF0
FFFFFFFFFF800FFFFFFFFFFFF0
FFFFFFFFFFC00FFFFFFFFFFFF0
FFFFFFFFFFC007FFFFFFFFFFF0
FFFFFFFFFFC007FFFFFFFFFFF0
FFFFFFFFFFE007FFFFFFFFFFF0
FFFFFFFFFFE003FFFFFFFFFFF0
FFFFFFFFFFE003FFFFFFFFFFF0
FFFFFFFFFFF003FFFFFFFFFFF0
7FFFFFFFFFF001FFFFFFFFFFE0
7FFFFFFFFFF001FFFFFFFFFFE0
7FFFFFFFFFF001FFFFFFFFFFE0
3FFFFFFFFFF000FFFFFFFFFFC0
3FFFFFFFFFE000FFFFFFFFFFC0
1FFFFFFFFFE0007FFFFFFFFF80
0FFFFFFFFFC0003FFFFFFFFF00
07FFFFFFFF80001FFFFFFFFE00
01FFFFFFFE00000FFFFFFFF800
007FFFFFF8000001FFFFFFE000
ENDCHAR
STARTCHAR 004F
ENCODING 79
SWIDTH 642 0
DWIDTH 122 0
BBX 100 154 11 0
BITMAP
000001FFFFFFFFFFFFF8000000
00001FFFFFFFFFFFFFFF800000
00007FFFFFFFFFFFFFFFF00000
0001FFFFFFFFFFFFFFFFF80000
0007FFFFFFFFFFFFFFFFFE0000
000FFFFFFFFFFFFFFFFFFF8000
003FFFFFFFFFFFFFFFFFFFC000
007FFFFFFFFFFFFFFFFFFFE000
00FFFFFFFFFFFFFFFFFFFFF000
01FFFFFFFFFFFFFFFFFFFFF800
03FFFFFFFFFFFFFFFFFFFFFC00
03FFFFFFFFFFFFFFFFFFFFFC00
07FFFFFFFFFFFFFFFFFFFFFE00
0FFFFFFFFFFFFFFFFFFFFFFF00
0FFFFFFFFFFFFFFFFFFFFFFF00
1FFFFFFFFFFFFFFFFFFFFFFF80
1FFFFFFFFFFFFFFFFFFFFFFF80
3FFFFFFFFFFFFFFFFFFFFFFFC0
3FFFFFFFFFFFFFFFFFFFFFFFC0
3FFFFFFFFFFFFFFFFFFFFFFFE0
7FFFFFFFFFFFFFFFFFFFFFFFE0
7FFFFFFFFFFFFFFFFFFFFFFFE0
7FFFFFFFFFFFFFFFFFFFFFFFE0
7FFFFFFFFFFFFFFFFFFFFFFFE0
7FFFFFFFFFFFFFFFFFFFFFFFF0
FFFFFFFFFFFFFFFFFFFFFFFFF0
FFFFFFFFFFFFFFFFFFFFFFFFF0
FFFFFFFFFFFFFFFFFFFFFFFFF0
FFFFFFFFFFFF9FFFFFFFFFFFF0
FFFFFFFFFFF801FFFFFFFFFFF0
FFFFFFFFFFF000FFFFFFFFFFF0
FFFFFFFFFFC0007FFFFFFFFFF0
FFFFFFFFFFC0003FFFFFFFFFF0
FFFFFFFFFF80001FFFFFFFFFF0
FFFFFFFFFF00001FFFFFFFFFF0
FFFFFFFFFF00000FFFFFFFFFF0
FFFFFFFFFF00000FFFFFFFFFF0
FFFFFFFFFE00000FFFFFFFFFF0
FFFFFFFFFE00000FFFFFFFFFF0
FFFFFFFFFE00000FFFFFFFFFF0
FFFFFFFFFF00000FFFFFFFFFF0
FFFFFFFFFF00000FFFFFFFFFF0
FFFFFFFFFF00000FFFFFFFFFF0
FFFFFFFFFF00001FFFFFFFFFF0
FFFFFFFFFF80001FFFFFFFFFF0
FFFFFFFFFFC0003FFFFFFFFFF0
FFFFFFFFFFE0007FFFFFFFFFF0
FFFFFFFFFFF000FFFFFFFFFFF0
FFFFFFFFFFF001FFFFFFFFFFF0
FFFFFFFFFFF001FFFFFFFFFFF0
FFFFFFFFFFF001FFFFFFFFFFF0
FFFFFFFFFFF001FFFFFFFFFFF0
FFFFFFFFFFF001FFFFFFFFFFF0
FFFFFFFFFFF001FFFFFFFFFFF0
FFFFFFFFFFF001FFFFFFFFFFF0
FFFFFFFFFFF001FFFFFFFFFFF0
FFFFFFFFFFF001FFFFFFFFFFF0
FFFFFFFFFFF001FFFFFFFFFFF0
FFFFFFFFFFF001FFFFFFFFFFF0
FFFFFFFFFFF001FFFFFFFFFFF0
FFFFFFFFFFF001FFFFFFFFFFF0
FFFFFFFFFFF001FFFFFFFFFFF0
FFFFFFFFFFF001FFFFFFFFFFF0
FFFFFFFFFFF001FFFFFFFFFFF0
FFFFFFFFFFF001FFFFFFFFFFF0
FFFFFFFFFFF001FFFFFFFFFFF0
FFFFFFFFFFF001FFFFFFFFFFF0
FFFFFFFFFFF001FFFFFFFFFFF0
FFFFFFFFFFF001FFFFFFFFFFF0
FFFFFFFFFFF001FFFFFFFFFFF0
FFFFFFFFFFF001FFFFFFFFFFF0
FFFFFFFFFFF001FFFFFFFFFFF0
FFFFFFFFFFF001FFFFFFFFFFF0
FFFFFFFFFFF001FFFFFFFFFFF0
FFFFFFFFFFF001FFFFFFFFFFF0
FFFFFFFFFFF001FFFFFFFFFFF0
FFFFFFFFFFF001FFFFFFFFFFF0
FFFFFFFFFFF001FFFFFFFFFFF0
FFFFFFFFFFF001FFFFFFFFFFF0
FFFFFFFFFFF001FFFFFFFFFFF0
FFFFFFFFFFF001FFFFFFFFFFF0
FFFFFFFFFFF001FFFFFFFFFFF0
FFFFFFFFFFF001FFFFFFFFFFF0
FFFFFFFFFFF001FFFFFFFFFFF0
FFFFFFFFFFF001FFFFFFFFFFF0
FFFFFFFFFFF001FFFFFFFFFFF0
FFFFFFFFFFF001FFFFFFFFFFF0
FFFFFFFFFFF001FFFFFFFFFFF0
FFFFFFFFFFF001FFFFFFFFFFF0
FFFFFFFFFFF001FFFFFFFFFFF0
FFFFFFFFFFF001FFFFFFFFFFF0
FFFFFFFFFFF001FFFFFFFFFFF0
FFFFFFFFFFF001FFFFFFFFFFF0
FFFFFFFFFFF001FFFFFFFFFFF0
FFFFFFFFFFF001FFFFFFFFFFF0
FFFFFFFFFFF001FFFFFFFFFFF0
FFFFFFFFFFF001FFFFFFFFFFF0
FFFFFFFFFFF001FFFFFFFFFFF0
FFFFFFFFFFF001FFFFFFFFFFF0
FFFFFFFFFFF001FFFFFFFFFFF0
FFFFFFFFFFF001FFFFFFFFFFF0
FFFFFFFFFFF001FFFFFFFFFFF0
FFFFFFFFFFF001FFFFFFFFFFF0
FFFFFFFFFFF001FFFFFFFFFFF0
FFFFFFFFFFF001FFFFFFFFFFF0
FFFFFFFFFFF001FFFFFFFFFFF0
FFFFFFFFFFF000FFFFFFFFFFF0
FFFFFFFFFFE0007FFFFFFFFFF0
FFFFFFFFFFC0003FFFFFFFFFF0
FFFFFFFFFF80001FFFFFFFFFF0
FFFFFFFFFF00001FFFFFFFFFF0
FFFFFFFFFF00000FFFFFFFFFF0
FFFFFFFFFF00000FFFFFFFFFF0
FFFFFFFFFE00000FFFFFFFFFF0
FFFFFFFFFE00000FFFFFFFFFF0
FFFFFFFFFE00000FFFFFFFFFF0
FFFFFFFFFF00000FFFFFFFFFF0
FFFFFFFFFF00000FFFFFFFFFF0
FFFFFFFFFF00000FFFFFFFFFF0
FFFFFFFFFF00001FFFFFFFFFF0
FFFFFFFFFF80001FFFFFFFFFF0
FFFFFFFFFFC0003FFFFFFFFFF0
FFFFFFFFFFE0007FFFFFFFFFF0
FFFFFFFFFFF000FFFFFFFFFFF0
FFFFFFFFFFFC03FFFFFFFFFFF0
FFFFFFFFFFFFFFFFFFFFFFFFF0
FFFFFFFFFFFFFFFFFFFFFFFFF0
FFFFFFFFFFFFFFFFFFFFFFFFF0
FFFFFFFFFFFFFFFFFFFFFFFFF0
7FFFFFFFFFFFFFFFFFFFFFFFF0
7FFFFFFFFFFFFFFFFFFFFFFFE0
7FFFFFFFFFFFFFFFFFFFFFFFE0
7FFFFFFFFFFFFFFFFFFFFFFFE0
7FFFFFFFFFFFFFFFFFFFFFFFE0
3FFFFFFFFFFFFFFFFFFFFFFFE0
3FFFFFFFFFFFFFFFFFFFFFFFC0
3FFFFFFFFFFFFFFFFFFFFFFFC0
1FFFFFFFFFFFFFFFFFFFFFFF80
1FFFFFFFFFFFFFFFFFFFFFFF80
0FFFFFFFFFFFFFFFFFFFFFFF00
0FFFFFFFFFFFFFFFFFFFFFFF00
07FFFFFFFFFFFFFFFFFFFFFE00
03FFFFFFFFFFFFFFFFFFFFFC00
03FFFFFFFFFFFFFFFFFFFFFC00
01FFFFFFFFFFFFFFFFFFFFF800
00FFFFFFFFFFFFFFFFFFFFF000
007FFFFFFFFFFFFFFFFFFFE000
003FFFFFFFFFFFFFFFFFFFC000
000FFFFFFFFFFFFFFFFFFF8000
0007FFFFFFFFFFFFFFFFFE0000
0001FFFFFFFFFFFFFFFFFC0000
0000FFFFFFFFFFFFFFFFF00000
00001FFFFFFFFFFFFFFF800000
000001FFFFFFFFFFFFF8000000
ENDCHAR
STARTCHAR 0050
ENCODING 80
SWIDTH 621 0
DWIDTH 118 0
BBX 99 154 11 0
BITMAP
003FFFFFFFFFFFFFFFFFE00000
01FFFFFFFFFFFFFFFFFFFC0000
07FFFFFFFFFFFFFFFFFFFF8000
0FFFFFFFFFFFFFFFFFFFFFC000
1FFFFFFFFFFFFFFFFFFFFFE000
3FFFFFFFFFFFFFFFFFFFFFF800
3FFFFFFFFFFFFFFFFFFFFFFC00
7FFFFFFFFFFFFFFFFFFFFFFE00
7FFFFFFFFFFFFFFFFFFFFFFE00
7FFFFFFFFFFFFFFFFFFFFFFF00
7FFFFFFFFFFFFFFFFFFFFFFF80
FFFFFFFFFFFFFFFFFFFFFFFF80
FFFFFFFFFFFFFFFFFFFFFFFFC0
FFFFFFFFFFFFFFFFFFFFFFFFC0
FFFFFFFFFFFFFFFFFFFFFFFFC0
FFFFFFFFFFFFFFFFFFFFFFFFE0
FFFFFFFFFFFFFFFFFFFFFFFFE0
FFFFFFFFFFFFFFFFFFFFFFFFE0
FFFFFFFFFFFFFFFFFFFFFFFFE0
FFFFFFFFFFFFFFFFFFFFFFFFE0
FFFFFFFFFFFFFFFFFFFFFFFFE0
FFFFFFFFFFFFFFFFFFFFFFFFE0
FFFFFFFFFFFFFFFFFFFFFFFFE0
FFFFFFFFFFFFFFFFFFFFFFFFE0
FFFFFFFFFFFFFFFFFFFFFFFFE0
FFFFFFFFFFFFFFFFFFFFFFFFE0
FFFFFFFFFFFFFFFFFFFFFFFFE0
FFFFFFFFFFFFFFFFFFFFFFFFE0
FFFFFFFFFFFFFFFFFFFFFFFFE0
FFFFFFFFFFFC0FFFFFFFFFFFE0
FFFFFFFFFFF001FFFFFFFFFFE0
FFFFFFFFFFE000FFFFFFFFFFE0
FFFFFFFFFFC0007FFFFFFFFFE0
FFFFFFFFFF80003FFFFFFFFFE0
FFFFFFFFFF80003FFFFFFFFFE0
FFFFFFFFFF00001FFFFFFFFFE0
FFFFFFFFFF00001FFFFFFFFFE0
FFFFFFFFFF00001FFFFFFFFFE0
FFFFFFFFFE00001FFFFFFFFFE0
FFFFFFFFFE00001FFFFFFFFFE0
FFFFFFFFFE00001FFFFFFFFFE0
FFFFFFFFFE00001FFFFFFFFFE0
FFFFFFFFFE00001FFFFFFFFFE0
FFFFFFFFFE00001FFFFFFFFFE0
FFFFFFFFFE00001FFFFFFFFFE0
FFFFFFFFFE00001FFFFFFFFFE0
FFFFFFFFFE00001FFFFFFFFFE0
FFFFFFFFFE00001FFFFFFFFFE0
FFFFFFFFFE00001FFFFFFFFFE0
FFFFFFFFFE00001FFFFFFFFFE0
FFFFFFFFFE00001FFFFFFFFFE0
FFFFFFFFFE00001FFFFFFFFFE0
FFFFFFFFFE00001FFFFFFFFFE0
FFFFFFFFFE00001FFFFFFFFFE0
FFFFFFFFFF00001FFFFFFFFFE0
FFFFFFFFFF00001FFFFFFFFFE0
FFFFFFFFFF00001FFFFFFFFFE0
FFFFFFFFFF00003FFFFFFFFFE0
FFFFFFFFFF80003FFFFFFFFFE0
FFFFFFFFFFC0007FFFFFFFFFE0
FFFFFFFFFFE000FFFFFFFFFFE0
FFFFFFFFFFF003FFFFFFFFFFE0
FFFFFFFFFFF003FFFFFFFFFFE0
FFFFFFFFFFF003FFFFFFFFFFE0
FFFFFFFFFFF003FFFFFFFFFFE0
FFFFFFFFFFF003FFFFFFFFFFE0
FFFFFFFFFFF003FFFFFFFFFFE0
FFFFFFFFFFF003FFFFFFFFFFE0
FFFFFFFFFFF003FFFFFFFFFFE0
FFFFFFFFFFF003FFFFFFFFFFE0
FFFFFFFFFFF003FFFFFFFFFFE0
FFFFFFFFFFF003FFFFFFFFFFE0
FFFFFFFFFFF003FFFFFFFFFFE0
FFFFFFFFFFF003FFFFFFFFFFE0
FFFFFFFFFFF003FFFFFFFFFFE0
FFFFFFFFFFF003FFFFFFFFFFE0
FFFFFFFFFFF003FFFFFFFFFFE0
FFFFFFFFFFF003FFFFFFFFFFC0
FFFFFFFFFFF003FFFFFFFFFFC0
FFFFFFFFFFF003FFFFFFFFFFC0
FFFFFFFFFFF003FFFFFFFFFF80
FFFFFFFFFFF003FFFFFFFFFF80
FFFFFFFFFFF003FFFFFFFFFF00
FFFFFFFFFFF003FFFFFFFFFE00
FFFFFFFFFFF003FFFFFFFFFC00
FFFFFFFFFFF003FFFFFFFFF800
FFFFFFFFFFF003FFFFFFFFF000
FFFFFFFFFFF003FFFFFFFFE000
FFFFFFFFFFF003FFFFFFFFC000
FFFFFFFFFFF003FFFFFFFF0000
FFFFFFFFFFF003FFFFFFFC0000
FFFFFFFFFFF003FFFFFF000000
FFFFFFFFFFF000000000000000
FFFFFFFFFFF000000000000000
FFFFFFFFFFF000000000000000
FFFFFFFFFFF000000000000000
FFFFFFFFFFF000000000000000
FFFFFFFFFFF000000000000000
FFFFFFFFFFF000000000000000
FFFFFFFFFFF000000000000000
FFFFFFFFFFF000000000000000
FFFFFFFFFFF000000000000000
FFFFFFFFFFF000000000000000
FFFFFFFFFFF000000000000000
FFFFFFFFFFF000000000000000
FFFFFFFFFFF000000000000000
FFFFFFFFFFF000000000000000
FFFFFFFFFFF000000000000000
FFFFFFFFFFF000000000000000
FFFFFFFFFFF000000000000000
FFFFFFFFFFF000000000000000
FFFFFFFFFFF000000000000000
FFFFFFFFFFF000000000000000
FFFFFFFFFFF000000000000000
FFFFFFFFFFF000000000000000
FFFFFFFFFFF000000000000000
FFFFFFFFFFF000000000000000
FFFFFFFFFFF000000000000000
FFFFFFFFFFF000000000000000
FFFFFFFFFFF000000000000000
FFFFFFFFFFF000000000000000
FFFFFFFFFFF000000000000000
FFFFFFFFFFF000000000000000
FFFFFFFFFFF000000000000000
FFFFFFFFFFF000000000000000
FFFFFFFFFFF000000000000000
FFFFFFFFFFF000000000000000
FFFFFFFFFFF000000000000000
FFFFFFFFFFF000000000000000
FFFFFFFFFFF000000000000000
FFFFFFFFFFF000000000000000
FFFFFFFFFFF000000000000000
FFFFFFFFFFF000000000000000
FFFFFFFFFFF000000000000000
FFFFFFFFFFF000000000000000
FFFFFFFFFFF000000000000000
FFFFFFFFFFF000000000000000
FFFFFFFFFFF000000000000000
FFFFFFFFFFF000000000000000
FFFFFFFFFFF000000000000000
FFFFFFFFFFF000000000000000
FFFFFFFFFFF000000000000000
FFFFFFFFFFF000000000000000
7FFFFFFFFFF000000000000000
7FFFFFFFFFF000000000000000
7FFFFFFFFFF000000000000000
7FFFFFFFFFF000000000000000
3FFFFFFFFFE000000000000000
3FFFFFFFFFE000000000000000
1FFFFFFFFFC000000000000000
0FFFFFFFFF8000000000000000
07FFFFFFFF0000000000000000
01FFFFFFFC0000000000000000
007FFFFFF00000000000000000
ENDCHAR
STARTCHAR 0051
ENCODING 81
SWIDTH 642 0
DWIDTH 122 0
BBX 100 171 11 -17
BITMAP
000001FFFFFFFFFFFFF8000000
00001FFFFFFFFFFFFFFF800000
00007FFFFFFFFFFFFFFFF00000
0001FFFFFFFFFFFFFFFFF80000
0007FFFFFFFFFFFFFFFFFE0000
000FFFFFFFFFFFFFFFFFFF8000
003FFFFFFFFFFFFFFFFFFFC000
007FFFFFFFFFFFFFFFFFFFE000
00FFFFFFFFFFFFFFFFFFFFF000
01FFFFFFFFFFFFFFFFFFFFF800
03FFFFFFFFFFFFFFFFFFFFFC00
03FFFFFFFFFFFFFFFFFFFFFC00
07FFFFFFFFFFFFFFFFFFFFFE00
0FFFFFFFFFFFFFFFFFFFFFFF00
0FFFFFFFFFFFFFFFFFFFFFFF00
1FFFFFFFFFFFFFFFFFFFFFFF80
1FFFFFFFFFFFFFFFFFFFFFFF80
3FFFFFFFFFFFFFFFFFFFFFFFC0
3FFFFFFFFFFFFFFFFFFFFFFFC0
3FFFFFFFFFFFFFFFFFFFFFFFE0
7FFFFFFFFFFFFFFFFFFFFFFFE0
7FFFFFFFFFFFFFFFFFFFFFFFE0
7FFFFFFFFFFFFFFFFFFFFFFFE0
7FFFFFFFFFFFFFFFFFFFFFFFE0
7FFFFFFFFFFFFFFFFFFFFFFFF0
FFFFFFFFFFFFFFFFFFFFFFFFF0
FFFFFFFFFFFFFFFFFFFFFFFFF0
FFFFFFFFFFFFFFFFFFFFFFFFF0
FFFFFFFFFFFF9FFFFFFFFFFFF0
FFFFFFFFFFF801FFFFFFFFFFF0
FFFFFFFFFFF000FFFFFFFFFFF0
FFFFFFFFFFC0007FFFFFFFFFF0
FFFFFFFFFFC0003FFFFFFFFFF0
FFFFFFFFFF80001FFFFFFFFFF0
FFFFFFFFFF00001FFFFFFFFFF0
FFFFFFFFFF00000FFFFFFFFFF0
FFFFFFFFFF00000FFFFFFFFFF0
FFFFFFFFFE00000FFFFFFFFFF0
FFFFFFFFFE00000FFFFFFFFFF0
FFFFFFFFFE00000FFFFFFFFFF0
FFFFFFFFFF00000FFFFFFFFFF0
FFFFFFFFFF00000FFFFFFFFFF0
FFFFFFFFFF00000FFFFFFFFFF0
FFFFFFFFFF00001FFFFFFFFFF0
FFFFFFFFFF80001FFFFFFFFFF0
FFFFFFFFFFC0003FFFFFFFFFF0
FFFFFFFFFFE0007FFFFFFFFFF0
FFFFFFFFFFF000FFFFFFFFFFF0
FFFFFFFFFFF001FFFFFFFFFFF0
FFFFFFFFFFF001FFFFFFFFFFF0
FFFFFFFFFFF001FFFFFFFFFFF0
FFFFFFFFFFF001FFFFFFFFFFF0
FFFFFFFFFFF001FFFFFFFFFFF0
FFFFFFFFFFF001FFFFFFFFFFF0
FFFFFFFFFFF001FFFFFFFFFFF0
FFFFFFFFFFF001FFFFFFFFFFF0
FFFFFFFFFFF001FFFFFFFFFFF0
FFFFFFFFFFF001FFFFFFFFFFF0
FFFFFFFFFFF001FFFFFFFFFFF0
FFFFFFFFFFF001FFFFFFFFFFF0
FFFFFFFFFFF001FFFFFFFFFFF0
FFFFFFFFFFF001FFFFFFFFFFF0
FFFFFFFFFFF001FFFFFFFFFFF0
FFFFFFFFFFF001FFFFFFFFFFF0
FFFFFFFFFFF001FFFFFFFFFFF0
FFFFFFFFFFF001FFFFFFFFFFF0
FFFFFFFFFFF001FFFFFFFFFFF0
FFFFFFFFFFF001FFFFFFFFFFF0
FFFFFFFFFFF001FFFFFFFFFFF0
FFFFFFFFFFF001FFFFFFFFFFF0
FFFFFFFFFFF001FFFFFFFFFFF0
FFFFFFFFFFF001FFFFFFFFFFF0
FFFFFFFFFFF001FFFFFFFFFFF0
FFFFFFFFFFF001FFFFFFFFFFF0
FFFFFFFFFFF001FFFFFFFFFFF0
FFFFFFFFFFF001FFFFFFFFFFF0
FFFFFFFFFFF001FFFFFFFFFFF0
FFFFFFFFFFF001FFFFFFFFFFF0
FFFFFFFFFFF001FFFFFFFFFFF0
FFFFFFFFFFF001FFFFFFFFFFF0
FFFFFFFFFFF001FFFFFFFFFFF0
FFFFFFFFFFF001FFFFFFFFFFF0
FFFFFFFFFFF001FFFFFFFFFFF0
FFFFFFFFFFF001FFFFFFFFFFF0
FFFFFFFFFFF001FFFFFFFFFFF0
FFFFFFFFFFF001FFFFFFFFFFF0
FFFFFFFFFFF001FFFFFFFFFFF0
FFFFFFFFFFF001FFFFFFFFFFF0
FFFFFFFFFFF001FFFFFFFFFFF0
FFFFFFFFFFF001FFFFFFFFFFF0
FFFFFFFFFFF001FFFFFFFFFFF0
FFFFFFFFFFF001FFFFFFFFFFF0
FFFFFFFFFFF001FFFFFFFFFFF0
FFFFFFFFFFF001FFFFFFFFFFF0
FFFFFFFFFFF001FFFFFFFFFFF0
FFFFFFFFFFF001FFFFFFFFFFF0
FFFFFFFFFFF001FFFFFFFFFFF0
FFFFFFFFFFF001FFFFFFFFFFF0
FFFFFFFFFFF001FFFFFFFFFFF0
FFFFFFFFFFF001FFFFFFFFFFF0
FFFFFFFFFFF001FFFFFFFFFFF0
FFFFFFFFFFF001FFFFFFFFFFF0
FFFFFFFFFFF001FFFFFFFFFFF0
FFFFFFFFFFF001FFFFFFFFFFF0
FFFFFFFFFFF001FFFFFFFFFFF0
FFFFFFFFFFF001FFFFFFFFFFF0
FFFFFFFFFFF000FFFFFFFFFFF0
FFFFFFFFFFE0007FFFFFFFFFF0
FFFFFFFFFFC0003FFFFFFFFFF0
FFFFFFFFFF80001FFFFFFFFFF0
FFFFFFFFFF00001FFFFFFFFFF0
FFFFFFFFFF00000FFFFFFFFFF0
FFFFFFFFFF00000FFFFFFFFFF0
FFFFFFFFFE00000FFFFFFFFFF0
FFFFFFFFFE00000FFFFFFFFFF0
FFFFFFFFFE00000FFFFFFFFFF0
FFFFFFFFFF00000FFFFFFFFFF0
FFFFFFFFFF00000FFFFFFFFFF0
FFFFFFFFFF00000FFFFFFFFFF0
FFFFFFFFFF00001FFFFFFFFFF0
FFFFFFFFFF80001FFFFFFFFFF0
FFFFFFFFFFC0003FFFFFFFFFF0
FFFFFFFFFFE0007FFFFFFFFFF0
FFFFFFFFFFF000FFFFFFFFFFF0
FFFFFFFFFFFC03FFFFFFFFFFF0
FFFFFFFFFFFFFFFFFFFFFFFFF0
FFFFFFFFFFFFFFFFFFFFFFFFF0
FFFFFFFFFFFFFFFFFFFFFFFFF0
7FFFFFFFFFFFFFFFFFFFFFFFF0
7FFFFFFFFFFFFFFFFFFFFFFFF0
7FFFFFFFFFFFFFFFFFFFFFFFE0
7FFFFFFFFFFFFFFFFFFFFFFFE0
7FFFFFFFFFFFFFFFFFFFFFFFE0
3FFFFFFFFFFFFFFFFFFFFFFFE0
3FFFFFFFFFFFFFFFFFFFFFFFC0
3FFFFFFFFFFFFFFFFFFFFFFFC0
1FFFFFFFFFFFFFFFFFFFFFFF80
1FFFFFFFFFFFFFFFFFFFFFFF80
0FFFFFFFFFFFFFFFFFFFFFFF00
0FFFFFFFFFFFFFFFFFFFFFFF00
07FFFFFFFFFFFFFFFFFFFFFE00
03FFFFFFFFFFFFFFFFFFFFFC00
01FFFFFFFFFFFFFFFFFFFFF800
00FFFFFFFFFFFFFFFFFFFFF000
007FFFFFFFFFFFFFFFFFFFE000
003FFFFFFFFFFFFFFFFFFFC000
001FFFFFFFFFFFFFFFFFFF8000
000FFFFFFFFFFFFFFFFFFF0000
0003FFFFFFFFFFFFFFFFFC0000
0001FFFFFFFFFFFFFFFFF80000
00007FFFFFFFFFFFFFFFE00000
00001FFFFFFFFFFFFFFF800000
000003FFFFFFFFFFFFFC000000
0000003FFFFFFFFFFFC0000000
00000003FFFFFFFFF800000000
00000003FFFFFFFFF800000000
00000003FFFFFFFFF800000000
00000003FFFFFFFFF800000000
00000003FFFFFFFFF800000000
00000003FFFFFFFFF800000000
00000003FFFFFFFFF800000000
00000001FFFFFFFFF800000000
00000001FFFFFFFFF800000000
00000001FFFFFFFFF000000000
00000000FFFFFFFFF000000000
00000000FFFFFFFFE000000000
000000007FFFFFFFC000000000
000000003FFFFFFFC000000000
000000001FFFFFFF0000000000
0000000007FFFFFE0000000000
0000000001FFFFF80000000000
ENDCHAR
STARTCHAR 0052
ENCODING 82
SWIDTH 642 0
DWIDTH 122 0
BBX 100 154 11 0
BITMAP
007FFFFFFFFFFFFFFFF0000000
01FFFFFFFFFFFFFFFFFF800000
07FFFFFFFFFFFFFFFFFFE00000
0FFFFFFFFFFFFFFFFFFFF80000
1FFFFFFFFFFFFFFFFFFFFE0000
3FFFFFFFFFFFFFFFFFFFFF0000
3FFFFFFFFFFFFFFFFFFFFFC000
7FFFFFFFFFFFFFFFFFFFFFE000
7FFFFFFFFFFFFFFFFFFFFFF000
7FFFFFFFFFFFFFFFFFFFFFF800
7FFFFFFFFFFFFFFFFFFFFFFC00
FFFFFFFFFFFFFFFFFFFFFFFC00
FFFFFFFFFFFFFFFFFFFFFFFE00
FFFFFFFFFFFFFFFFFFFFFFFF00
FFFFFFFFFFFFFFFFFFFFFFFF00
FFFFFFFFFFFFFFFFFFFFFFFF80
FFFFFFFFFFFFFFFFFFFFFFFF80
FFFFFFFFFFFFFFFFFFFFFFFFC0
FFFFFFFFFFFFFFFFFFFFFFFFC0
FFFFFFFFFFFFFFFFFFFFFFFFC0
FFFFFFFFFFFFFFFFFFFFFFFFE0
FFFFFFFFFFFFFFFFFFFFFFFFE0
FFFFFFFFFFFFFFFFFFFFFFFFE0
FFFFFFFFFFFFFFFFFFFFFFFFE0
FFFFFFFFFFFFFFFFFFFFFFFFF0
FFFFFFFFFFFFFFFFFFFFFFFFF0
FFFFFFFFFFFFFFFFFFFFFFFFF0
FFFFFFFFFFFFFFFFFFFFFFFFF0
FFFFFFFFFFFFFFFFFFFFFFFFF0
FFFFFFFFFFFF03FFFFFFFFFFF0
FFFFFFFFFFF800FFFFFFFFFFF0
FFFFFFFFFFF0003FFFFFFFFFF0
FFFFFFFFFFE0001FFFFFFFFFF0
FFFFFFFFFFC0000FFFFFFFFFF0
FFFFFFFFFFC0000FFFFFFFFFF0
FFFFFFFFFF800007FFFFFFFFF0
FFFFFFFFFF800007FFFFFFFFF0
FFFFFFFFFF800007FFFFFFFFF0
FFFFFFFFFF000007FFFFFFFFF0
FFFFFFFFFF000007FFFFFFFFF0
FFFFFFFFFF000007FFFFFFFFF0
FFFFFFFFFF000007FFFFFFFFF0
FFFFFFFFFF000007FFFFFFFFF0
FFFFFFFFFF000007FFFFFFFFF0
FFFFFFFFFF000007FFFFFFFFF0
FFFFFFFFFF000007FFFFFFFFF0
FFFFFFFFFF000007FFFFFFFFF0
FFFFFFFFFF800007FFFFFFFFF0
FFFFFFFFFF800007FFFFFFFFF0
FFFFFFFFFF800007FFFFFFFFF0
FFFFFFFFFF80000FFFFFFFFFE0
FFFFFFFFFFC0000FFFFFFFFFE0
FFFFFFFFFFE0001FFFFFFFFFE0
FFFFFFFFFFF0003FFFFFFFFFE0
FFFFFFFFFFF800FFFFFFFFFFC0
FFFFFFFFFFFE03FFFFFFFFFFC0
FFFFFFFFFFFFFFFFFFFFFFFFC0
FFFFFFFFFFFFFFFFFFFFFFFF80
FFFFFFFFFFFFFFFFFFFFFFFF80
FFFFFFFFFFFFFFFFFFFFFFFF00
FFFFFFFFFFFFFFFFFFFFFFFE00
FFFFFFFFFFFFFFFFFFFFFFFE00
FFFFFFFFFFFFFFFFFFFFFFFC00
FFFFFFFFFFFFFFFFFFFFFFF800
FFFFFFFFFFFFFFFFFFFFFFF000
FFFFFFFFFFFFFFFFFFFFFFE000
FFFFFFFFFFFFFFFFFFFFFFC000
FFFFFFFFFFFFFFFFFFFFFF8000
FFFFFFFFFFFFFFFFFFFFFE0000
FFFFFFFFFFFFFFFFFFFFFF0000
FFFFFFFFFFFFFFFFFFFFFF8000
FFFFFFFFFFFFFFFFFFFFFFC000
FFFFFFFFFFFFFFFFFFFFFFE000
FFFFFFFFFFFFFFFFFFFFFFF000
FFFFFFFFFFFFFFFFFFFFFFF800
FFFFFFFFFFFFFFFFFFFFFFFC00
FFFFFFFFFFFFFFFFFFFFFFFE00
FFFFFFFFFFFFFFFFFFFFFFFF00
FFFFFFFFFFFFFFFFFFFFFFFF00
FFFFFFFFFFFFFFFFFFFFFFFF80
FFFFFFFFFFFFFFFFFFFFFFFF80
FFFFFFFFFFFFFFFFFFFFFFFFC0
FFFFFFFFFFFFFFFFFFFFFFFFC0
FFFFFFFFFFFFFFFFFFFFFFFFC0
FFFFFFFFFFFFFFFFFFFFFFFFE0
FFFFFFFFFFFE01FFFFFFFFFFE0
FFFFFFFFFFF8007FFFFFFFFFE0
FFFFFFFFFFF0003FFFFFFFFFE0
FFFFFFFFFFE0001FFFFFFFFFF0
FFFFFFFFFFC0000FFFFFFFFFF0
FFFFFFFFFF80000FFFFFFFFFF0
FFFFFFFFFF800007FFFFFFFFF0
FFFFFFFFFF800007FFFFFFFFF0
FFFFFFFFFF000007FFFFFFFFF0
FFFFFFFFFF000007FFFFFFFFF0
FFFFFFFFFF000007FFFFFFFFF0
FFFFFFFFFF000007FFFFFFFFF0
FFFFFFFFFF800007FFFFFFFFF0
FFFFFFFFFF800007FFFFFFFFF0
FFFFFFFFFF80000FFFFFFFFFF0
FFFFFFFFFFC0000FFFFFFFFFF0
FFFFFFFFFFC0001FFFFFFFFFF0
FFFFFFFFFFE0003FFFFFFFFFF0
FFFFFFFFFFF000FFFFFFFFFFF0
FFFFFFFFFFF001FFFFFFFFFFF0
FFFFFFFFFFF001FFFFFFFFFFF0
FFFFFFFFFFF001FFFFFFFFFFF0
FFFFFFFFFFF001FFFFFFFFFFF0
FFFFFFFFFFF001FFFFFFFFFFF0
FFFFFFFFFFF001FFFFFFFFFFF0
FFFFFFFFFFF001FFFFFFFFFFF0
FFFFFFFFFFF001FFFFFFFFFFF0
FFFFFFFFFFF001FFFFFFFFFFF0
FFFFFFFFFFF001FFFFFFFFFFF0
FFFFFFFFFFF001FFFFFFFFFFF0
FFFFFFFFFFF001FFFFFFFFFFF0
FFFFFFFFFFF001FFFFFFFFFFF0
FFFFFFFFFFF001FFFFFFFFFFF0
FFFFFFFFFFF001FFFFFFFFFFF0
FFFFFFFFFFF001FFFFFFFFFFF0
FFFFFFFFFFF001FFFFFFFFFFF0
FFFFFFFFFFF001FFFFFFFFFFF0
FFFFFFFFFFF001FFFFFFFFFFF0
FFFFFFFFFFF001FFFFFFFFFFF0
FFFFFFFFFFF001FFFFFFFFFFF0
FFFFFFFFFFF001FFFFFFFFFFF0
FFFFFFFFFFF001FFFFFFFFFFF0
FFFFFFFFFFF001FFFFFFFFFFF0
FFFFFFFFFFF001FFFFFFFFFFF0
FFFFFFFFFFF001FFFFFFFFFFF0
FFFFFFFFFFF001FFFFFFFFFFF0
FFFFFFFFFFF001FFFFFFFFFFF0
FFFFFFFFFFF001FFFFFFFFFFF0
FFFFFFFFFFF001FFFFFFFFFFF0
FFFFFFFFFFF001FFFFFFFFFFF0
FFFFFFFFFFF001FFFFFFFFFFF0
FFFFFFFFFFF001FFFFFFFFFFF0
FFFFFFFFFFF001FFFFFFFFFFF0
FFFFFFFFFFF001FFFFFFFFFFF0
FFFFFFFFFFF001FFFFFFFFFFF0
FFFFFFFFFFF001FFFFFFFFFFF0
FFFFFFFFFFF001FFFFFFFFFFF0
FFFFFFFFFFF001FFFFFFFFFFF0
FFFFFFFFFFF001FFFFFFFFFFF0
7FFFFFFFFFF000FFFFFFFFFFE0
7FFFFFFFFFF000FFFFFFFFFFE0
7FFFFFFFFFF000FFFFFFFFFFE0
3FFFFFFFFFE0007FFFFFFFFFC0
3FFFFFFFFFC0007FFFFFFFFFC0
1FFFFFFFFFC0003FFFFFFFFF80
0FFFFFFFFF80001FFFFFFFFF00
07FFFFFFFF00000FFFFFFFFE00
01FFFFFFFC000007FFFFFFFC00
007FFFFFF0000000FFFFFFE000
ENDCHAR
STARTCHAR 0053
ENCODING 83
SWIDTH 631 0
DWIDTH 120 0
BBX 100 154 10 0
BITMAP
00007FFFFFFFFFFFFFFFE00000
0007FFFFFFFFFFFFFFFFFE0000
001FFFFFFFFFFFFFFFFFFF8000
003FFFFFFFFFFFFFFFFFFFC000
00FFFFFFFFFFFFFFFFFFFFF000
01FFFFFFFFFFFFFFFFFFFFF800
03FFFFFFFFFFFFFFFFFFFFFC00
07FFFFFFFFFFFFFFFFFFFFFE00
0FFFFFFFFFFFFFFFFFFFFFFF00
0FFFFFFFFFFFFFFFFFFFFFFF00
1FFFFFFFFFFFFFFFFFFFFFFF80
3FFFFFFFFFFFFFFFFFFFFFFFC0
3FFFFFFFFFFFFFFFFFFFFFFFC0
3FFFFFFFFFFFFFFFFFFFFFFFE0
7FFFFFFFFFFFFFFFFFFFFFFFE0
7FFFFFFFFFFFFFFFFFFFFFFFE0
7FFFFFFFFFFFFFFFFFFFFFFFE0
7FFFFFFFFFFFFFFFFFFFFFFFF0
7FFFFFFFFFFFFFFFFFFFFFFFF0
FFFFFFFFFFFFFFFFFFFFFFFFF0
FFFFFFFFFFFFFFFFFFFFFFFFF0
FFFFFFFFFFFFFFFFFFFFFFFFF0
FFFFFFFFFFFFFFFFFFFFFFFFF0
FFFFFFFFFFFFFFFFFFFFFFFFF0
FFFFFFFFFFFFFFFFFFFFFFFFF0
FFFFFFFFFFFFFFFFFFFFFFFFF0
FFFFFFFFFFFFFFFFFFFFFFFFF0
FFFFFFFFFFFFFFFFFFFFFFFFF0
FFFFFFFFFFFFFFFFFFFFFFFFF0
FFFFFFFFFFFE07FFFFFFFFFFF0
FFFFFFFFFFF800FFFFFFFFFFF0
FFFFFFFFFFE0007FFFFFFFFFF0
FFFFFFFFFFC0003FFFFFFFFFF0
FFFFFFFFFF80001FFFFFFFFFF0
FFFFFFFFFF80001FFFFFFFFFF0
FFFFFFFFFF00000FFFFFFFFFF0
FFFFFFFFFF00000FFFFFFFFFF0
FFFFFFFFFF00000FFFFFFFFFF0
FFFFFFFFFE00000FFFFFFFFFF0
FFFFFFFFFE00000FFFFFFFFFE0
FFFFFFFFFF00000FFFFFFFFFE0
FFFFFFFFFF00000FFFFFFFFFE0
FFFFFFFFFF00000FFFFFFFFFC0
FFFFFFFFFF00000FFFFFFFFFC0
FFFFFFFFFF80001FFFFFFFFF80
FFFFFFFFFF80001FFFFFFFFF00
FFFFFFFFFFC0000FFFFFFFFC00
FFFFFFFFFFE00003FFFFFFF800
FFFFFFFFFFF000001FFFFF0000
FFFFFFFFFFFE0E000000000000
FFFFFFFFFFFFFF000000000000
FFFFFFFFFFFFFF800000000000
FFFFFFFFFFFFFFC00000000000
FFFFFFFFFFFFFFF00000000000
FFFFFFFFFFFFFFF80000000000
FFFFFFFFFFFFFFFC0000000000
FFFFFFFFFFFFFFFE0000000000
FFFFFFFFFFFFFFFF8000000000
FFFFFFFFFFFFFFFFC000000000
7FFFFFFFFFFFFFFFE000000000
7FFFFFFFFFFFFFFFF000000000
7FFFFFFFFFFFFFFFFC00000000
7FFFFFFFFFFFFFFFFE00000000
7FFFFFFFFFFFFFFFFF00000000
3FFFFFFFFFFFFFFFFF80000000
3FFFFFFFFFFFFFFFFFE0000000
1FFFFFFFFFFFFFFFFFF0000000
1FFFFFFFFFFFFFFFFFF8000000
0FFFFFFFFFFFFFFFFFFC000000
07FFFFFFFFFFFFFFFFFF000000
03FFFFFFFFFFFFFFFFFF800000
01FFFFFFFFFFFFFFFFFFC00000
00FFFFFFFFFFFFFFFFFFE00000
007FFFFFFFFFFFFFFFFFF00000
003FFFFFFFFFFFFFFFFFFC0000
000FFFFFFFFFFFFFFFFFFE0000
0007FFFFFFFFFFFFFFFFFF0000
0003FFFFFFFFFFFFFFFFFF8000
0001FFFFFFFFFFFFFFFFFFE000
00007FFFFFFFFFFFFFFFFFF000
00003FFFFFFFFFFFFFFFFFF800
00001FFFFFFFFFFFFFFFFFFC00
00000FFFFFFFFFFFFFFFFFFE00
000003FFFFFFFFFFFFFFFFFF00
000001FFFFFFFFFFFFFFFFFF80
000000FFFFFFFFFFFFFFFFFF80
0000007FFFFFFFFFFFFFFFFFC0
0000001FFFFFFFFFFFFFFFFFC0
0000000FFFFFFFFFFFFFFFFFE0
00000007FFFFFFFFFFFFFFFFE0
00000003FFFFFFFFFFFFFFFFE0
00000000FFFFFFFFFFFFFFFFE0
000000007FFFFFFFFFFFFFFFF0
000000003FFFFFFFFFFFFFFFF0
000000001FFFFFFFFFFFFFFFF0
0000000007FFFFFFFFFFFFFFF0
0000000003FFFFFFFFFFFFFFF0
0000000001FFFFFFFFFFFFFFF0
00000000007FFFFFFFFFFFFFF0
00000000003FFFFFFFFFFFFFF0
00000000001FFFFFFFFFFFFFF0
00000000000FFFFFFFFFFFFFF0
000000000003FFFFFFFFFFFFF0
000000000001FFFFFFFFFFFFF0
00000000000007FFFFFFFFFFF0
00000000000000FFFFFFFFFFF0
00FFFFFFFC00007FFFFFFFFFF0
03FFFFFFFF00003FFFFFFFFFF0
07FFFFFFFF80001FFFFFFFFFF0
0FFFFFFFFFC0001FFFFFFFFFF0
1FFFFFFFFF80000FFFFFFFFFF0
3FFFFFFFFF00000FFFFFFFFFF0
3FFFFFFFFF00000FFFFFFFFFF0
7FFFFFFFFF00000FFFFFFFFFF0
7FFFFFFFFE00000FFFFFFFFFF0
7FFFFFFFFE00000FFFFFFFFFF0
FFFFFFFFFF00000FFFFFFFFFF0
FFFFFFFFFF00000FFFFFFFFFF0
FFFFFFFFFF00000FFFFFFFFFF0
FFFFFFFFFF80001FFFFFFFFFF0
FFFFFFFFFF80001FFFFFFFFFF0
FFFFFFFFFFC0003FFFFFFFFFF0
FFFFFFFFFFE0007FFFFFFFFFF0
FFFFFFFFFFF001FFFFFFFFFFF0
FFFFFFFFFFFE07FFFFFFFFFFF0
FFFFFFFFFFFFFFFFFFFFFFFFF0
FFFFFFFFFFFFFFFFFFFFFFFFF0
FFFFFFFFFFFFFFFFFFFFFFFFF0
FFFFFFFFFFFFFFFFFFFFFFFFF0
FFFFFFFFFFFFFFFFFFFFFFFFF0
FFFFFFFFFFFFFFFFFFFFFFFFF0
FFFFFFFFFFFFFFFFFFFFFFFFF0
FFFFFFFFFFFFFFFFFFFFFFFFF0
FFFFFFFFFFFFFFFFFFFFFFFFF0
FFFFFFFFFFFFFFFFFFFFFFFFF0
7FFFFFFFFFFFFFFFFFFFFFFFF0
7FFFFFFFFFFFFFFFFFFFFFFFF0
7FFFFFFFFFFFFFFFFFFFFFFFE0
7FFFFFFFFFFFFFFFFFFFFFFFE0
7FFFFFFFFFFFFFFFFFFFFFFFE0
3FFFFFFFFFFFFFFFFFFFFFFFE0
3FFFFFFFFFFFFFFFFFFFFFFFC0
1FFFFFFFFFFFFFFFFFFFFFFFC0
1FFFFFFFFFFFFFFFFFFFFFFF80
0FFFFFFFFFFFFFFFFFFFFFFF80
0FFFFFFFFFFFFFFFFFFFFFFF00
07FFFFFFFFFFFFFFFFFFFFFE00
03FFFFFFFFFFFFFFFFFFFFFC00
01FFFFFFFFFFFFFFFFFFFFF800
00FFFFFFFFFFFFFFFFFFFFF000
003FFFFFFFFFFFFFFFFFFFE000
001FFFFFFFFFFFFFFFFFFF8000
0007FFFFFFFFFFFFFFFFFE0000
00007FFFFFFFFFFFFFFFF00000
ENDCHAR
STARTCHAR 0054
ENCODING 84
SWIDTH 594 0
DWIDTH 113 0
BBX 102 154 6 0
BITMAP
03FFFFFFFFFFFFFFFFFFFFFE00
0FFFFFFFFFFFFFFFFFFFFFFF80
1FFFFFFFFFFFFFFFFFFFFFFFC0
3FFFFFFFFFFFFFFFFFFFFFFFE0
7FFFFFFFFFFFFFFFFFFFFFFFF0
7FFFFFFFFFFFFFFFFFFFFFFFF8
FFFFFFFFFFFFFFFFFFFFFFFFF8
FFFFFFFFFFFFFFFFFFFFFFFFF8
FFFFFFFFFFFFFFFFFFFFFFFFF8
FFFFFFFFFFFFFFFFFFFFFFFFFC
FFFFFFFFFFFFFFFFFFFFFFFFFC
FFFFFFFFFFFFFFFFFFFFFFFFFC
FFFFFFFFFFFFFFFFFFFFFFFFFC
FFFFFFFFFFFFFFFFFFFFFFFFFC
FFFFFFFFFFFFFFFFFFFFFFFFFC
FFFFFFFFFFFFFFFFFFFFFFFFFC
FFFFFFFFFFFFFFFFFFFFFFFFFC
FFFFFFFFFFFFFFFFFFFFFFFFFC
FFFFFFFFFFFFFFFFFFFFFFFFFC
FFFFFFFFFFFFFFFFFFFFFFFFFC
FFFFFFFFFFFFFFFFFFFFFFFFFC
FFFFFFFFFFFFFFFFFFFFFFFFFC
FFFFFFFFFFFFFFFFFFFFFFFFFC
FFFFFFFFFFFFFFFFFFFFFFFFFC
FFFFFFFFFFFFFFFFFFFFFFFFFC
FFFFFFFFFFFFFFFFFFFFFFFFFC
FFFFFFFFFFFFFFFFFFFFFFFFFC
FFFFFFFFFFFFFFFFFFFFFFFFFC
FFFFFFFFFFFFFFFFF01FFFFFFC
FFFFFFFFFFFFFFFFC007FFFFFC
FFFFFFFFFFFFFFFF8003FFFFF8
FFFFFFFFFFFFFFFF0001FFFFF8
FFFFFFFFFFFFFFFE0000FFFFF8
7FFFFFFFFFFFFFFE00007FFFF0
3FFFFFFFFFFFFFFC00007FFFF0
1FFFFFFFFFFFFFFC00007FFFE0
0FFFFFFFFFFFFFF800003FFF80
07FFFFFFFFFFFFF800003FFF00
0000001FFFFFFFF80000000000
0000001FFFFFFFF80000000000
0000001FFFFFFFF80000000000
0000001FFFFFFFFC0000000000
0000001FFFFFFFFC0000000000
0000001FFFFFFFFC0000000000
0000001FFFFFFFFE0000000000
0000001FFFFFFFFF0000000000
0000001FFFFFFFFF8000000000
0000001FFFFFFFFFC000000000
0000001FFFFFFFFFF000000000
0000001FFFFFFFFFFF00000000
0000001FFFFFFFFFFF00000000
0000001FFFFFFFFFFF00000000
0000001FFFFFFFFFFF00000000
0000001FFFFFFFFFFF00000000
0000001FFFFFFFFFFF00000000
0000001FFFFFFFFFFF00000000
0000001FFFFFFFFFFF00000000
0000001FFFFFFFFFFF00000000
0000001FFFFFFFFFFF00000000
0000001FFFFFFFFFFF00000000
0000001FFFFFFFFFFF00000000
0000001FFFFFFFFFFF00000000
0000001FFFFFFFFFFF00000000
0000001FFFFFFFFFFF00000000
0000001FFFFFFFFFFF00000000
0000001FFFFFFFFFFF00000000
0000001FFFFFFFFFFF00000000
0000001FFFFFFFFFFF00000000
0000001FFFFFFFFFFF00000000
0000001FFFFFFFFFFF00000000
0000001FFFFFFFFFFF00000000
0000001FFFFFFFFFFF00000000
0000001FFFFFFFFFFF00000000
0000001FFFFFFFFFFF00000000
0000001FFFFFFFFFFF00000000
0000001FFFFFFFFFFF00000000
0000001FFFFFFFFFFF00000000
0000001FFFFFFFFFFF00000000
0000001FFFFFFFFFFF00000000
0000001FFFFFFFFFFF00000000
0000001FFFFFFFFFFF00000000
0000001FFFFFFFFFFF00000000
0000001FFFFFFFFFFF00000000
0000001FFFFFFFFFFF00000000
0000001FFFFFFFFFFF00000000
0000001FFFFFFFFFFF00000000
0000001FFFFFFFFFFF00000000
0000001FFFFFFFFFFF00000000
0000001FFFFFFFFFFF00000000
0000001FFFFFFFFFFF00000000
0000001FFFFFFFFFFF00000000
0000001FFFFFFFFFFF00000000
0000001FFFFFFFFFFF00000000
0000001FFFFFFFFFFF00000000
0000001FFFFFFFFFFF00000000
0000001FFFFFFFFFFF00000000
0000001FFFFFFFFFFF00000000
0000001FFFFFFFFFFF00000000
0000001FFFFFFFFFFF00000000
0000001FFFFFFFFFFF00000000
0000001FFFFFFFFFFF00000000
0000001FFFFFFFFFFF00000000
0000001FFFFFFFFFFF00000000
0000001FFFFFFFFFFF00000000
0000001FFFFFFFFFFF00000000
0000001FFFFFFFFFFF00000000
0000001FFFFFFFFFFF00000000
0000001FFFFFFFFFFF00000000
0000001FFFFFFFFFFF00000000
0000001FFFFFFFFFFF00000000
0000001FFFFFFFFFFF00000000
0000001FFFFFFFFFFF00000000
0000001FFFFFFFFFFF00000000
0000001FFFFFFFFFFF00000000
0000001FFFFFFFFFFF00000000
0000001FFFFFFFFFFF00000000
0000001FFFFFFFFFFF00000000
0000001FFFFFFFFFFF00000000
0000001FFFFFFFFFFF00000000
0000001FFFFFFFFFFF00000000
0000001FFFFFFFFFFF00000000
0000001FFFFFFFFFFF00000000
0000001FFFFFFFFFFF00000000
0000001FFFFFFFFFFF00000000
0000001FFFFFFFFFFF00000000
0000001FFFFFFFFFFF00000000
0000001FFFFFFFFFFF00000000
0000001FFFFFFFFFFF00000000
0000001FFFFFFFFFFF00000000
0000001FFFFFFFFFFF00000000
0000001FFFFFFFFFFF00000000
0000001FFFFFFFFFFF00000000
0000001FFFFFFFFFFF00000000
0000001FFFFFFFFFFF00000000
0000001FFFFFFFFFFF00000000
0000001FFFFFFFFFFF00000000
0000001FFFFFFFFFFF00000000
0000001FFFFFFFFFFF00000000
0000001FFFFFFFFFFF00000000
0000001FFFFFFFFFFF00000000
0000001FFFFFFFFFFF00000000
0000001FFFFFFFFFFF00000000
0000001FFFFFFFFFFF00000000
0000001FFFFFFFFFFE00000000
0000001FFFFFFFFFFE00000000
0000001FFFFFFFFFFE00000000
0000000FFFFFFFFFFE00000000
0000000FFFFFFFFFFC00000000
00000007FFFFFFFFFC00000000
00000003FFFFFFFFF800000000
00000003FFFFFFFFF000000000
00000000FFFFFFFFE000000000
000000007FFFFFFF8000000000
000000000FFFFFFE0000000000
ENDCHAR
STARTCHAR 0055
ENCODING 85
SWIDTH 642 0
DWIDTH 122 0
BBX 99 154 11 0
BITMAP
007FFFFFF0000001FFFFFFE000
01FFFFFFFC000007FFFFFFF800
07FFFFFFFF00001FFFFFFFFE00
0FFFFFFFFF80003FFFFFFFFF00
1FFFFFFFFFC0007FFFFFFFFF80
3FFFFFFFFFC000FFFFFFFFFF80
3FFFFFFFFFE000FFFFFFFFFFC0
7FFFFFFFFFF001FFFFFFFFFFE0
7FFFFFFFFFF001FFFFFFFFFFE0
7FFFFFFFFFF001FFFFFFFFFFE0
FFFFFFFFFFF003FFFFFFFFFFE0
FFFFFFFFFFF003FFFFFFFFFFE0
FFFFFFFFFFF003FFFFFFFFFFE0
FFFFFFFFFFF003FFFFFFFFFFE0
FFFFFFFFFFF003FFFFFFFFFFE0
FFFFFFFFFFF003FFFFFFFFFFE0
FFFFFFFFFFF003FFFFFFFFFFE0
FFFFFFFFFFF003FFFFFFFFFFE0
FFFFFFFFFFF003FFFFFFFFFFE0
FFFFFFFFFFF003FFFFFFFFFFE0
FFFFFFFFFFF003FFFFFFFFFFE0
FFFFFFFFFFF003FFFFFFFFFFE0
FFFFFFFFFFF003FFFFFFFFFFE0
FFFFFFFFFFF003FFFFFFFFFFE0
FFFFFFFFFFF003FFFFFFFFFFE0
FFFFFFFFFFF003FFFFFFFFFFE0
FFFFFFFFFFF003FFFFFFFFFFE0
FFFFFFFFFFF003FFFFFFFFFFE0
FFFFFFFFFFF003FFFFFFFFFFE0
FFFFFFFFFFF003FFFFFFFFFFE0
FFFFFFFFFFF003FFFFFFFFFFE0
FFFFFFFFFFF003FFFFFFFFFFE0
FFFFFFFFFFF003FFFFFFFFFFE0
FFFFFFFFFFF003FFFFFFFFFFE0
FFFFFFFFFFF003FFFFFFFFFFE0
FFFFFFFFFFF003FFFFFFFFFFE0
FFFFFFFFFFF003FFFFFFFFFFE0
FFFFFFFFFFF003FFFFFFFFFFE0
FFFFFFFFFFF003FFFFFFFFFFE0
FFFFFFFFFFF003FFFFFFFFFFE0
FFFFFFFFFFF003FFFFFFFFFFE0
FFFFFFFFFFF003FFFFFFFFFFE0
FFFFFFFFFFF003FFFFFFFFFFE0
FFFFFFFFFFF003FFFFFFFFFFE0
FFFFFFFFFFF003FFFFFFFFFFE0
FFFFFFFFFFF003FFFFFFFFFFE0
FFFFFFFFFFF003FFFFFFFFFFE0
FFFFFFFFFFF003FFFFFFFFFFE0
FFFFFFFFFFF003FFFFFFFFFFE0
FFFFFFFFFFF003FFFFFFFFFFE0
FFFFFFFFFFF003FFFFFFFFFFE0
FFFFFFFFFFF003FFFFFFFFFFE0
FFFFFFFFFFF003FFFFFFFFFFE0
FFFFFFFFFFF003FFFFFFFFFFE0
FFFFFFFFFFF003FFFFFFFFFFE0
FFFFFFFFFFF003FFFFFFFFFFE0
FFFFFFFFFFF003FFFFFFFFFFE0
FFFFFFFFFFF003FFFFFFFFFFE0
FFFFFFFFFFF003FFFFFFFFFFE0
FFFFFFFFFFF003FFFFFFFFFFE0
FFFFFFFFFFF003FFFFFFFFFFE0
FFFFFFFFFFF003FFFFFFFFFFE0
FFFFFFFFFFF003FFFFFFFFFFE0
FFFFFFFFFFF003FFFFFFFFFFE0
FFFFFFFFFFF003FFFFFFFFFFE0
FFFFFFFFFFF003FFFFFFFFFFE0
FFFFFFFFFFF003FFFFFFFFFFE0
FFFFFFFFFFF003FFFFFFFFFFE0
FFFFFFFFFFF003FFFFFFFFFFE0
FFFFFFFFFFF003FFFFFFFFFFE0
FFFFFFFFFFF003FFFFFFFFFFE0
FFFFFFFFFFF003FFFFFFFFFFE0
FFFFFFFFFFF003FFFFFFFFFFE0
FFFFFFFFFFF003FFFFFFFFFFE0
FFFFFFFFFFF003FFFFFFFFFFE0
FFFFFFFFFFF003FFFFFFFFFFE0
FFFFFFFFFFF003FFFFFFFFFFE0
FFFFFFFFFFF003FFFFFFFFFFE0
FFFFFFFFFFF003FFFFFFFFFFE0
FFFFFFFFFFF003FFFFFFFFFFE0
FFFFFFFFFFF003FFFFFFFFFFE0
FFFFFFFFFFF003FFFFFFFFFFE0
FFFFFFFFFFF003FFFFFFFFFFE0
FFFFFFFFFFF003FFFFFFFFFFE0
FFFFFFFFFFF003FFFFFFFFFFE0
FFFFFFFFFFF003FFFFFFFFFFE0
FFFFFFFFFFF003FFFFFFFFFFE0
FFFFFFFFFFF003FFFFFFFFFFE0
FFFFFFFFFFF003FFFFFFFFFFE0
FFFFFFFFFFF003FFFFFFFFFFE0
FFFFFFFFFFF003FFFFFFFFFFE0
FFFFFFFFFFF003FFFFFFFFFFE0
FFFFFFFFFFF003FFFFFFFFFFE0
FFFFFFFFFFF003FFFFFFFFFFE0
FFFFFFFFFFF003FFFFFFFFFFE0
FFFFFFFFFFF003FFFFFFFFFFE0
FFFFFFFFFFF003FFFFFFFFFFE0
FFFFFFFFFFF003FFFFFFFFFFE0
FFFFFFFFFFF003FFFFFFFFFFE0
FFFFFFFFFFF003FFFFFFFFFFE0
FFFFFFFFFFF003FFFFFFFFFFE0
FFFFFFFFFFF003FFFFFFFFFFE0
FFFFFFFFFFF003FFFFFFFFFFE0
FFFFFFFFFFF003FFFFFFFFFFE0
FFFFFFFFFFF003FFFFFFFFFFE0
FFFFFFFFFFF003FFFFFFFFFFE0
FFFFFFFFFFF001FFFFFFFFFFE0
FFFFFFFFFFC000FFFFFFFFFFE0
FFFFFFFFFFC0007FFFFFFFFFE0
FFFFFFFFFF80003FFFFFFFFFE0
FFFFFFFFFF00001FFFFFFFFFE0
FFFFFFFFFF00001FFFFFFFFFE0
FFFFFFFFFF00001FFFFFFFFFE0
FFFFFFFFFE00001FFFFFFFFFE0
FFFFFFFFFE00001FFFFFFFFFE0
FFFFFFFFFE00001FFFFFFFFFE0
FFFFFFFFFF00001FFFFFFFFFE0
FFFFFFFFFF00001FFFFFFFFFE0
FFFFFFFFFF00001FFFFFFFFFE0
FFFFFFFFFF00003FFFFFFFFFE0
FFFFFFFFFF80003FFFFFFFFFE0
FFFFFFFFFFC0007FFFFFFFFFE0
FFFFFFFFFFE000FFFFFFFFFFE0
FFFFFFFFFFF001FFFFFFFFFFE0
FFFFFFFFFFFC07FFFFFFFFFFE0
FFFFFFFFFFFFFFFFFFFFFFFFE0
FFFFFFFFFFFFFFFFFFFFFFFFE0
FFFFFFFFFFFFFFFFFFFFFFFFE0
7FFFFFFFFFFFFFFFFFFFFFFFE0
7FFFFFFFFFFFFFFFFFFFFFFFE0
7FFFFFFFFFFFFFFFFFFFFFFFE0
7FFFFFFFFFFFFFFFFFFFFFFFE0
7FFFFFFFFFFFFFFFFFFFFFFFE0
7FFFFFFFFFFFFFFFFFFFFFFFC0
3FFFFFFFFFFFFFFFFFFFFFFFC0
3FFFFFFFFFFFFFFFFFFFFFFFC0
3FFFFFFFFFFFFFFFFFFFFFFF80
1FFFFFFFFFFFFFFFFFFFFFFF80
1FFFFFFFFFFFFFFFFFFFFFFF80
0FFFFFFFFFFFFFFFFFFFFFFF00
0FFFFFFFFFFFFFFFFFFFFFFE00
07FFFFFFFFFFFFFFFFFFFFFE00
03FFFFFFFFFFFFFFFFFFFFFC00
03FFFFFFFFFFFFFFFFFFFFF800
01FFFFFFFFFFFFFFFFFFFFF800
00FFFFFFFFFFFFFFFFFFFFF000
007FFFFFFFFFFFFFFFFFFFE000
003FFFFFFFFFFFFFFFFFFFC000
000FFFFFFFFFFFFFFFFFFF0000
0007FFFFFFFFFFFFFFFFFE0000
0001FFFFFFFFFFFFFFFFF80000
00007FFFFFFFFFFFFFFFE00000
00001FFFFFFFFFFFFFFF800000
000001FFFFFFFFFFFFF8000000
ENDCHAR
STARTCHAR 0056
ENCODING 86
SWIDTH 642 0
DWIDTH 122 0
BBX 99 154 11 0
BITMAP
007FFFFFF0000001FFFFFFE000
03FFFFFFFC000007FFFFFFF800
07FFFFFFFF00001FFFFFFFFE00
0FFFFFFFFF80003FFFFFFFFF00
1FFFFFFFFFC0007FFFFFFFFF80
3FFFFFFFFFC000FFFFFFFFFF80
3FFFFFFFFFE000FFFFFFFFFFC0
7FFFFFFFFFF001FFFFFFFFFFE0
7FFFFFFFFFF001FFFFFFFFFFE0
7FFFFFFFFFF001FFFFFFFFFFE0
FFFFFFFFFFF003FFFFFFFFFFE0
FFFFFFFFFFF003FFFFFFFFFFE0
FFFFFFFFFFF003FFFFFFFFFFE0
FFFFFFFFFFF003FFFFFFFFFFE0
FFFFFFFFFFF003FFFFFFFFFFE0
FFFFFFFFFFF003FFFFFFFFFFE0
FFFFFFFFFFF003FFFFFFFFFFE0
FFFFFFFFFFF003FFFFFFFFFFE0
FFFFFFFFFFF003FFFFFFFFFFE0
FFFFFFFFFFF003FFFFFFFFFFE0
FFFFFFFFFFF003FFFFFFFFFFE0
FFFFFFFFFFF003FFFFFFFFFFE0
FFFFFFFFFFF003FFFFFFFFFFE0
FFFFFFFFFFF003FFFFFFFFFFE0
FFFFFFFFFFF003FFFFFFFFFFE0
FFFFFFFFFFF003FFFFFFFFFFE0
FFFFFFFFFFF003FFFFFFFFFFE0
FFFFFFFFFFF003FFFFFFFFFFE0
FFFFFFFFFFF003FFFFFFFFFFE0
FFFFFFFFFFF003FFFFFFFFFFE0
FFFFFFFFFFF003FFFFFFFFFFE0
FFFFFFFFFFF003FFFFFFFFFFE0
FFFFFFFFFFF003FFFFFFFFFFE0
FFFFFFFFFFF003FFFFFFFFFFE0
FFFFFFFFFFF003FFFFFFFFFFE0
FFFFFFFFFFF003FFFFFFFFFFE0
FFFFFFFFFFF003FFFFFFFFFFE0
FFFFFFFFFFF003FFFFFFFFFFE0
FFFFFFFFFFF003FFFFFFFFFFE0
FFFFFFFFFFF003FFFFFFFFFFE0
FFFFFFFFFFF003FFFFFFFFFFE0
FFFFFFFFFFF003FFFFFFFFFFE0
FFFFFFFFFFF003FFFFFFFFFFE0
FFFFFFFFFFF003FFFFFFFFFFE0
FFFFFFFFFFF003FFFFFFFFFFE0
FFFFFFFFFFF003FFFFFFFFFFE0
FFFFFFFFFFF003FFFFFFFFFFE0
FFFFFFFFFFF003FFFFFFFFFFE0
FFFFFFFFFFF003FFFFFFFFFFE0
FFFFFFFFFFF003FFFFFFFFFFE0
FFFFFFFFFFF003FFFFFFFFFFE0
FFFFFFFFFFF003FFFFFFFFFFE0
FFFFFFFFFFF003FFFFFFFFFFE0
FFFFFFFFFFF003FFFFFFFFFFE0
FFFFFFFFFFF003FFFFFFFFFFE0
FFFFFFFFFFF003FFFFFFFFFFE0
FFFFFFFFFFF003FFFFFFFFFFE0
FFFFFFFFFFF003FFFFFFFFFFE0
FFFFFFFFFFF003FFFFFFFFFFE0
FFFFFFFFFFF003FFFFFFFFFFE0
FFFFFFFFFFF003FFFFFFFFFFE0
FFFFFFFFFFF003FFFFFFFFFFE0
FFFFFFFFFFF003FFFFFFFFFFE0
FFFFFFFFFFF003FFFFFFFFFFE0
FFFFFFFFFFF003FFFFFFFFFFE0
FFFFFFFFFFF003FFFFFFFFFFE0
FFFFFFFFFFF003FFFFFFFFFFE0
FFFFFFFFFFF003FFFFFFFFFFE0
FFFFFFFFFFF003FFFFFFFFFFE0
FFFFFFFFFFF003FFFFFFFFFFE0
FFFFFFFFFFF003FFFFFFFFFFE0
FFFFFFFFFFF003FFFFFFFFFFE0
FFFFFFFFFFF003FFFFFFFFFFE0
FFFFFFFFFFF003FFFFFFFFFFE0
FFFFFFFFFFF003FFFFFFFFFFE0
FFFFFFFFFFF003FFFFFFFFFFE0
FFFFFFFFFFF003FFFFFFFFFFE0
FFFFFFFFFFF003FFFFFFFFFFE0
FFFFFFFFFFF003FFFFFFFFFFE0
FFFFFFFFFFF003FFFFFFFFFFE0
FFFFFFFFFFF003FFFFFFFFFFE0
FFFFFFFFFFF003FFFFFFFFFFE0
FFFFFFFFFFF003FFFFFFFFFFE0
FFFFFFFFFFF003FFFFFFFFFFE0
FFFFFFFFFFF003FFFFFFFFFFE0
FFFFFFFFFFF003FFFFFFFFFFE0
FFFFFFFFFFF003FFFFFFFFFFE0
FFFFFFFFFFF003FFFFFFFFFFE0
FFFFFFFFFFF003FFFFFFFFFFE0
FFFFFFFFFFF003FFFFFFFFFFE0
FFFFFFFFFFF003FFFFFFFFFFE0
FFFFFFFFFFF003FFFFFFFFFFE0
FFFFFFFFFFF003FFFFFFFFFFE0
FFFFFFFFFFF003FFFFFFFFFFE0
FFFFFFFFFFF003FFFFFFFFFFE0
FFFFFFFFFFF003FFFFFFFFFFE0
FFFFFFFFFFF003FFFFFFFFFFE0
FFFFFFFFFFF003FFFFFFFFFFE0
FFFFFFFFFFF003FFFFFFFFFFE0
FFFFFFFFFFF003FFFFFFFFFFE0
FFFFFFFFFFF003FFFFFFFFFFE0
FFFFFFFFFFF003FFFFFFFFFFE0
FFFFFFFFFFF003FFFFFFFFFFE0
FFFFFFFFFFF003FFFFFFFFFFE0
FFFFFFFFFFF003FFFFFFFFFFE0
FFFFFFFFFFF003FFFFFFFFFFE0
FFFFFFFFFFF001FFFFFFFFFFE0
FFFFFFFFFFC0007FFFFFFFFFE0
FFFFFFFFFFC0003FFFFFFFFFE0
FFFFFFFFFF80001FFFFFFFFFE0
FFFFFFFFFF00001FFFFFFFFFE0
FFFFFFFFFF00000FFFFFFFFFE0
FFFFFFFFFF00000FFFFFFFFFE0
FFFFFFFFFE00000FFFFFFFFFE0
7FFFFFFFFE00000FFFFFFFFFE0
7FFFFFFFFE00000FFFFFFFFFE0
7FFFFFFFFF00000FFFFFFFFFE0
7FFFFFFFFF00000FFFFFFFFFE0
7FFFFFFFFF00000FFFFFFFFFE0
7FFFFFFFFF80001FFFFFFFFFC0
3FFFFFFFFF80003FFFFFFFFFC0
3FFFFFFFFFC0003FFFFFFFFFC0
3FFFFFFFFFE0007FFFFFFFFF80
1FFFFFFFFFF001FFFFFFFFFF80
1FFFFFFFFFFE07FFFFFFFFFF00
0FFFFFFFFFFFFFFFFFFFFFFF00
0FFFFFFFFFFFFFFFFFFFFFFE00
07FFFFFFFFFFFFFFFFFFFFFE00
03FFFFFFFFFFFFFFFFFFFFFC00
03FFFFFFFFFFFFFFFFFFFFF800
01FFFFFFFFFFFFFFFFFFFFF000
00FFFFFFFFFFFFFFFFFFFFE000
007FFFFFFFFFFFFFFFFFFFC000
003FFFFFFFFFFFFFFFFFFF8000
000FFFFFFFFFFFFFFFFFFF0000
0007FFFFFFFFFFFFFFFFFE0000
0003FFFFFFFFFFFFFFFFF80000
0001FFFFFFFFFFFFFFFFF00000
0000FFFFFFFFFFFFFFFFE00000
00003FFFFFFFFFFFFFFFC00000
00001FFFFFFFFFFFFFFF800000
00000FFFFFFFFFFFFFFE000000
000007FFFFFFFFFFFFFC000000
000003FFFFFFFFFFFFF8000000
000000FFFFFFFFFFFFF0000000
0000007FFFFFFFFFFFC0000000
0000003FFFFFFFFFFF80000000
0000001FFFFFFFFFFF00000000
0000000FFFFFFFFFFE00000000
00000003FFFFFFFFF800000000
00000001FFFFFFFFF000000000
00000000FFFFFFFFE000000000
000000007FFFFFFFC000000000
000000000FFFFFFE0000000000
ENDCHAR
STARTCHAR 0057
ENCODING 87
SWIDTH 789 0
DWIDTH 150 0
BBX 127 154 11 0
BITMAP
007FFFFE0001FFFFF80000FFFFFFFE00
01FFFFFE0007FFFFFF0001FFFFFFFF80
07FFFFFE001FFFFFFF8001FFFFFFFFE0
0FFFFFFE001FFFFFFFC000FFFFFFFFF0
1FFFFFFF001FFFFFFFE000FFFFFFFFF8
3FFFFFFF001FFFFFFFF000FFFFFFFFF8
3FFFFFFF001FFFFFFFF800FFFFFFFFFC
7FFFFFFF001FFFFFFFF800FFFFFFFFFC
7FFFFFFF000FFFFFFFF8007FFFFFFFFE
7FFFFFFF800FFFFFFFFC007FFFFFFFFE
7FFFFFFF800FFFFFFFFC007FFFFFFFFE
FFFFFFFF800FFFFFFFFC007FFFFFFFFE
FFFFFFFF800FFFFFFFFC007FFFFFFFFE
FFFFFFFFC007FFFFFFFC003FFFFFFFFE
FFFFFFFFC007FFFFFFFE003FFFFFFFFE
FFFFFFFFC007FFFFFFFE003FFFFFFFFE
FFFFFFFFC007FFFFFFFE003FFFFFFFFE
FFFFFFFFC007FFFFFFFE003FFFFFFFFE
FFFFFFFFE003FFFFFFFF001FFFFFFFFE
FFFFFFFFE003FFFFFFFF001FFFFFFFFE
FFFFFFFFE003FFFFFFFF001FFFFFFFFE
FFFFFFFFE003FFFFFFFF001FFFFFFFFE
FFFFFFFFF003FFFFFFFF001FFFFFFFFE
FFFFFFFFF001FFFFFFFF800FFFFFFFFE
FFFFFFFFF001FFFFFFFF800FFFFFFFFE
FFFFFFFFF001FFFFFFFF800FFFFFFFFE
FFFFFFFFF001FFFFFFFF800FFFFFFFFE
FFFFFFFFF801FFFFFFFFC00FFFFFFFFE
FFFFFFFFF800FFFFFFFFC007FFFFFFFE
FFFFFFFFF800FFFFFFFFC007FFFFFFFE
FFFFFFFFF800FFFFFFFFC007FFFFFFFE
FFFFFFFFF800FFFFFFFFC007FFFFFFFE
FFFFFFFFFC00FFFFFFFFE007FFFFFFFE
FFFFFFFFFC007FFFFFFFE003FFFFFFFE
FFFFFFFFFC007FFFFFFFE003FFFFFFFE
FFFFFFFFFC007FFFFFFFE003FFFFFFFE
FFFFFFFFFE007FFFFFFFE003FFFFFFFE
FFFFFFFFFE007FFFFFFFF003FFFFFFFE
FFFFFFFFFE003FFFFFFFF001FFFFFFFE
FFFFFFFFFE003FFFFFFFF001FFFFFFFE
FFFFFFFFFE003FFFFFFFF001FFFFFFFE
FFFFFFFFFF003FFFFFFFF801FFFFFFFE
FFFFFFFFFF003FFFFFFFF801FFFFFFFE
FFFFFFFFFF001FFFFFFFF800FFFFFFFE
FFFFFFFFFF001FFFFFFFF800FFFFFFFE
FFFFFFFFFF001FFFFFFFF800FFFFFFFE
FFFFFFFFFF801FFFFFFFFC00FFFFFFFE
FFFFFFFFFF801FFFFFFFFC00FFFFFFFE
FFFFFFFFFF800FFFFFFFFC007FFFFFFE
FFFFFFFFFF800FFFFFFFFC007FFFFFFE
FFFFFFFFFFC00FFFFFFFFE007FFFFFFE
FFFFFFFFFFC00FFFFFFFFE007FFFFFFE
FFFFFFFFFFC007FFFFFFFE007FFFFFFE
FFFFFFFFFFC007FFFFFFFE003FFFFFFE
FFFFFFFFFFC007FFFFFFFE003FFFFFFE
FFFFFFFFFFE007FFFFFFFF003FFFFFFE
FFFFFFFFFFE007FFFFFFFF003FFFFFFE
FFFFFFFFFFE003FFFFFFFF003FFFFFFE
FFFFFFFFFFE003FFFFFFFF001FFFFFFE
FFFFFFFFFFF003FFFFFFFF001FFFFFFE
FFFFFFFFFFF003FFFFFFFF801FFFFFFE
FFFFFFFFFFF003FFFFFFFF801FFFFFFE
FFFFFFFFFFF001FFFFFFFF800FFFFFFE
FFFFFFFFFFF001FFFFFFFF800FFFFFFE
FFFFFFFFFFF801FFFFFFFFC00FFFFFFE
FFFFFFFFFFF801FFFFFFFFC00FFFFFFE
FFFFFFFFFFF801FFFFFFFFC00FFFFFFE
FFFFFFFFFFF800FFFFFFFFC007FFFFFE
FFFFFFFFFFF800FFFFFFFFC007FFFFFE
FFFFFFFFFFFC00FFFFFFFFE007FFFFFE
FFFFFFFFFFFC00FFFFFFFFE007FFFFFE
FFFFFFFFFFFC00FFFFFFFFE007FFFFFE
FFFFFFFFFFFC007FFFFFFFE003FFFFFE
FFFFFFFFFFFE007FFFFFFFF003FFFFFE
FFFFFFFFFFFE003FFFFFFFF001FFFFFE
FFFFFFFFFFFE000FFFFFFFF0007FFFFE
FFFFFFFFFFFE0007FFFFFFF0003FFFFE
FFFFFFFFFFFC0003FFFFFFC0001FFFFE
FFFFFFFFFFF80001FFFFFF80001FFFFE
FFFFFFFFFFF00001FFFFFF80000FFFFE
FFFFFFFFFFF00000FFFFFF00000FFFFE
FFFFFFFFFFF00000FFFFFF00000FFFFE
FFFFFFFFFFE00000FFFFFF00000FFFFE
FFFFFFFFFFE00000FFFFFE00000FFFFE
FFFFFFFFFFE00000FFFFFE00000FFFFE
FFFFFFFFFFF00000FFFFFF00000FFFFE
FFFFFFFFFFF00000FFFFFF00000FFFFE
FFFFFFFFFFF00000FFFFFF00000FFFFE
FFFFFFFFFFF80001FFFFFF80001FFFFE
FFFFFFFFFFF80001FFFFFF80001FFFFE
FFFFFFFFFFFC0003FFFFFFC0003FFFFE
FFFFFFFFFFFE0007FFFFFFE0007FFFFE
FFFFFFFFFFFF000FFFFFFFF000FFFFFE
FFFFFFFFFFFFC03FFFFFFFFC03FFFFFE
FFFFFFFFFFFFFFFFFFFFFFFFFFFFFFFE
FFFFFFFFFFFFFFFFFFFFFFFFFFFFFFFE
FFFFFFFFFFFFFFFFFFFFFFFFFFFFFFFE
FFFFFFFFFFFFFFFFFFFFFFFFFFFFFFFE
FFFFFFFFFFFFFFFFFFFFFFFFFFFFFFFE
FFFFFFFFFFFFFFFFFFFFFFFFFFFFFFFE
FFFFFFFFFFFFFFFFFFFFFFFFFFFFFFFE
FFFFFFFFFFFFFFFFFFFFFFFFFFFFFFFE
FFFFFFFFFFFFFFFFFFFFFFFFFFFFFFFE
FFFFFFFFFFFFFFFFFFFFFFFFFFFFFFFE
FFFFFFFFFFFFFFFFFFFFFFFFFFFFFFFE
FFFFFFFFFFFFFFFFFFFFFFFFFFFFFFFE
FFFFFFFFFFFFFFFFFFFFFFFFFFFFFFFE
FFFFFFFFFFFFFFFFFFFFFFFFFFFFFFFE
FFFFFFFFFFFFFFFFFFFFFFFFFFFFFFFE
FFFFFFFFFFFFFFFFFFFFFFFFFFFFFFFE
FFFFFFFFFFFFFFFFFFFFFFFFFFFFFFFE
FFFFFFFFFFFFFFFFFFFFFFFFFFFFFFFE
FFFFFFFFFFFFFFFFFFFFFFFFFFFFFFFE
FFFFFFFFFFFFFFFFFFFFFFFFFFFFFFFE
FFFFFFFFFFFFFFFFFFFFFFFFFFFFFFFE
FFFFFFFFFFFFFFFFFFFFFFFFFFFFFFFE
FFFFFFFFFFFFFFFFFFFFFFFFFFFFFFFE
FFFFFFFFFFFFFFFFFFFFFFFFFFFFFFFE
FFFFFFFFFFFFFFFFFFFFFFFFFFFFFFFE
FFFFFFFFFFFFFFFFFFFFFFFFFFFFFFFE
FFFFFFFFFFFFFFFFFFFFFFFFFFFFFFFE
FFFFFFFFFFFFFFFFFFFFFFFFFFFFFFFE
FFFFFFFFFFFFFFFFFFFFFFFFFFFFFFFE
FFFFFFFFFFFFFFFFFFFFFFFFFFFFFFFE
FFFFFFFFFFFFFFFFFFFFFFFFFFFFFFFE
FFFFFFFFFFFFFFFFFFFFFFFFFFFFFFFE
FFFFFFFFFFFFFFFFFFFFFFFFFFFFFFFE
FFFFFFFFFFFFFFFFFFFFFFFFFFFFFFFE
FFFFFFFFFFFFFFFFFFFFFFFFFFFFFFFE
7FFFFFFFFFFFFFFFFFFFFFFFFFFFFFFE
7FFFFFFFFFFFFFFFFFFFFFFFFFFFFFFE
7FFFFFFFFFFFFFFFFFFFFFFFFFFFFFFE
7FFFFFFFFFFFFFFFFFFFFFFFFFFFFFFE
7FFFFFFFFFFFFFFFFFFFFFFFFFFFFFFC
3FFFFFFFFFFFFFFFFFFFFFFFFFFFFFFC
3FFFFFFFFFFFFFFFFFFFFFFFFFFFFFFC
3FFFFFFFFFFFFFFFFFFFFFFFFFFFFFF8
1FFFFFFFFFFFFFFFFFFFFFFFFFFFFFF8
1FFFFFFFFFFFFFFFFFFFFFFFFFFFFFF0
0FFFFFFFFFFFFFFFFFFFFFFFFFFFFFF0
0FFFFFFFFFFFFFFFFFFFFFFFFFFFFFE0
07FFFFFFFFFFFFFFFFFFFFFFFFFFFFE0
03FFFFFFFFFFFFFFFFFFFFFFFFFFFFC0
03FFFFFFFFFFFFFFFFFFFFFFFFFFFF80
01FFFFFFFFFFFFFFFFFFFFFFFFFFFF00
00FFFFFFFFFFFFFFFFFFFFFFFFFFFE00
007FFFFFFFFFFFFFFFFFFFFFFFFFFC00
003FFFFFFFFFFFFE7FFFFFFFFFFFF800
000FFFFFFFFFFFFC3FFFFFFFFFFFF000
0007FFFFFFFFFFF01FFFFFFFFFFFE000
0001FFFFFFFFFFE007FFFFFFFFFF8000
0000FFFFFFFFFF8001FFFFFFFFFE0000
00001FFFFFFFFC00003FFFFFFFF80000
000001FFFFFFC0000007FFFFFF800000
ENDCHAR
STARTCHAR 0058
ENCODING 88
SWIDTH 642 0
DWIDTH 122 0
BBX 100 154 11 0
BITMAP
007FFFFFF0000000FFFFFFE000
01FFFFFFFC000003FFFFFFF800
07FFFFFFFF00000FFFFFFFFE00
0FFFFFFFFF80001FFFFFFFFF00
1FFFFFFFFFC0003FFFFFFFFF80
3FFFFFFFFFE0007FFFFFFFFFC0
3FFFFFFFFFE0007FFFFFFFFFC0
7FFFFFFFFFF000FFFFFFFFFFE0
7FFFFFFFFFF000FFFFFFFFFFE0
7FFFFFFFFFF000FFFFFFFFFFE0
FFFFFFFFFFF001FFFFFFFFFFE0
FFFFFFFFFFF001FFFFFFFFFFF0
FFFFFFFFFFF001FFFFFFFFFFF0
FFFFFFFFFFF001FFFFFFFFFFF0
FFFFFFFFFFF001FFFFFFFFFFF0
FFFFFFFFFFF001FFFFFFFFFFF0
FFFFFFFFFFF001FFFFFFFFFFF0
FFFFFFFFFFF001FFFFFFFFFFF0
FFFFFFFFFFF001FFFFFFFFFFF0
FFFFFFFFFFF001FFFFFFFFFFF0
FFFFFFFFFFF001FFFFFFFFFFF0
FFFFFFFFFFF001FFFFFFFFFFF0
FFFFFFFFFFF001FFFFFFFFFFF0
FFFFFFFFFFF001FFFFFFFFFFF0
FFFFFFFFFFF001FFFFFFFFFFF0
FFFFFFFFFFF001FFFFFFFFFFF0
FFFFFFFFFFF001FFFFFFFFFFF0
FFFFFFFFFFF001FFFFFFFFFFF0
FFFFFFFFFFF001FFFFFFFFFFF0
FFFFFFFFFFF001FFFFFFFFFFF0
FFFFFFFFFFF001FFFFFFFFFFF0
FFFFFFFFFFF001FFFFFFFFFFF0
FFFFFFFFFFF001FFFFFFFFFFF0
FFFFFFFFFFF001FFFFFFFFFFF0
FFFFFFFFFFF001FFFFFFFFFFF0
FFFFFFFFFFF001FFFFFFFFFFF0
FFFFFFFFFFF001FFFFFFFFFFF0
FFFFFFFFFFE000FFFFFFFFFFF0
FFFFFFFFFFC0003FFFFFFFFFF0
FFFFFFFFFF80001FFFFFFFFFF0
FFFFFFFFFF80001FFFFFFFFFF0
FFFFFFFFFF00000FFFFFFFFFF0
FFFFFFFFFF00000FFFFFFFFFF0
FFFFFFFFFF00000FFFFFFFFFF0
FFFFFFFFFE00000FFFFFFFFFF0
FFFFFFFFFE00000FFFFFFFFFF0
FFFFFFFFFE00000FFFFFFFFFF0
FFFFFFFFFF00000FFFFFFFFFF0
FFFFFFFFFF00000FFFFFFFFFF0
FFFFFFFFFF00000FFFFFFFFFE0
7FFFFFFFFF80001FFFFFFFFFE0
7FFFFFFFFF80003FFFFFFFFFE0
7FFFFFFFFFC0003FFFFFFFFFE0
7FFFFFFFFFE000FFFFFFFFFFE0
7FFFFFFFFFF801FFFFFFFFFFE0
3FFFFFFFFFFE0FFFFFFFFFFFC0
3FFFFFFFFFFFFFFFFFFFFFFFC0
3FFFFFFFFFFFFFFFFFFFFFFFC0
1FFFFFFFFFFFFFFFFFFFFFFF80
1FFFFFFFFFFFFFFFFFFFFFFF80
0FFFFFFFFFFFFFFFFFFFFFFF00
0FFFFFFFFFFFFFFFFFFFFFFF00
07FFFFFFFFFFFFFFFFFFFFFE00
03FFFFFFFFFFFFFFFFFFFFFC00
03FFFFFFFFFFFFFFFFFFFFFC00
01FFFFFFFFFFFFFFFFFFFFF800
00FFFFFFFFFFFFFFFFFFFFF000
007FFFFFFFFFFFFFFFFFFFE000
003FFFFFFFFFFFFFFFFFFFC000
000FFFFFFFFFFFFFFFFFFF0000
000FFFFFFFFFFFFFFFFFFF0000
001FFFFFFFFFFFFFFFFFFF8000
007FFFFFFFFFFFFFFFFFFFE000
00FFFFFFFFFFFFFFFFFFFFF000
01FFFFFFFFFFFFFFFFFFFFF800
03FFFFFFFFFFFFFFFFFFFFFC00
03FFFFFFFFFFFFFFFFFFFFFC00
07FFFFFFFFFFFFFFFFFFFFFE00
0FFFFFFFFFFFFFFFFFFFFFFF00
0FFFFFFFFFFFFFFFFFFFFFFF00
1FFFFFFFFFFFFFFFFFFFFFFF80
1FFFFFFFFFFFFFFFFFFFFFFF80
3FFFFFFFFFFFFFFFFFFFFFFFC0
3FFFFFFFFFFFFFFFFFFFFFFFC0
3FFFFFFFFFFFFFFFFFFFFFFFC0
7FFFFFFFFFFC03FFFFFFFFFFE0
7FFFFFFFFFF000FFFFFFFFFFE0
7FFFFFFFFFE0007FFFFFFFFFE0
7FFFFFFFFFC0003FFFFFFFFFE0
7FFFFFFFFF80001FFFFFFFFFE0
7FFFFFFFFF00001FFFFFFFFFE0
FFFFFFFFFF00000FFFFFFFFFF0
FFFFFFFFFF00000FFFFFFFFFF0
FFFFFFFFFE00000FFFFFFFFFF0
FFFFFFFFFE00000FFFFFFFFFF0
FFFFFFFFFE00000FFFFFFFFFF0
FFFFFFFFFF00000FFFFFFFFFF0
FFFFFFFFFF00000FFFFFFFFFF0
FFFFFFFFFF00000FFFFFFFFFF0
FFFFFFFFFF00001FFFFFFFFFF0
FFFFFFFFFF80001FFFFFFFFFF0
FFFFFFFFFFC0003FFFFFFFFFF0
FFFFFFFFFFE0007FFFFFFFFFF0
FFFFFFFFFFF000FFFFFFFFFFF0
FFFFFFFFFFF001FFFFFFFFFFF0
FFFFFFFFFFF001FFFFFFFFFFF0
FFFFFFFFFFF001FFFFFFFFFFF0
FFFFFFFFFFF001FFFFFFFFFFF0
FFFFFFFFFFF001FFFFFFFFFFF0
FFFFFFFFFFF001FFFFFFFFFFF0
FFFFFFFFFFF001FFFFFFFFFFF0
FFFFFFFFFFF001FFFFFFFFFFF0
FFFFFFFFFFF001FFFFFFFFFFF0
FFFFFFFFFFF001FFFFFFFFFFF0
FFFFFFFFFFF001FFFFFFFFFFF0
FFFFFFFFFFF001FFFFFFFFFFF0
FFFFFFFFFFF001FFFFFFFFFFF0
FFFFFFFFFFF001FFFFFFFFFFF0
FFFFFFFFFFF001FFFFFFFFFFF0
FFFFFFFFFFF001FFFFFFFFFFF0
FFFFFFFFFFF001FFFFFFFFFFF0
FFFFFFFFFFF001FFFFFFFFFFF0
FFFFFFFFFFF001FFFFFFFFFFF0
FFFFFFFFFFF001FFFFFFFFFFF0
FFFFFFFFFFF001FFFFFFFFFFF0
FFFFFFFFFFF001FFFFFFFFFFF0
FFFFFFFFFFF001FFFFFFFFFFF0
FFFFFFFFFFF001FFFFFFFFFFF0
FFFFFFFFFFF001FFFFFFFFFFF0
FFFFFFFFFFF001FFFFFFFFFFF0
FFFFFFFFFFF001FFFFFFFFFFF0
FFFFFFFFFFF001FFFFFFFFFFF0
FFFFFFFFFFF001FFFFFFFFFFF0
FFFFFFFFFFF001FFFFFFFFFFF0
FFFFFFFFFFF001FFFFFFFFFFF0
FFFFFFFFFFF001FFFFFFFFFFF0
FFFFFFFFFFF001FFFFFFFFFFF0
FFFFFFFFFFF001FFFFFFFFFFF0
FFFFFFFFFFF001FFFFFFFFFFF0
FFFFFFFFFFF001FFFFFFFFFFF0
FFFFFFFFFFF001FFFFFFFFFFF0
FFFFFFFFFFF001FFFFFFFFFFF0
FFFFFFFFFFF001FFFFFFFFFFF0
FFFFFFFFFFF001FFFFFFFFFFE0
7FFFFFFFFFF000FFFFFFFFFFE0
7FFFFFFFFFF000FFFFFFFFFFE0
7FFFFFFFFFF000FFFFFFFFFFE0
3FFFFFFFFFE0007FFFFFFFFFC0
3FFFFFFFFFE0007FFFFFFFFFC0
1FFFFFFFFFC0003FFFFFFFFF80
0FFFFFFFFF80001FFFFFFFFF00
07FFFFFFFF00000FFFFFFFFE00
03FFFFFFFC000007FFFFFFF800
007FFFFFF0000000FFFFFFE000
ENDCHAR
ENDFONT
